<?xml version="1.0" standalone="no"?>
<!DOCTYPE svg PUBLIC "-//W3C//DTD SVG 1.1//EN" "http://www.w3.org/Graphics/SVG/1.1/DTD/svg11.dtd" >
<svg xmlns="http://www.w3.org/2000/svg" xmlns:xlink="http://www.w3.org/1999/xlink" version="1.1">
<metadata>
Created by FontForge 20170910 at Fri Feb 21 00:08:19 2014
 By Jimmy Wärting
2005 Albert-Jan Pool published by FSI FontShop International GmbH
</metadata>
<defs>
<font id="DINPro-CondensedRegular" horiz-adv-x="277" >
  <font-face 
    font-family="DIN Pro Cond"
    font-weight="400"
    font-stretch="condensed"
    units-per-em="1000"
    panose-1="2 11 5 6 2 1 1 1 1 2"
    ascent="800"
    descent="-200"
    x-height="509"
    cap-height="712"
    bbox="-70 -220 945 1073"
    underline-thickness="44"
    underline-position="-112"
    stemh="50"
    stemv="56"
    unicode-range="U+000D-FEFF"
  />
<missing-glyph horiz-adv-x="373" 
d="M62 0v712h249v-712h-249zM106 44h161v624h-161v-624z" />
    <glyph glyph-name=".notdef" horiz-adv-x="373" 
d="M62 0v712h249v-712h-249zM106 44h161v624h-161v-624z" />
    <glyph glyph-name=".null" horiz-adv-x="0" 
 />
    <glyph glyph-name=".null" horiz-adv-x="0" 
 />
    <glyph glyph-name="CR" unicode="&#xd;" horiz-adv-x="194" 
 />
    <glyph glyph-name="space" unicode=" " horiz-adv-x="194" 
 />
    <glyph glyph-name="exclam" unicode="!" horiz-adv-x="227" 
d="M156 187h-56v525h56v-525zM165 0h-75v75h75v-75z" />
    <glyph glyph-name="quotedbl" unicode="&#x22;" horiz-adv-x="352" 
d="M127 529h-65v183h65v-183zM290 529h-64v183h64v-183z" />
    <glyph glyph-name="numbersign" unicode="#" horiz-adv-x="500" 
d="M444 444h-79l-20 -163h73v-51h-81l-29 -230h-54l29 230h-102l-29 -230h-54l29 230h-72v51h79l21 163h-73v50h80l28 218h54l-28 -218h102l28 218h54l-28 -218h72v-50zM311 444h-102l-21 -163h102z" />
    <glyph glyph-name="dollar" unicode="$" horiz-adv-x="404" 
d="M351 186c0 -75 -12 -122 -44 -154c-19 -19 -46 -32 -81 -36v-110h-53v109c-37 3 -67 15 -89 37c-32 33 -42 68 -42 146h59c0 -55 6 -84 28 -106c11 -11 25 -19 44 -22v298l-32 13c-73 30 -94 71 -94 178c0 61 16 110 49 141c20 19 46 32 77 36v90h53v-90
c34 -4 61 -17 81 -37c35 -35 43 -76 43 -138h-59c0 45 -6 74 -27 98c-10 11 -22 19 -38 23v-273l33 -13c77 -31 92 -87 92 -190zM292 184c0 85 -13 118 -66 142v-275c16 4 29 11 38 21c23 25 28 56 28 112zM173 411v251c-15 -4 -27 -11 -36 -20c-22 -22 -31 -58 -31 -102
c0 -78 11 -104 67 -129z" />
    <glyph glyph-name="percent" unicode="%" horiz-adv-x="617" 
d="M252 446c0 -61 -42 -100 -99 -100s-98 39 -98 100v175c0 61 41 99 98 99s99 -38 99 -99v-175zM562 92c0 -61 -41 -100 -98 -100s-98 39 -98 100v174c0 61 41 100 98 100s98 -39 98 -100v-174zM456 712l-248 -712h-47l248 712h47zM514 92v174c0 35 -18 57 -50 57
s-50 -22 -50 -57v-174c0 -35 18 -57 50 -57s50 22 50 57zM203 446v174c0 35 -18 57 -50 57s-49 -22 -49 -57v-174c0 -35 17 -57 49 -57s50 22 50 57z" />
    <glyph glyph-name="ampersand" unicode="&#x26;" horiz-adv-x="486" 
d="M481 0h-64l-55 84c-44 -55 -87 -92 -166 -92c-88 0 -158 63 -158 172c0 87 39 146 124 224c-68 96 -90 130 -90 187c0 76 45 143 133 143s134 -56 134 -134c0 -84 -32 -130 -109 -203l132 -199c25 41 43 111 47 168h54c-6 -81 -31 -161 -69 -218zM332 130l-141 214
c-66 -65 -97 -115 -97 -175c0 -67 39 -125 108 -125c52 0 91 36 130 86zM285 582c0 50 -33 85 -79 85c-56 0 -79 -48 -79 -90c0 -40 15 -69 74 -152c52 51 84 88 84 157z" />
    <glyph glyph-name="quotesingle" unicode="'" horiz-adv-x="189" 
d="M127 529h-65v183h65v-183z" />
    <glyph glyph-name="parenleft" unicode="(" horiz-adv-x="222" 
d="M181 -56l-38 -38c-27 27 -51 53 -65 80c-17 32 -20 63 -20 97v546c0 34 3 65 20 97c16 31 38 53 65 80l38 -38c-20 -20 -40 -38 -52 -63c-11 -21 -15 -49 -15 -82v-534c0 -33 4 -61 15 -82c12 -25 32 -43 52 -63z" />
    <glyph glyph-name="parenright" unicode=")" horiz-adv-x="222" 
d="M164 83c0 -34 -3 -65 -20 -97c-14 -27 -39 -53 -66 -80l-38 38c20 20 41 38 53 63c11 21 15 49 15 82v534c0 33 -4 61 -15 82c-12 25 -33 43 -53 63l38 38c30 -30 51 -51 66 -80c17 -32 20 -63 20 -97v-546z" />
    <glyph glyph-name="asterisk" unicode="*" horiz-adv-x="369" 
d="M318 505l-22 -40l-91 55l2 -127h-45l3 127l-92 -55l-22 40l93 50l-93 50l22 40l92 -55l-3 127h45l-2 -127l91 55l22 -40l-93 -50z" />
    <glyph glyph-name="plus" unicode="+" horiz-adv-x="431" 
d="M383 251h-141v-141h-53v141h-140v53h140v140h53v-140h141v-53z" />
    <glyph glyph-name="comma" unicode="," horiz-adv-x="184" 
d="M127 -48l-69 -51v176h69v-125z" />
    <glyph glyph-name="hyphen" unicode="-" horiz-adv-x="301" 
d="M246 251h-191v53h191v-53z" />
    <glyph glyph-name="period" unicode="." horiz-adv-x="199" 
d="M137 0h-75v75h75v-75z" />
    <glyph glyph-name="slash" unicode="/" horiz-adv-x="246" 
d="M244 786l-185 -860h-57l185 860h57z" />
    <glyph glyph-name="zero" unicode="0" horiz-adv-x="361" 
d="M307 128c0 -49 -14 -79 -36 -101c-21 -21 -56 -35 -91 -35s-69 14 -90 35c-22 22 -36 52 -36 101v456c0 49 14 79 36 101c21 21 55 35 90 35s70 -14 91 -35c22 -22 36 -52 36 -101v-456zM251 125v462c0 56 -32 83 -71 83s-70 -27 -70 -83v-462c0 -56 31 -83 70 -83
s71 27 71 83z" />
    <glyph glyph-name="one" unicode="1" horiz-adv-x="361" 
d="M221 0h-56v646l-102 -88v67l102 87h56v-712z" />
    <glyph glyph-name="two" unicode="2" horiz-adv-x="361" 
d="M311 0h-260v47l170 390c17 39 34 89 34 150c0 56 -31 83 -70 83s-71 -27 -71 -83v-51h-56v50c0 47 14 77 36 99c21 21 56 35 91 35s68 -13 89 -34c22 -22 37 -53 37 -102c0 -54 -20 -116 -41 -165l-159 -369h200v-50z" />
    <glyph glyph-name="three" unicode="3" horiz-adv-x="361" 
d="M307 196c0 -99 -8 -135 -40 -169c-21 -21 -56 -35 -91 -35s-69 13 -90 34c-22 22 -37 51 -37 101v49h56v-50c0 -56 32 -84 71 -84c20 0 37 6 49 21c18 21 26 47 26 133c0 100 -6 119 -25 140c-13 14 -29 21 -50 21h-41v49h41c19 0 35 5 45 17c18 19 24 46 24 115
s-7 95 -22 113c-11 13 -27 19 -47 19c-38 0 -66 -28 -66 -83v-51h-56v49c0 49 13 80 35 101c22 22 52 34 87 34c37 0 67 -12 88 -33c26 -26 37 -62 37 -147c0 -69 -5 -96 -20 -121c-9 -16 -23 -29 -40 -38c17 -9 31 -21 40 -34c20 -29 26 -52 26 -151z" />
    <glyph glyph-name="four" unicode="4" horiz-adv-x="361" 
d="M328 124h-50v-124h-56v124h-188v50l180 538h55l-179 -538h132v199h56v-199h50v-50z" />
    <glyph glyph-name="five" unicode="5" horiz-adv-x="361" 
d="M311 224c0 -111 -7 -155 -40 -192c-21 -25 -56 -40 -91 -40s-69 12 -90 33c-22 22 -38 52 -38 102v47h56v-45c0 -60 32 -87 73 -87c19 0 37 8 49 25c18 24 25 53 25 157c0 102 -8 133 -25 158c-12 18 -30 26 -50 26c-40 0 -72 -33 -72 -83v-33h-52v420h245v-50h-194v-252
c8 13 18 23 33 33c17 10 34 14 54 14c35 0 62 -15 81 -39c28 -33 36 -73 36 -194z" />
    <glyph glyph-name="six" unicode="6" horiz-adv-x="361" 
d="M310 210c0 -106 -6 -143 -36 -179c-20 -24 -57 -39 -94 -39c-38 0 -73 14 -93 39c-30 36 -37 73 -37 179c0 80 9 137 29 191l115 311h56l-114 -306c16 13 35 21 58 21c34 0 61 -13 81 -36c26 -29 35 -57 35 -181zM254 211c0 85 -4 125 -24 147c-13 15 -31 21 -50 21
s-37 -6 -50 -21c-20 -22 -24 -62 -24 -147c0 -86 5 -126 24 -148c13 -15 31 -21 50 -21s37 6 50 21c19 22 24 62 24 148z" />
    <glyph glyph-name="seven" unicode="7" horiz-adv-x="361" 
d="M314 667l-190 -667h-59l191 662h-154v-116h-55v166h267v-45z" />
    <glyph glyph-name="eight" unicode="8" horiz-adv-x="361" 
d="M310 196c0 -98 -7 -135 -39 -169c-21 -21 -56 -35 -91 -35s-69 14 -90 35c-32 34 -40 71 -40 169s7 121 26 149c9 14 23 26 40 35c-17 9 -31 23 -40 38c-14 25 -21 51 -21 121c0 84 10 120 38 148c22 21 52 33 87 33s66 -12 87 -33c28 -28 38 -64 38 -148
c0 -70 -6 -96 -20 -121c-9 -15 -24 -29 -40 -38c17 -9 31 -21 40 -35c19 -28 25 -51 25 -149zM254 197c0 95 -6 116 -25 138c-12 14 -29 21 -49 21c-19 0 -37 -7 -49 -21c-19 -22 -25 -43 -25 -138c0 -84 6 -112 25 -134c12 -14 30 -21 49 -21s37 7 49 21
c19 22 25 50 25 134zM249 537c0 72 -6 97 -23 115c-12 12 -28 18 -46 18s-33 -6 -45 -18c-17 -18 -24 -43 -24 -115s8 -97 25 -115c11 -12 26 -17 44 -17s34 5 45 17c17 18 24 43 24 115z" />
    <glyph glyph-name="nine" unicode="9" horiz-adv-x="361" 
d="M310 502c0 -80 -9 -137 -29 -191l-114 -311h-57l115 306c-16 -13 -35 -21 -58 -21c-34 0 -61 13 -81 36c-26 29 -36 58 -36 181c0 108 8 145 37 179c21 25 56 39 94 39s72 -14 93 -39c30 -36 36 -73 36 -179zM254 501c0 86 -4 126 -24 148c-13 14 -30 21 -50 21
s-37 -7 -50 -21c-20 -22 -24 -62 -24 -148s4 -125 24 -147c13 -14 30 -21 50 -21s37 7 50 21c20 22 24 61 24 147z" />
    <glyph glyph-name="colon" unicode=":" horiz-adv-x="227" 
d="M165 339h-75v76h75v-76zM165 0h-75v75h75v-75z" />
    <glyph glyph-name="semicolon" unicode=";" horiz-adv-x="227" 
d="M162 -48l-69 -51v176h69v-125zM165 339h-75v76h75v-76z" />
    <glyph glyph-name="less" unicode="&#x3c;" horiz-adv-x="361" 
d="M327 90l-293 169v49l293 170v-63l-229 -131l229 -131v-63z" />
    <glyph glyph-name="equal" unicode="=" horiz-adv-x="431" 
d="M383 314h-334v53h334v-53zM383 171h-334v53h334v-53z" />
    <glyph glyph-name="greater" unicode="&#x3e;" horiz-adv-x="361" 
d="M327 259l-293 -169v63l229 131l-229 131v63l293 -170v-49z" />
    <glyph glyph-name="question" unicode="?" horiz-adv-x="375" 
d="M332 547c0 -47 -5 -77 -29 -115l-58 -93c-15 -23 -22 -47 -22 -74v-78h-56v85c0 31 10 58 25 82l58 93c22 35 26 61 26 101c0 54 -10 79 -28 98c-13 14 -31 22 -55 22s-41 -8 -54 -21c-22 -22 -26 -55 -26 -86h-56c0 50 9 91 39 120c23 23 57 37 97 37
c41 0 73 -11 98 -37c27 -28 41 -60 41 -134zM233 0h-75v75h75v-75z" />
    <glyph glyph-name="at" unicode="@" horiz-adv-x="515" 
d="M454 0h-55v41c-6 -11 -19 -25 -28 -31c-16 -11 -36 -18 -59 -18c-34 0 -59 12 -80 34c-20 21 -31 50 -31 101v223c0 51 11 79 31 100c21 22 46 34 80 34c26 0 42 -5 60 -16c8 -5 20 -17 26 -29v128c0 64 -36 97 -90 97h-107c-53 0 -90 -33 -90 -97v-466
c0 -34 10 -56 27 -72l-39 -38c-34 29 -44 66 -44 112v466c0 52 16 83 39 106c22 22 56 37 99 37h123c43 0 77 -15 99 -37c23 -23 39 -54 39 -106v-569zM398 125v226c0 56 -31 83 -70 83s-71 -27 -71 -83v-226c0 -56 32 -83 71 -83s70 27 70 83z" />
    <glyph glyph-name="A" unicode="A" horiz-adv-x="379" 
d="M374 0h-63l-39 195h-166l-38 -195h-64l159 712h55zM261 248l-72 358l-71 -358h143z" />
    <glyph glyph-name="B" unicode="B" horiz-adv-x="416" 
d="M363 196c0 -89 -13 -123 -44 -155c-28 -29 -64 -41 -123 -41h-127v712h128c58 0 92 -11 120 -41c30 -32 40 -67 40 -142c0 -51 -7 -94 -43 -131c-14 -14 -30 -24 -45 -28c19 -5 36 -14 50 -28c39 -39 44 -89 44 -146zM304 198c0 104 -38 145 -106 145h-70v-290h70
c68 0 106 31 106 145zM298 527c0 103 -35 132 -100 132h-70v-264h70c64 0 100 37 100 132z" />
    <glyph glyph-name="C" unicode="C" horiz-adv-x="399" 
d="M358 163c-1 -56 -17 -107 -50 -137c-24 -22 -56 -34 -98 -34c-46 0 -82 16 -106 42c-43 46 -50 96 -50 322s7 276 50 322c24 26 60 42 106 42s78 -14 102 -38c31 -31 45 -79 46 -133h-59c0 36 -7 72 -28 94c-14 15 -33 24 -61 24s-49 -10 -63 -26
c-29 -34 -34 -76 -34 -285s5 -251 34 -285c14 -16 35 -26 63 -26s48 10 61 24c21 22 28 59 28 94h59z" />
    <glyph glyph-name="D" unicode="D" horiz-adv-x="424" 
d="M371 356c0 -222 -7 -270 -50 -315c-24 -25 -59 -41 -106 -41h-146v712h146c47 0 82 -16 106 -41c43 -45 50 -93 50 -315zM312 356c0 204 -4 245 -35 278c-14 16 -36 25 -65 25h-84v-606h84c29 0 51 9 65 25c31 33 35 75 35 278z" />
    <glyph glyph-name="E" unicode="E" horiz-adv-x="364" 
d="M317 0h-248v712h248v-53h-189v-276h163v-53h-163v-277h189v-53z" />
    <glyph glyph-name="F" unicode="F" horiz-adv-x="359" 
d="M317 659h-189v-276h163v-53h-163v-330h-59v712h248v-53z" />
    <glyph glyph-name="G" unicode="G" horiz-adv-x="412" 
d="M358 152c0 -107 -69 -160 -148 -160c-46 0 -82 16 -106 42c-43 46 -50 96 -50 322s7 276 50 322c24 26 60 42 106 42s80 -15 104 -39c30 -32 43 -78 44 -132h-59c0 57 -17 118 -89 118c-28 0 -49 -10 -63 -26c-29 -34 -34 -76 -34 -285s5 -251 34 -285
c14 -16 35 -26 63 -26c52 0 89 39 89 107v175h-89v50h148v-225z" />
    <glyph glyph-name="H" unicode="H" horiz-adv-x="432" 
d="M363 0h-59v336h-176v-336h-59v712h59v-323h176v323h59v-712z" />
    <glyph glyph-name="I" unicode="I" horiz-adv-x="197" 
d="M128 0h-59v712h59v-712z" />
    <glyph glyph-name="J" unicode="J" horiz-adv-x="332" 
d="M271 153c0 -51 -14 -92 -42 -120s-66 -41 -108 -41c-48 0 -85 17 -113 50l43 39c16 -22 41 -36 70 -36c51 0 91 37 91 108v559h59v-559z" />
    <glyph glyph-name="K" unicode="K" horiz-adv-x="409" 
d="M399 0h-64l-138 352l-69 -136v-216h-59v712h59v-387l189 387h63l-146 -294z" />
    <glyph glyph-name="L" unicode="L" horiz-adv-x="339" 
d="M317 0h-248v712h59v-659h189v-53z" />
    <glyph glyph-name="M" unicode="M" horiz-adv-x="557" 
d="M488 0h-59v573l-130 -376h-43l-128 364v-561h-59v712h59l150 -419l151 419h59v-712z" />
    <glyph glyph-name="N" unicode="N" horiz-adv-x="454" 
d="M385 0h-58l-199 555v-555h-59v712h59l198 -555v555h59v-712z" />
    <glyph glyph-name="O" unicode="O" horiz-adv-x="421" 
d="M367 356c0 -226 -7 -276 -50 -322c-24 -26 -61 -42 -107 -42s-82 16 -106 42c-43 46 -50 96 -50 322s7 276 50 322c24 26 60 42 106 42s83 -16 107 -42c43 -46 50 -96 50 -322zM308 356c0 209 -5 251 -34 285c-14 16 -36 26 -64 26s-49 -10 -63 -26
c-29 -34 -34 -76 -34 -285s5 -251 34 -285c14 -16 35 -26 63 -26s50 10 64 26c29 34 34 76 34 285z" />
    <glyph glyph-name="P" unicode="P" horiz-adv-x="410" 
d="M363 513c0 -167 -70 -198 -154 -198h-81v-315h-59v712h140c84 0 154 -32 154 -199zM304 513c0 120 -40 146 -98 146h-78v-291h78c58 0 98 25 98 145z" />
    <glyph glyph-name="Q" unicode="Q" horiz-adv-x="421" 
d="M390 10l-30 -35l-56 46c-24 -18 -56 -29 -94 -29c-46 0 -82 16 -106 42c-43 46 -50 96 -50 322s7 276 50 322c24 26 60 42 106 42s83 -16 107 -42c43 -46 50 -96 50 -322c0 -197 -5 -257 -32 -299zM308 356c0 210 -4 251 -34 286c-14 16 -36 25 -64 25s-49 -9 -63 -25
c-30 -35 -34 -76 -34 -286s4 -251 34 -286c14 -16 35 -25 63 -25c21 0 37 4 50 13l-56 48l30 35l54 -45c18 35 20 89 20 260z" />
    <glyph glyph-name="R" unicode="R" horiz-adv-x="432" 
d="M386 0h-63l-103 319h-92v-319h-59v712h140c86 0 154 -31 154 -197c0 -110 -30 -163 -88 -185zM304 515c0 92 -21 144 -93 144h-83v-287h83c72 0 93 51 93 143z" />
    <glyph glyph-name="S" unicode="S" horiz-adv-x="396" 
d="M350 186c0 -75 -12 -122 -44 -154c-24 -24 -60 -38 -111 -38c-48 0 -86 12 -112 38c-32 33 -42 68 -42 146h59c0 -55 6 -85 28 -107c15 -15 37 -24 67 -24c33 0 54 9 68 24c23 25 28 57 28 113c0 89 -14 121 -75 146l-76 31c-73 30 -94 71 -94 178c0 61 16 110 49 141
c26 25 60 38 104 38c46 0 82 -14 107 -39c35 -35 43 -76 43 -138h-59c0 45 -6 74 -27 98c-14 16 -35 26 -65 26c-28 0 -48 -9 -62 -23c-22 -22 -31 -58 -31 -102c0 -82 12 -106 77 -133l76 -31c77 -31 92 -87 92 -190z" />
    <glyph glyph-name="T" unicode="T" horiz-adv-x="341" 
d="M319 659h-119v-659h-59v659h-119v53h297v-53z" />
    <glyph glyph-name="U" unicode="U" horiz-adv-x="417" 
d="M356 148c0 -50 -16 -89 -42 -115c-28 -27 -65 -41 -105 -41s-77 14 -105 41c-26 26 -43 65 -43 115v564h59v-569c0 -61 40 -98 89 -98s88 37 88 98v569h59v-564z" />
    <glyph glyph-name="V" unicode="V" horiz-adv-x="370" 
d="M366 712l-152 -712h-58l-152 712h65l116 -606l116 606h65z" />
    <glyph glyph-name="W" unicode="W" horiz-adv-x="587" 
d="M583 712l-108 -712h-62l-119 607l-118 -607h-62l-110 712h65l76 -606l115 606h67l117 -606l75 606h64z" />
    <glyph glyph-name="X" unicode="X" horiz-adv-x="372" 
d="M353 0h-64l-103 308l-102 -308h-65l132 371l-121 341h65l91 -282l92 282h64l-124 -341z" />
    <glyph glyph-name="Y" unicode="Y" horiz-adv-x="315" 
d="M312 712l-125 -414v-298h-59v298l-125 414h65l89 -326l90 326h65z" />
    <glyph glyph-name="Z" unicode="Z" horiz-adv-x="324" 
d="M294 0h-264v46l203 613h-189v53h250v-46l-202 -613h202v-53z" />
    <glyph glyph-name="bracketleft" unicode="[" horiz-adv-x="236" 
d="M206 -74h-144v860h144v-48h-88v-764h88v-48z" />
    <glyph glyph-name="backslash" unicode="\" horiz-adv-x="246" 
d="M244 -74h-57l-185 860h57z" />
    <glyph glyph-name="bracketright" unicode="]" horiz-adv-x="236" 
d="M174 -74h-144v48h88v764h-88v48h144v-860z" />
    <glyph glyph-name="asciicircum" unicode="^" horiz-adv-x="448" 
d="M378 439h-57l-97 221l-97 -221h-58l129 279h52z" />
    <glyph glyph-name="underscore" unicode="_" horiz-adv-x="431" 
d="M431 -134h-431v44h431v-44z" />
    <glyph glyph-name="grave" unicode="`" horiz-adv-x="354" 
d="M204 586h-49l-74 130h58z" />
    <glyph glyph-name="a" unicode="a" horiz-adv-x="352" 
d="M294 0h-54v46c-7 -14 -19 -27 -28 -34c-16 -12 -33 -20 -61 -20c-32 0 -59 11 -81 34c-19 20 -33 60 -33 115c0 48 14 89 43 115c25 23 54 34 100 34h58v91c0 56 -23 87 -70 87c-20 0 -35 -8 -46 -19c-16 -17 -23 -37 -23 -71h-56c0 38 8 76 37 105c21 21 51 34 88 34
c40 0 71 -11 91 -32c23 -24 35 -56 35 -106v-379zM238 134v112h-56c-26 0 -45 -6 -62 -22c-17 -17 -27 -48 -27 -82c0 -61 22 -100 71 -100c45 0 74 39 74 92z" />
    <glyph glyph-name="b" unicode="b" horiz-adv-x="365" 
d="M321 254c0 -129 -6 -190 -38 -226c-21 -24 -48 -36 -80 -36c-23 0 -42 6 -57 17c-10 7 -23 20 -29 31v-40h-55v712h56v-242c7 11 18 23 28 30c15 11 34 17 57 17c32 0 59 -12 80 -36c32 -36 38 -98 38 -227zM265 254c0 114 -3 164 -26 190c-11 13 -28 23 -49 23
c-19 0 -36 -7 -48 -19c-16 -15 -24 -37 -24 -70v-247c0 -33 8 -55 24 -70c12 -12 29 -19 48 -19c21 0 38 9 49 22c23 27 26 76 26 190z" />
    <glyph glyph-name="c" unicode="c" horiz-adv-x="340" 
d="M303 134c-1 -48 -10 -83 -36 -109c-22 -22 -51 -33 -90 -33s-72 14 -94 40c-31 36 -38 102 -38 222s7 186 38 222c22 27 55 41 94 41s67 -9 90 -32c30 -29 35 -69 36 -111h-55c0 26 -1 52 -20 72c-12 14 -29 21 -50 21c-22 0 -41 -9 -52 -23c-22 -28 -25 -81 -25 -190
s3 -161 25 -189c11 -14 30 -23 52 -23c19 0 36 7 49 20c17 18 21 42 21 72h55z" />
    <glyph glyph-name="d" unicode="d" horiz-adv-x="365" 
d="M303 0h-55v41c-5 -11 -19 -25 -28 -31c-17 -12 -35 -18 -58 -18c-31 0 -58 12 -79 36c-31 35 -38 99 -38 226s7 190 38 227c18 22 43 36 79 36c23 0 44 -6 58 -16c9 -7 20 -19 27 -30v241h56v-712zM247 131v247c0 33 -8 55 -23 70c-13 12 -29 19 -49 19s-37 -10 -48 -23
c-23 -26 -26 -75 -26 -190s3 -163 26 -190c11 -13 28 -22 48 -22s36 7 49 19c15 15 23 37 23 70z" />
    <glyph glyph-name="e" unicode="e" horiz-adv-x="349" 
d="M309 246h-208c0 -104 3 -155 26 -181c11 -13 29 -23 51 -23c20 0 39 6 52 20c15 16 22 41 22 72h55c0 -49 -11 -80 -37 -107c-23 -24 -55 -35 -92 -35c-39 0 -69 13 -92 37c-33 36 -41 104 -41 225c0 122 7 189 41 226c22 24 52 37 91 37s69 -13 91 -37
c34 -37 41 -104 41 -234zM253 291c-1 88 -6 130 -26 153c-11 13 -27 23 -50 23s-40 -10 -51 -23c-20 -23 -24 -65 -25 -153h152z" />
    <glyph glyph-name="f" unicode="f" horiz-adv-x="237" 
d="M221 465h-87v-465h-56v465h-62v44h62v69c0 47 13 80 38 103c29 26 66 33 105 33v-51c-57 0 -87 -28 -87 -85v-69h87v-44z" />
    <glyph glyph-name="g" unicode="g" horiz-adv-x="365" 
d="M303 509v-524c0 -85 -9 -121 -38 -153c-21 -22 -54 -37 -91 -37c-36 0 -69 11 -92 34c-26 27 -35 60 -35 107h55c0 -30 4 -55 22 -73c12 -13 30 -19 49 -19c22 0 39 9 50 22c19 20 24 54 24 118v65c-6 -11 -17 -22 -27 -29c-16 -11 -33 -17 -57 -17c-32 0 -58 11 -79 35
c-31 36 -39 93 -39 222s7 186 39 221c21 24 47 36 79 36c24 0 42 -6 58 -17c10 -7 21 -19 27 -30v39h55zM247 141v237c0 33 -8 55 -23 70c-13 12 -29 19 -49 19s-37 -10 -48 -23c-23 -26 -26 -73 -26 -185s3 -159 26 -185c11 -13 28 -22 48 -22s37 5 49 18
c15 17 23 37 23 71z" />
    <glyph glyph-name="h" unicode="h" horiz-adv-x="373" 
d="M315 0h-56v383c0 56 -31 83 -70 83s-71 -27 -71 -83v-383h-56v712h56v-243c5 11 20 24 28 30c16 11 35 18 58 18c34 0 59 -13 80 -35c20 -21 31 -49 31 -100v-382z" />
    <glyph glyph-name="i" unicode="i" horiz-adv-x="181" 
d="M118 0h-56v509h56v-509zM126 626h-72v72h72v-72z" />
    <glyph glyph-name="j" unicode="j" horiz-adv-x="181" 
d="M118 -68c0 -51 -14 -81 -38 -103c-28 -26 -63 -32 -101 -32v50c51 0 83 22 83 86v576h56v-577zM126 626h-72v72h72v-72z" />
    <glyph glyph-name="k" unicode="k" horiz-adv-x="373" 
d="M357 0h-62l-110 265l-67 -106v-159h-56v712h56v-470l161 267h61l-120 -195z" />
    <glyph glyph-name="l" unicode="l" horiz-adv-x="212" 
d="M196 0c-38 0 -73 6 -101 32c-24 22 -38 53 -38 104v576h56v-576c0 -55 27 -86 83 -86v-50z" />
    <glyph glyph-name="m" unicode="m" horiz-adv-x="570" 
d="M512 0h-56v383c0 56 -31 83 -70 83s-71 -27 -71 -83v-383h-56v383c0 56 -31 83 -70 83s-71 -27 -71 -83v-383h-56v509h55v-41c6 11 20 25 29 31c16 11 35 18 58 18c38 0 75 -23 95 -54c9 13 22 28 35 36c17 11 38 18 61 18c42 0 65 -13 86 -35c20 -21 31 -49 31 -100
v-382z" />
    <glyph glyph-name="n" unicode="n" horiz-adv-x="373" 
d="M315 0h-56v383c0 56 -31 83 -70 83s-71 -27 -71 -83v-383h-56v509h55v-41c6 11 20 25 29 31c16 11 35 18 58 18c34 0 59 -13 80 -35c20 -21 31 -49 31 -100v-382z" />
    <glyph glyph-name="o" unicode="o" horiz-adv-x="353" 
d="M309 254c0 -120 -7 -185 -38 -222c-22 -27 -53 -40 -94 -40s-72 13 -94 40c-31 37 -38 102 -38 222s7 185 38 222c22 27 53 41 94 41s72 -14 94 -41c31 -37 38 -102 38 -222zM253 254c0 109 -3 162 -26 190c-11 13 -28 23 -50 23s-40 -10 -51 -23
c-23 -28 -25 -81 -25 -190s2 -161 25 -189c11 -13 29 -23 51 -23s39 10 50 23c23 28 26 80 26 189z" />
    <glyph glyph-name="p" unicode="p" horiz-adv-x="366" 
d="M321 254c0 -127 -7 -190 -38 -226c-21 -24 -44 -36 -79 -36c-24 0 -42 5 -58 16c-9 6 -21 19 -28 30v-241h-56v712h55v-41c5 11 20 25 29 31c16 11 34 18 58 18c31 0 58 -12 79 -36c31 -36 38 -100 38 -227zM265 254c0 115 -3 164 -26 190c-11 13 -28 23 -49 23
c-19 0 -36 -7 -48 -19c-16 -15 -24 -37 -24 -70v-247c0 -33 8 -55 24 -70c12 -12 29 -19 48 -19c21 0 38 9 49 22c23 27 26 75 26 190z" />
    <glyph glyph-name="q" unicode="q" horiz-adv-x="365" 
d="M303 -203h-56v241c-7 -11 -18 -24 -27 -30c-17 -11 -35 -16 -58 -16c-36 0 -60 15 -79 36c-32 36 -38 100 -38 226s6 191 38 227c21 24 48 36 79 36c22 0 41 -6 58 -18c9 -6 23 -20 28 -31v41h55v-712zM247 131v247c0 33 -8 55 -23 70c-13 12 -29 19 -49 19
s-37 -10 -48 -23c-23 -26 -26 -75 -26 -190s3 -164 26 -190c11 -13 28 -22 48 -22s36 7 49 19c15 15 23 37 23 70z" />
    <glyph glyph-name="r" unicode="r" horiz-adv-x="245" 
d="M229 464h-12c-60 0 -99 -38 -99 -99v-365h-56v509h55v-54c5 11 17 25 25 32c23 21 53 30 87 30v-53z" />
    <glyph glyph-name="s" unicode="s" horiz-adv-x="336" 
d="M303 130c0 -40 -16 -75 -40 -99c-25 -25 -58 -39 -97 -39s-70 13 -93 36c-29 30 -40 67 -40 110h56c0 -32 7 -56 26 -75c14 -14 32 -21 51 -21c24 0 43 8 58 23s23 37 23 63c0 21 -4 39 -14 55c-11 17 -27 31 -51 44l-64 35c-32 18 -55 41 -66 60c-10 19 -14 39 -14 64
c0 39 16 72 40 96c23 23 55 35 91 35c38 0 68 -11 91 -34c25 -25 37 -61 37 -110h-56c0 38 -6 57 -22 74c-14 15 -32 20 -50 20c-22 0 -40 -6 -53 -19c-16 -15 -22 -39 -22 -60c0 -17 3 -32 10 -44c7 -13 24 -25 47 -38l63 -36c33 -18 55 -37 69 -60s20 -51 20 -80z" />
    <glyph glyph-name="t" unicode="t" horiz-adv-x="245" 
d="M225 0c-41 0 -79 4 -109 32c-25 23 -38 57 -38 104v329h-62v44h62v149h56v-149h87v-44h-87v-329c0 -61 32 -86 91 -86v-50z" />
    <glyph glyph-name="u" unicode="u" horiz-adv-x="373" 
d="M311 0h-55v41c-6 -11 -20 -25 -29 -31c-16 -11 -35 -18 -58 -18c-34 0 -59 12 -80 34c-20 21 -31 50 -31 101v382h56v-383c0 -56 31 -83 70 -83s71 27 71 83v383h56v-509z" />
    <glyph glyph-name="v" unicode="v" horiz-adv-x="305" 
d="M301 509l-119 -509h-59l-119 509h62l87 -421l87 421h61z" />
    <glyph glyph-name="w" unicode="w" horiz-adv-x="474" 
d="M470 509l-99 -509h-60l-77 416l-73 -416h-60l-97 509h65l63 -421l74 421h56l78 -421l65 421h65z" />
    <glyph glyph-name="x" unicode="x" horiz-adv-x="321" 
d="M304 0h-62l-81 210l-82 -210h-62l112 259l-106 250h62l76 -202l75 202h62l-108 -250z" />
    <glyph glyph-name="y" unicode="y" horiz-adv-x="308" 
d="M301 509l-144 -608c-19 -79 -71 -104 -148 -104v50c55 0 82 22 93 65l23 90l-121 507h62l87 -420l87 420h61z" />
    <glyph glyph-name="z" unicode="z" horiz-adv-x="276" 
d="M255 0h-233v44l172 415h-162v50h223v-44l-172 -415h172v-50z" />
    <glyph glyph-name="braceleft" unicode="{" horiz-adv-x="287" 
d="M258 -74h-24c-33 0 -65 13 -85 33c-21 21 -34 50 -34 97v194c0 53 -29 81 -68 81h-17v50h17c39 0 68 28 68 81v194c0 47 13 76 34 97c20 20 52 33 85 33h24v-50h-18c-39 0 -69 -28 -69 -81v-191c0 -45 -11 -72 -30 -91c-8 -8 -17 -13 -27 -17c11 -3 20 -10 27 -17
c18 -19 30 -46 30 -91v-191c0 -53 30 -81 69 -81h18v-50z" />
    <glyph glyph-name="bar" unicode="|" horiz-adv-x="251" 
d="M153 -74h-56v860h56v-860z" />
    <glyph glyph-name="braceright" unicode="}" horiz-adv-x="287" 
d="M258 331h-18c-39 0 -68 -28 -68 -81v-194c0 -47 -13 -76 -34 -97c-20 -20 -52 -33 -85 -33h-23v50h17c39 0 69 28 69 81v191c0 45 12 72 31 91c7 7 16 13 26 17c-10 3 -20 10 -26 17c-19 19 -31 46 -31 91v191c0 53 -30 81 -69 81h-17v50h23c33 0 65 -13 85 -33
c21 -21 34 -50 34 -97v-194c0 -53 29 -81 68 -81h18v-50z" />
    <glyph glyph-name="asciitilde" unicode="~" horiz-adv-x="431" 
d="M385 283c-43 -43 -65 -53 -99 -53c-24 0 -42 7 -81 24c-32 15 -44 19 -60 19c-23 0 -35 -6 -64 -35l-34 34c43 43 64 54 98 54c28 0 53 -13 81 -25c21 -10 39 -18 60 -18c23 0 36 5 65 34z" />
    <glyph glyph-name="uni00A0" unicode="&#xa0;" horiz-adv-x="194" 
 />
    <glyph glyph-name="exclamdown" unicode="&#xa1;" horiz-adv-x="227" 
d="M127 -203h-56v525h56v-525zM137 434h-75v75h75v-75z" />
    <glyph glyph-name="cent" unicode="&#xa2;" horiz-adv-x="342" 
d="M304 242c-1 -46 -10 -79 -35 -104c-18 -17 -41 -27 -68 -31v-107h-45v108c-29 4 -54 17 -72 37c-31 35 -38 97 -38 212s7 177 38 212c18 20 43 33 72 37v106h45v-105c27 -3 49 -12 67 -29c30 -29 35 -67 36 -106h-55c0 24 -1 49 -19 68c-8 9 -18 14 -29 17v-400
c10 3 19 8 27 16c18 18 21 40 21 69h55zM156 158v398c-12 -4 -21 -10 -28 -18c-23 -27 -26 -77 -26 -181s3 -154 26 -181c7 -8 16 -14 28 -18z" />
    <glyph glyph-name="sterling" unicode="&#xa3;" horiz-adv-x="393" 
d="M362 0h-263v351h-64v44h64v167c0 103 71 158 150 158c44 0 85 -17 113 -50l-42 -38c-16 22 -40 35 -71 35c-50 0 -91 -39 -91 -102v-170h91v-44h-91v-298h204v-53z" />
    <glyph glyph-name="currency" unicode="&#xa4;" horiz-adv-x="478" 
d="M432 113l-35 -35l-57 57c-28 -21 -63 -34 -101 -34s-73 13 -101 34l-56 -57l-36 35l57 57c-21 28 -34 63 -34 101s13 74 34 101l-57 56l36 35l56 -56c28 21 63 33 101 33s73 -12 101 -33l57 56l35 -35l-57 -56c21 -27 34 -63 34 -101s-13 -73 -34 -101zM358 271
c0 66 -53 118 -119 118s-118 -52 -118 -118s52 -119 118 -119s119 53 119 119z" />
    <glyph glyph-name="yen" unicode="&#xa5;" horiz-adv-x="315" 
d="M310 712l-92 -309h51v-44h-64l-19 -61v-40h83v-44h-83v-214h-58v214h-83v44h83v40l-17 61h-66v44h52l-92 309h63l89 -326l90 326h63z" />
    <glyph glyph-name="brokenbar" unicode="&#xa6;" horiz-adv-x="251" 
d="M153 437h-56v348h56v-348zM153 -73h-56v348h56v-348z" />
    <glyph glyph-name="section" unicode="&#xa7;" horiz-adv-x="389" 
d="M330 271c0 -90 -9 -126 -40 -155c-13 -12 -33 -23 -55 -27c28 -17 50 -30 67 -58c12 -20 19 -51 19 -77c0 -39 -12 -72 -36 -97c-25 -26 -56 -37 -94 -37c-36 0 -68 14 -90 36c-26 25 -37 63 -37 97h56c0 -23 7 -45 23 -63c12 -14 31 -20 48 -20c23 0 40 7 53 21
c14 14 20 36 20 61c0 20 -4 42 -13 55c-12 19 -29 30 -49 41l-66 37c-13 7 -27 16 -37 26c-35 35 -40 75 -40 160c0 90 10 126 41 155c13 13 32 23 54 27c-29 16 -55 36 -69 61c-10 18 -16 41 -16 71c0 38 14 70 38 93c22 22 54 34 90 34s63 -10 86 -31
c25 -24 38 -62 39 -100h-56c0 22 -6 44 -22 62c-13 13 -31 19 -47 19c-22 0 -37 -6 -49 -18c-16 -15 -22 -36 -22 -56c0 -24 4 -40 11 -51c8 -14 25 -29 44 -40l66 -36c15 -8 34 -20 44 -30c35 -35 39 -68 39 -160zM274 271c0 79 -5 104 -26 126c-14 15 -33 22 -54 22
c-20 0 -38 -7 -52 -21c-19 -19 -27 -43 -27 -127c0 -77 7 -106 27 -126c14 -14 32 -21 52 -21c21 0 40 7 54 21c20 22 26 49 26 126z" />
    <glyph glyph-name="dieresis" unicode="&#xa8;" horiz-adv-x="354" 
d="M278 606h-64v63h64v-63zM140 606h-63v63h63v-63z" />
    <glyph glyph-name="copyright" unicode="&#xa9;" horiz-adv-x="862" 
d="M793 356c0 -200 -162 -362 -362 -362s-362 162 -362 362s162 362 362 362s362 -162 362 -362zM747 356c0 177 -141 321 -316 321s-317 -144 -317 -321s142 -321 317 -321s316 144 316 321zM525 262c0 -39 -8 -66 -27 -85c-17 -18 -39 -26 -67 -26s-52 11 -69 30
c-24 28 -29 75 -29 175s5 147 29 175c17 19 41 30 69 30s50 -8 67 -26c19 -20 27 -46 27 -86h-42c0 25 -2 44 -16 58c-10 10 -20 15 -36 15s-29 -8 -37 -17c-17 -21 -19 -65 -19 -149c0 -85 1 -129 19 -149c8 -9 21 -17 37 -17c15 0 26 5 36 15c14 14 16 32 16 57h42z" />
    <glyph glyph-name="ordfeminine" unicode="&#xaa;" horiz-adv-x="297" 
d="M246 320h-45v33c-7 -12 -18 -21 -23 -25c-12 -8 -29 -14 -50 -14c-26 0 -48 9 -67 28c-15 16 -28 43 -28 87c0 39 15 68 39 89c19 17 44 25 80 25h46v66c0 37 -18 66 -56 66c-17 0 -30 -7 -39 -16c-15 -16 -17 -35 -17 -56h-47c0 32 6 62 30 86c18 18 42 27 73 27
c29 0 55 -9 74 -28c18 -18 30 -44 30 -82v-286zM198 431v75h-45c-21 0 -37 -5 -48 -15c-14 -14 -24 -35 -24 -61c0 -38 14 -75 58 -75c35 0 59 33 59 76z" />
    <glyph glyph-name="guillemotleft" unicode="&#xab;" horiz-adv-x="371" 
d="M316 58l-136 210l136 210v-96l-76 -114l76 -115v-95zM164 58l-135 210l135 210v-96l-75 -114l75 -115v-95z" />
    <glyph glyph-name="logicalnot" unicode="&#xac;" horiz-adv-x="431" 
d="M381 151h-53v104h-278v53h331v-157z" />
    <glyph glyph-name="uni00AD" unicode="&#xad;" horiz-adv-x="301" 
d="M246 251h-191v53h191v-53z" />
    <glyph glyph-name="registered" unicode="&#xae;" horiz-adv-x="862" 
d="M793 356c0 -200 -162 -362 -362 -362s-362 162 -362 362s162 362 362 362s362 -162 362 -362zM747 356c0 177 -141 321 -316 321s-317 -144 -317 -321s142 -321 317 -321s316 144 316 321zM543 157h-45l-54 174h-58v-174h-43v399h98c27 0 48 -8 64 -23
c21 -21 26 -47 26 -90c0 -48 -5 -69 -26 -89c-6 -6 -13 -10 -21 -14zM489 443c0 31 -2 46 -15 60c-8 8 -19 13 -32 13h-56v-146h56c13 0 24 5 32 13c13 14 15 29 15 60z" />
    <glyph glyph-name="macron" unicode="&#xaf;" horiz-adv-x="354" 
d="M283 611h-212v45h212v-45z" />
    <glyph glyph-name="degree" unicode="&#xb0;" horiz-adv-x="382" 
d="M327 585c0 -75 -61 -136 -136 -136s-135 61 -135 136s60 135 135 135s136 -60 136 -135zM277 585c0 50 -37 87 -86 87s-86 -37 -86 -87s37 -88 86 -88s86 38 86 88z" />
    <glyph glyph-name="plusminus" unicode="&#xb1;" horiz-adv-x="431" 
d="M383 286h-141v-141h-53v141h-140v53h140v141h53v-141h141v-53zM383 36h-334v53h334v-53z" />
    <glyph glyph-name="twosuperior" unicode="&#xb2;" 
d="M242 285h-204v37l137 218c16 26 24 46 24 79c0 36 -24 60 -60 60c-41 0 -59 -26 -59 -69v-18h-43v17c0 39 7 62 27 81c18 17 43 27 75 27c33 0 53 -8 73 -24s30 -42 30 -74c0 -35 -9 -64 -30 -98l-124 -198h154v-38z" />
    <glyph glyph-name="threesuperior" unicode="&#xb3;" 
d="M245 399c0 -49 -7 -71 -30 -93c-16 -16 -45 -26 -75 -26c-31 0 -58 9 -77 27c-16 17 -25 36 -25 85v13h43v-13c0 -34 5 -48 18 -59c10 -10 24 -15 41 -15s32 5 42 15c12 12 20 29 20 67c0 41 -7 56 -17 68c-12 14 -26 19 -45 19h-29v38h29c17 0 29 5 40 14
c18 17 19 42 19 68c0 25 -5 46 -19 58c-9 10 -22 14 -40 14c-17 0 -31 -4 -42 -15s-16 -30 -16 -54v-13h-43v12c0 42 8 65 25 81c19 17 42 27 76 27c35 0 58 -11 74 -26c20 -19 28 -48 28 -84c0 -34 -5 -55 -18 -72c-10 -13 -23 -23 -39 -29c17 -5 32 -16 42 -31
c12 -17 18 -37 18 -76z" />
    <glyph glyph-name="acute" unicode="&#xb4;" horiz-adv-x="354" 
d="M273 716l-75 -130h-49l66 130h58z" />
    <glyph glyph-name="mu" unicode="&#xb5;" horiz-adv-x="378" 
d="M315 0h-55v41c-6 -11 -20 -25 -29 -31c-16 -11 -34 -18 -58 -18c-25 0 -49 11 -56 21v-217h-55v713h56v-384c0 -56 31 -83 70 -83s71 27 71 83v384h56v-509z" />
    <glyph glyph-name="paragraph" unicode="&#xb6;" horiz-adv-x="538" 
d="M475 -204h-56v864h-120v-864h-56v511h-56c-88 0 -141 56 -141 202s53 203 141 203h288v-916z" />
    <glyph glyph-name="periodcentered" unicode="&#xb7;" horiz-adv-x="259" 
d="M191 245h-123v123h123v-123z" />
    <glyph glyph-name="cedilla" unicode="&#xb8;" horiz-adv-x="354" 
d="M209 -37l-46 -134h-53l53 134h46z" />
    <glyph glyph-name="onesuperior" unicode="&#xb9;" 
d="M174 285h-43v379l-69 -47v47l69 48h43v-427z" />
    <glyph glyph-name="ordmasculine" unicode="&#xba;" horiz-adv-x="296" 
d="M254 515c0 -91 -6 -143 -31 -170c-18 -20 -42 -31 -75 -31s-58 11 -76 31c-25 27 -30 79 -30 170s5 143 30 170c18 20 43 30 76 30s57 -10 75 -30c25 -27 31 -79 31 -170zM207 515c0 82 -4 121 -21 142c-8 10 -21 16 -38 16s-31 -6 -39 -16c-17 -21 -20 -60 -20 -142
s3 -123 20 -143c9 -11 22 -16 39 -16s30 6 38 16c17 21 21 61 21 143z" />
    <glyph glyph-name="guillemotright" unicode="&#xbb;" horiz-adv-x="371" 
d="M342 268l-136 -210v95l76 115l-76 114v96zM191 268l-136 -210v95l76 115l-76 114v96z" />
    <glyph glyph-name="onequarter" unicode="&#xbc;" horiz-adv-x="708" 
d="M174 285h-43v379l-69 -47v47l69 48h43v-427zM501 712l-247 -712h-47l247 712h47zM682 64h-32v-64h-43v64h-148v38l125 325h43l-124 -325h104v103h43v-103h32v-38z" />
    <glyph glyph-name="onehalf" unicode="&#xbd;" horiz-adv-x="708" 
d="M174 285h-43v379l-69 -47v47l69 48h43v-427zM501 712l-247 -712h-47l247 712h47zM673 0h-204v37l137 218c16 26 24 46 24 79c0 36 -24 60 -60 60c-41 0 -59 -26 -59 -69v-18h-43v17c0 39 7 62 27 81c18 17 43 27 75 27c33 0 53 -8 73 -24s30 -42 30 -74
c0 -35 -9 -64 -30 -98l-124 -198h154v-38z" />
    <glyph glyph-name="threequarters" unicode="&#xbe;" horiz-adv-x="708" 
d="M245 399c0 -49 -7 -71 -30 -93c-16 -16 -45 -26 -75 -26c-31 0 -58 9 -77 27c-16 17 -25 36 -25 85v13h43v-13c0 -34 5 -48 18 -59c10 -10 24 -15 41 -15s32 5 42 15c12 12 20 29 20 67c0 41 -7 56 -17 68c-12 14 -26 19 -45 19h-29v38h29c17 0 29 5 40 14
c18 17 19 42 19 68c0 25 -5 46 -19 58c-9 10 -22 14 -40 14c-17 0 -31 -4 -42 -15s-16 -30 -16 -54v-13h-43v12c0 42 8 65 25 81c19 17 42 27 76 27c35 0 58 -11 74 -26c20 -19 28 -48 28 -84c0 -34 -5 -55 -18 -72c-10 -13 -23 -23 -39 -29c17 -5 32 -16 42 -31
c12 -17 18 -37 18 -76zM501 712l-247 -712h-47l247 712h47zM682 64h-32v-64h-43v64h-148v38l125 325h43l-124 -325h104v103h43v-103h32v-38z" />
    <glyph glyph-name="questiondown" unicode="&#xbf;" horiz-adv-x="375" 
d="M317 -53c0 -50 -9 -90 -39 -119c-23 -23 -56 -37 -96 -37c-41 0 -74 11 -99 37c-27 28 -40 60 -40 134c0 47 5 77 29 115l58 93c15 23 21 47 21 74v78h56v-85c0 -31 -9 -59 -24 -83l-58 -92c-22 -35 -26 -61 -26 -101c0 -54 10 -79 28 -98c13 -14 31 -22 55 -22
s40 8 53 21c22 22 26 54 26 85h56zM217 434h-75v75h75v-75z" />
    <glyph glyph-name="Agrave" unicode="&#xc0;" horiz-adv-x="379" 
d="M374 0h-63l-39 195h-166l-38 -195h-64l159 712h55zM261 248l-72 358l-71 -358h143zM219 764h-49l-75 130h59z" />
    <glyph glyph-name="Aacute" unicode="&#xc1;" horiz-adv-x="379" 
d="M374 0h-63l-39 195h-166l-38 -195h-64l159 712h55zM261 248l-72 358l-71 -358h143zM288 894l-75 -130h-49l65 130h59z" />
    <glyph glyph-name="Acircumflex" unicode="&#xc2;" horiz-adv-x="379" 
d="M374 0h-63l-39 195h-166l-38 -195h-64l159 712h55zM261 248l-72 358l-71 -358h143zM303 764h-52l-59 92l-60 -92h-52l87 130h50z" />
    <glyph glyph-name="Atilde" unicode="&#xc3;" horiz-adv-x="379" 
d="M374 0h-63l-39 195h-166l-38 -195h-64l159 712h55zM261 248l-72 358l-71 -358h143zM311 813c-34 -33 -53 -38 -71 -38c-21 0 -36 7 -54 17c-14 9 -27 16 -42 16c-12 0 -20 -1 -43 -24l-28 29c33 33 51 38 70 38c22 0 36 -6 54 -17c15 -9 27 -16 42 -16c11 0 21 2 43 24z
" />
    <glyph glyph-name="Adieresis" unicode="&#xc4;" horiz-adv-x="379" 
d="M374 0h-63l-39 195h-166l-38 -195h-64l159 712h55zM261 248l-72 358l-71 -358h143zM292 784h-63v63h63v-63zM154 784h-63v63h63v-63z" />
    <glyph glyph-name="Aring" unicode="&#xc5;" horiz-adv-x="379" 
d="M374 0h-63l-39 195h-166l-38 -195h-64l159 712h55zM261 248l-72 358l-71 -358h143zM283 842c0 -50 -42 -91 -91 -91c-50 0 -91 41 -91 91s41 91 91 91c49 0 91 -41 91 -91zM244 842c0 29 -24 52 -52 52c-29 0 -53 -23 -53 -52s24 -53 53 -53c28 0 52 24 52 53z" />
    <glyph glyph-name="AE" unicode="&#xc6;" horiz-adv-x="604" 
d="M558 0h-249v197h-168l-72 -197h-64l265 712h288v-53h-190v-276h164v-53h-164v-277h190v-53zM309 250v410l-149 -410h149z" />
    <glyph glyph-name="Ccedilla" unicode="&#xc7;" horiz-adv-x="399" 
d="M358 163c-1 -56 -17 -107 -50 -137c-24 -22 -56 -34 -98 -34c-46 0 -82 16 -106 42c-43 46 -50 96 -50 322s7 276 50 322c24 26 60 42 106 42s78 -14 102 -38c31 -31 45 -79 46 -133h-59c0 36 -7 72 -28 94c-14 15 -33 24 -61 24s-49 -10 -63 -26
c-29 -34 -34 -76 -34 -285s5 -251 34 -285c14 -16 35 -26 63 -26s48 10 61 24c21 22 28 59 28 94h59zM236 -37l-46 -134h-53l53 134h46z" />
    <glyph glyph-name="Egrave" unicode="&#xc8;" horiz-adv-x="364" 
d="M317 0h-248v712h248v-53h-189v-276h163v-53h-163v-277h189v-53zM225 764h-49l-75 130h59z" />
    <glyph glyph-name="Eacute" unicode="&#xc9;" horiz-adv-x="364" 
d="M317 0h-248v712h248v-53h-189v-276h163v-53h-163v-277h189v-53zM294 894l-75 -130h-49l65 130h59z" />
    <glyph glyph-name="Ecircumflex" unicode="&#xca;" horiz-adv-x="364" 
d="M317 0h-248v712h248v-53h-189v-276h163v-53h-163v-277h189v-53zM309 764h-52l-59 92l-60 -92h-52l87 130h50z" />
    <glyph glyph-name="Edieresis" unicode="&#xcb;" horiz-adv-x="364" 
d="M317 0h-248v712h248v-53h-189v-276h163v-53h-163v-277h189v-53zM298 784h-63v63h63v-63zM160 784h-63v63h63v-63z" />
    <glyph glyph-name="Igrave" unicode="&#xcc;" horiz-adv-x="197" 
d="M128 0h-59v712h59v-712zM126 764h-49l-75 130h59z" />
    <glyph glyph-name="Iacute" unicode="&#xcd;" horiz-adv-x="197" 
d="M128 0h-59v712h59v-712zM195 894l-75 -130h-49l65 130h59z" />
    <glyph glyph-name="Icircumflex" unicode="&#xce;" horiz-adv-x="197" 
d="M128 0h-59v712h59v-712zM210 764h-52l-59 92l-60 -92h-52l87 130h50z" />
    <glyph glyph-name="Idieresis" unicode="&#xcf;" horiz-adv-x="197" 
d="M128 0h-59v712h59v-712zM199 784h-63v63h63v-63zM61 784h-63v63h63v-63z" />
    <glyph glyph-name="Eth" unicode="&#xd0;" horiz-adv-x="429" 
d="M375 356c0 -215 -5 -268 -50 -315c-24 -25 -58 -41 -105 -41h-147v332h-53v49h53v331h147c47 0 81 -16 105 -41c45 -47 50 -100 50 -315zM316 356c0 204 -4 244 -35 278c-14 15 -36 25 -64 25h-85v-278h91v-49h-91v-279h85c28 0 50 10 64 25c31 34 35 74 35 278z" />
    <glyph glyph-name="Ntilde" unicode="&#xd1;" horiz-adv-x="454" 
d="M385 0h-58l-199 555v-555h-59v712h59l198 -555v555h59v-712zM346 813c-34 -33 -53 -38 -71 -38c-21 0 -36 7 -54 17c-14 9 -27 16 -42 16c-12 0 -20 -1 -43 -24l-28 29c33 33 51 38 70 38c22 0 36 -6 54 -17c15 -9 27 -16 42 -16c11 0 21 2 43 24z" />
    <glyph glyph-name="Ograve" unicode="&#xd2;" horiz-adv-x="421" 
d="M367 356c0 -226 -7 -276 -50 -322c-24 -26 -61 -42 -107 -42s-82 16 -106 42c-43 46 -50 96 -50 322s7 276 50 322c24 26 60 42 106 42s83 -16 107 -42c43 -46 50 -96 50 -322zM308 356c0 209 -5 251 -34 285c-14 16 -36 26 -64 26s-49 -10 -63 -26
c-29 -34 -34 -76 -34 -285s5 -251 34 -285c14 -16 35 -26 63 -26s50 10 64 26c29 34 34 76 34 285zM238 764h-49l-75 130h59z" />
    <glyph glyph-name="Oacute" unicode="&#xd3;" horiz-adv-x="421" 
d="M367 356c0 -226 -7 -276 -50 -322c-24 -26 -61 -42 -107 -42s-82 16 -106 42c-43 46 -50 96 -50 322s7 276 50 322c24 26 60 42 106 42s83 -16 107 -42c43 -46 50 -96 50 -322zM308 356c0 209 -5 251 -34 285c-14 16 -36 26 -64 26s-49 -10 -63 -26
c-29 -34 -34 -76 -34 -285s5 -251 34 -285c14 -16 35 -26 63 -26s50 10 64 26c29 34 34 76 34 285zM307 894l-75 -130h-49l65 130h59z" />
    <glyph glyph-name="Ocircumflex" unicode="&#xd4;" horiz-adv-x="421" 
d="M367 356c0 -226 -7 -276 -50 -322c-24 -26 -61 -42 -107 -42s-82 16 -106 42c-43 46 -50 96 -50 322s7 276 50 322c24 26 60 42 106 42s83 -16 107 -42c43 -46 50 -96 50 -322zM308 356c0 209 -5 251 -34 285c-14 16 -36 26 -64 26s-49 -10 -63 -26
c-29 -34 -34 -76 -34 -285s5 -251 34 -285c14 -16 35 -26 63 -26s50 10 64 26c29 34 34 76 34 285zM322 764h-52l-59 92l-60 -92h-52l87 130h50z" />
    <glyph glyph-name="Otilde" unicode="&#xd5;" horiz-adv-x="421" 
d="M367 356c0 -226 -7 -276 -50 -322c-24 -26 -61 -42 -107 -42s-82 16 -106 42c-43 46 -50 96 -50 322s7 276 50 322c24 26 60 42 106 42s83 -16 107 -42c43 -46 50 -96 50 -322zM308 356c0 209 -5 251 -34 285c-14 16 -36 26 -64 26s-49 -10 -63 -26
c-29 -34 -34 -76 -34 -285s5 -251 34 -285c14 -16 35 -26 63 -26s50 10 64 26c29 34 34 76 34 285zM330 813c-34 -33 -53 -38 -71 -38c-21 0 -36 7 -54 17c-14 9 -27 16 -42 16c-12 0 -20 -1 -43 -24l-28 29c33 33 51 38 70 38c22 0 36 -6 54 -17c15 -9 27 -16 42 -16
c11 0 21 2 43 24z" />
    <glyph glyph-name="Odieresis" unicode="&#xd6;" horiz-adv-x="421" 
d="M367 356c0 -226 -7 -276 -50 -322c-24 -26 -61 -42 -107 -42s-82 16 -106 42c-43 46 -50 96 -50 322s7 276 50 322c24 26 60 42 106 42s83 -16 107 -42c43 -46 50 -96 50 -322zM308 356c0 209 -5 251 -34 285c-14 16 -36 26 -64 26s-49 -10 -63 -26
c-29 -34 -34 -76 -34 -285s5 -251 34 -285c14 -16 35 -26 63 -26s50 10 64 26c29 34 34 76 34 285zM311 784h-63v63h63v-63zM173 784h-63v63h63v-63z" />
    <glyph glyph-name="multiply" unicode="&#xd7;" horiz-adv-x="431" 
d="M370 152l-37 -37l-117 118l-118 -118l-36 37l117 117l-117 118l36 36l118 -117l117 117l37 -36l-118 -118z" />
    <glyph glyph-name="Oslash" unicode="&#xd8;" horiz-adv-x="405" 
d="M367 356c0 -226 -7 -276 -50 -322c-24 -26 -60 -42 -107 -42c-31 0 -57 7 -79 20l-17 -56h-50l29 90c-34 44 -39 107 -39 310c0 226 7 276 50 322c24 26 60 42 106 42c31 0 58 -7 80 -21l17 57h50l-28 -91c33 -44 38 -108 38 -309zM272 644c-14 15 -34 23 -62 23
s-49 -10 -63 -26c-29 -34 -34 -76 -34 -285c0 -134 2 -192 11 -226zM308 356c0 130 -2 190 -10 225l-149 -513c13 -15 33 -23 61 -23s50 10 64 26c29 34 34 76 34 285z" />
    <glyph glyph-name="Ugrave" unicode="&#xd9;" horiz-adv-x="417" 
d="M356 148c0 -50 -16 -89 -42 -115c-28 -27 -65 -41 -105 -41s-77 14 -105 41c-26 26 -43 65 -43 115v564h59v-569c0 -61 40 -98 89 -98s88 37 88 98v569h59v-564zM237 764h-49l-75 130h59z" />
    <glyph glyph-name="Uacute" unicode="&#xda;" horiz-adv-x="417" 
d="M356 148c0 -50 -16 -89 -42 -115c-28 -27 -65 -41 -105 -41s-77 14 -105 41c-26 26 -43 65 -43 115v564h59v-569c0 -61 40 -98 89 -98s88 37 88 98v569h59v-564zM306 894l-75 -130h-49l65 130h59z" />
    <glyph glyph-name="Ucircumflex" unicode="&#xdb;" horiz-adv-x="417" 
d="M356 148c0 -50 -16 -89 -42 -115c-28 -27 -65 -41 -105 -41s-77 14 -105 41c-26 26 -43 65 -43 115v564h59v-569c0 -61 40 -98 89 -98s88 37 88 98v569h59v-564zM321 764h-52l-59 92l-60 -92h-52l87 130h50z" />
    <glyph glyph-name="Udieresis" unicode="&#xdc;" horiz-adv-x="417" 
d="M356 148c0 -50 -16 -89 -42 -115c-28 -27 -65 -41 -105 -41s-77 14 -105 41c-26 26 -43 65 -43 115v564h59v-569c0 -61 40 -98 89 -98s88 37 88 98v569h59v-564zM310 784h-63v63h63v-63zM172 784h-63v63h63v-63z" />
    <glyph glyph-name="Yacute" unicode="&#xdd;" horiz-adv-x="315" 
d="M312 712l-125 -414v-298h-59v298l-125 414h65l89 -326l90 326h65zM257 894l-75 -130h-49l65 130h59z" />
    <glyph glyph-name="Thorn" unicode="&#xde;" horiz-adv-x="409" 
d="M363 360c0 -166 -69 -199 -154 -199h-81v-161h-59v712h59v-154h81c85 0 154 -32 154 -198zM304 359c0 120 -40 146 -97 146h-79v-291h79c57 0 97 25 97 145z" />
    <glyph glyph-name="germandbls" unicode="&#xdf;" horiz-adv-x="373" 
d="M328 224c0 -96 -2 -152 -40 -190c-27 -27 -62 -34 -99 -34v50c26 0 45 7 59 21c18 18 24 57 24 156c0 91 -5 132 -24 153c-12 15 -30 22 -50 22h-9v48h7c18 0 32 7 42 19c22 25 24 57 24 93c0 47 -6 68 -22 87c-13 14 -30 21 -51 21c-40 0 -71 -28 -71 -84v-586h-56v584
c0 50 14 79 36 101c22 21 56 35 91 35s69 -12 91 -34c31 -32 38 -64 38 -122c0 -33 -2 -69 -19 -99c-8 -13 -21 -27 -34 -36c12 -6 22 -15 30 -25c26 -29 33 -65 33 -180z" />
    <glyph glyph-name="agrave" unicode="&#xe0;" horiz-adv-x="352" 
d="M294 0h-54v46c-7 -14 -19 -27 -28 -34c-16 -12 -33 -20 -61 -20c-32 0 -59 11 -81 34c-19 20 -33 60 -33 115c0 48 14 89 43 115c25 23 54 34 100 34h58v91c0 56 -23 87 -70 87c-20 0 -35 -8 -46 -19c-16 -17 -23 -37 -23 -71h-56c0 38 8 76 37 105c21 21 51 34 88 34
c40 0 71 -11 91 -32c23 -24 35 -56 35 -106v-379zM238 134v112h-56c-26 0 -45 -6 -62 -22c-17 -17 -27 -48 -27 -82c0 -61 22 -100 71 -100c45 0 74 39 74 92zM202 586h-49l-75 130h58z" />
    <glyph glyph-name="aacute" unicode="&#xe1;" horiz-adv-x="352" 
d="M294 0h-54v46c-7 -14 -19 -27 -28 -34c-16 -12 -33 -20 -61 -20c-32 0 -59 11 -81 34c-19 20 -33 60 -33 115c0 48 14 89 43 115c25 23 54 34 100 34h58v91c0 56 -23 87 -70 87c-20 0 -35 -8 -46 -19c-16 -17 -23 -37 -23 -71h-56c0 38 8 76 37 105c21 21 51 34 88 34
c40 0 71 -11 91 -32c23 -24 35 -56 35 -106v-379zM238 134v112h-56c-26 0 -45 -6 -62 -22c-17 -17 -27 -48 -27 -82c0 -61 22 -100 71 -100c45 0 74 39 74 92zM268 716l-74 -130h-49l65 130h58z" />
    <glyph glyph-name="acircumflex" unicode="&#xe2;" horiz-adv-x="352" 
d="M294 0h-54v46c-7 -14 -19 -27 -28 -34c-16 -12 -33 -20 -61 -20c-32 0 -59 11 -81 34c-19 20 -33 60 -33 115c0 48 14 89 43 115c25 23 54 34 100 34h58v91c0 56 -23 87 -70 87c-20 0 -35 -8 -46 -19c-16 -17 -23 -37 -23 -71h-56c0 38 8 76 37 105c21 21 51 34 88 34
c40 0 71 -11 91 -32c23 -24 35 -56 35 -106v-379zM238 134v112h-56c-26 0 -45 -6 -62 -22c-17 -17 -27 -48 -27 -82c0 -61 22 -100 71 -100c45 0 74 39 74 92zM283 586h-51l-60 92l-60 -92h-52l87 130h50z" />
    <glyph glyph-name="atilde" unicode="&#xe3;" horiz-adv-x="352" 
d="M294 0h-54v46c-7 -14 -19 -27 -28 -34c-16 -12 -33 -20 -61 -20c-32 0 -59 11 -81 34c-19 20 -33 60 -33 115c0 48 14 89 43 115c25 23 54 34 100 34h58v91c0 56 -23 87 -70 87c-20 0 -35 -8 -46 -19c-16 -17 -23 -37 -23 -71h-56c0 38 8 76 37 105c21 21 51 34 88 34
c40 0 71 -11 91 -32c23 -24 35 -56 35 -106v-379zM238 134v112h-56c-26 0 -45 -6 -62 -22c-17 -17 -27 -48 -27 -82c0 -61 22 -100 71 -100c45 0 74 39 74 92zM292 635c-34 -33 -53 -38 -71 -38c-21 0 -36 7 -54 17c-14 9 -27 16 -42 16c-12 0 -20 -1 -43 -24l-28 29
c33 33 51 38 70 38c22 0 36 -6 54 -17c15 -9 27 -16 42 -16c11 0 21 2 43 24z" />
    <glyph glyph-name="adieresis" unicode="&#xe4;" horiz-adv-x="352" 
d="M294 0h-54v46c-7 -14 -19 -27 -28 -34c-16 -12 -33 -20 -61 -20c-32 0 -59 11 -81 34c-19 20 -33 60 -33 115c0 48 14 89 43 115c25 23 54 34 100 34h58v91c0 56 -23 87 -70 87c-20 0 -35 -8 -46 -19c-16 -17 -23 -37 -23 -71h-56c0 38 8 76 37 105c21 21 51 34 88 34
c40 0 71 -11 91 -32c23 -24 35 -56 35 -106v-379zM238 134v112h-56c-26 0 -45 -6 -62 -22c-17 -17 -27 -48 -27 -82c0 -61 22 -100 71 -100c45 0 74 39 74 92zM272 606h-63v63h63v-63zM135 606h-64v63h64v-63z" />
    <glyph glyph-name="aring" unicode="&#xe5;" horiz-adv-x="352" 
d="M294 0h-54v46c-7 -14 -19 -27 -28 -34c-16 -12 -33 -20 -61 -20c-32 0 -59 11 -81 34c-19 20 -33 60 -33 115c0 48 14 89 43 115c25 23 54 34 100 34h58v91c0 56 -23 87 -70 87c-20 0 -35 -8 -46 -19c-16 -17 -23 -37 -23 -71h-56c0 38 8 76 37 105c21 21 51 34 88 34
c40 0 71 -11 91 -32c23 -24 35 -56 35 -106v-379zM238 134v112h-56c-26 0 -45 -6 -62 -22c-17 -17 -27 -48 -27 -82c0 -61 22 -100 71 -100c45 0 74 39 74 92zM263 672c0 -50 -41 -91 -91 -91s-91 41 -91 91s41 91 91 91s91 -41 91 -91zM224 672c0 29 -24 53 -52 53
c-29 0 -53 -24 -53 -53c0 -28 24 -52 53 -52c28 0 52 24 52 52z" />
    <glyph glyph-name="ae" unicode="&#xe6;" horiz-adv-x="544" 
d="M502 246h-208c0 -104 4 -155 26 -181c11 -13 29 -23 52 -23s38 7 51 20c15 15 22 41 22 72h55c0 -48 -11 -80 -37 -107c-23 -24 -56 -35 -91 -35s-63 11 -83 30c-12 12 -24 29 -31 45c-8 -21 -21 -41 -36 -52c-17 -13 -40 -23 -71 -23c-32 0 -59 11 -81 34
c-19 20 -33 60 -33 115c0 48 14 89 43 115c25 23 54 34 100 34h58v91c0 56 -24 87 -70 87c-20 0 -36 -8 -46 -19c-17 -17 -23 -38 -23 -71h-56c0 38 8 76 37 105c21 21 51 34 88 34s65 -10 84 -28c8 -8 13 -15 18 -25c5 8 10 14 15 19c20 21 49 34 85 34c39 0 69 -13 91 -37
c34 -37 41 -104 41 -234zM238 134v112h-56c-26 0 -45 -5 -62 -22c-17 -16 -27 -48 -27 -82c0 -61 22 -100 71 -100c45 0 74 39 74 92zM446 291c-1 88 -5 130 -26 153c-11 13 -27 23 -50 23s-40 -10 -51 -23c-20 -23 -24 -65 -25 -153h152z" />
    <glyph glyph-name="ccedilla" unicode="&#xe7;" horiz-adv-x="340" 
d="M303 134c-1 -48 -10 -83 -36 -109c-22 -22 -51 -33 -90 -33s-72 14 -94 40c-31 36 -38 102 -38 222s7 186 38 222c22 27 55 41 94 41s67 -9 90 -32c30 -29 35 -69 36 -111h-55c0 26 -1 52 -20 72c-12 14 -29 21 -50 21c-22 0 -41 -9 -52 -23c-22 -28 -25 -81 -25 -190
s3 -161 25 -189c11 -14 30 -23 52 -23c19 0 36 7 49 20c17 18 21 42 21 72h55zM209 -37l-46 -134h-53l53 134h46z" />
    <glyph glyph-name="egrave" unicode="&#xe8;" horiz-adv-x="349" 
d="M309 246h-208c0 -104 3 -155 26 -181c11 -13 29 -23 51 -23c20 0 39 6 52 20c15 16 22 41 22 72h55c0 -49 -11 -80 -37 -107c-23 -24 -55 -35 -92 -35c-39 0 -69 13 -92 37c-33 36 -41 104 -41 225c0 122 7 189 41 226c22 24 52 37 91 37s69 -13 91 -37
c34 -37 41 -104 41 -234zM253 291c-1 88 -6 130 -26 153c-11 13 -27 23 -50 23s-40 -10 -51 -23c-20 -23 -24 -65 -25 -153h152zM207 586h-49l-75 130h58z" />
    <glyph glyph-name="eacute" unicode="&#xe9;" horiz-adv-x="349" 
d="M309 246h-208c0 -104 3 -155 26 -181c11 -13 29 -23 51 -23c20 0 39 6 52 20c15 16 22 41 22 72h55c0 -49 -11 -80 -37 -107c-23 -24 -55 -35 -92 -35c-39 0 -69 13 -92 37c-33 36 -41 104 -41 225c0 122 7 189 41 226c22 24 52 37 91 37s69 -13 91 -37
c34 -37 41 -104 41 -234zM253 291c-1 88 -6 130 -26 153c-11 13 -27 23 -50 23s-40 -10 -51 -23c-20 -23 -24 -65 -25 -153h152zM273 716l-74 -130h-49l65 130h58z" />
    <glyph glyph-name="ecircumflex" unicode="&#xea;" horiz-adv-x="349" 
d="M309 246h-208c0 -104 3 -155 26 -181c11 -13 29 -23 51 -23c20 0 39 6 52 20c15 16 22 41 22 72h55c0 -49 -11 -80 -37 -107c-23 -24 -55 -35 -92 -35c-39 0 -69 13 -92 37c-33 36 -41 104 -41 225c0 122 7 189 41 226c22 24 52 37 91 37s69 -13 91 -37
c34 -37 41 -104 41 -234zM253 291c-1 88 -6 130 -26 153c-11 13 -27 23 -50 23s-40 -10 -51 -23c-20 -23 -24 -65 -25 -153h152zM288 586h-51l-60 92l-60 -92h-52l87 130h50z" />
    <glyph glyph-name="edieresis" unicode="&#xeb;" horiz-adv-x="349" 
d="M309 246h-208c0 -104 3 -155 26 -181c11 -13 29 -23 51 -23c20 0 39 6 52 20c15 16 22 41 22 72h55c0 -49 -11 -80 -37 -107c-23 -24 -55 -35 -92 -35c-39 0 -69 13 -92 37c-33 36 -41 104 -41 225c0 122 7 189 41 226c22 24 52 37 91 37s69 -13 91 -37
c34 -37 41 -104 41 -234zM253 291c-1 88 -6 130 -26 153c-11 13 -27 23 -50 23s-40 -10 -51 -23c-20 -23 -24 -65 -25 -153h152zM277 606h-63v63h63v-63zM140 606h-64v63h64v-63z" />
    <glyph glyph-name="igrave" unicode="&#xec;" horiz-adv-x="181" 
d="M119 0h-56v509h56v-509zM119 586h-49l-75 130h58z" />
    <glyph glyph-name="iacute" unicode="&#xed;" horiz-adv-x="181" 
d="M119 0h-56v509h56v-509zM187 716l-74 -130h-49l65 130h58z" />
    <glyph glyph-name="icircumflex" unicode="&#xee;" horiz-adv-x="181" 
d="M119 0h-56v509h56v-509zM202 586h-51l-60 92l-60 -92h-52l87 130h50z" />
    <glyph glyph-name="idieresis" unicode="&#xef;" horiz-adv-x="181" 
d="M119 0h-56v509h56v-509zM191 606h-63v63h63v-63zM54 606h-64v63h64v-63z" />
    <glyph glyph-name="eth" unicode="&#xf0;" horiz-adv-x="355" 
d="M309 249c0 -119 -7 -182 -38 -218c-22 -26 -53 -39 -94 -39s-72 13 -94 39c-31 36 -38 99 -38 218c0 125 7 186 38 221c20 22 48 35 85 35c19 0 39 -4 55 -14l-32 91h-82v44h67l-33 86h57l32 -86h72v-44h-57l39 -115c16 -49 23 -100 23 -218zM253 250
c0 107 -2 158 -25 185c-11 13 -29 22 -51 22s-39 -9 -50 -22c-23 -27 -26 -78 -26 -185s3 -159 26 -186c11 -13 28 -22 50 -22s40 9 51 22c23 27 25 79 25 186z" />
    <glyph glyph-name="ntilde" unicode="&#xf1;" horiz-adv-x="373" 
d="M315 0h-56v383c0 56 -31 83 -70 83s-71 -27 -71 -83v-383h-56v509h55v-41c6 11 20 25 29 31c16 11 35 18 58 18c34 0 59 -13 80 -35c20 -21 31 -49 31 -100v-382zM310 635c-34 -33 -53 -38 -71 -38c-21 0 -36 7 -54 17c-14 9 -27 16 -42 16c-12 0 -20 -1 -43 -24l-28 29
c33 33 51 38 70 38c22 0 36 -6 54 -17c15 -9 27 -16 42 -16c11 0 21 2 43 24z" />
    <glyph glyph-name="ograve" unicode="&#xf2;" horiz-adv-x="353" 
d="M309 254c0 -120 -7 -185 -38 -222c-22 -27 -53 -40 -94 -40s-72 13 -94 40c-31 37 -38 102 -38 222s7 185 38 222c22 27 53 41 94 41s72 -14 94 -41c31 -37 38 -102 38 -222zM253 254c0 109 -3 162 -26 190c-11 13 -28 23 -50 23s-40 -10 -51 -23
c-23 -28 -25 -81 -25 -190s2 -161 25 -189c11 -13 29 -23 51 -23s39 10 50 23c23 28 26 80 26 189zM207 586h-49l-75 130h58z" />
    <glyph glyph-name="oacute" unicode="&#xf3;" horiz-adv-x="353" 
d="M309 254c0 -120 -7 -185 -38 -222c-22 -27 -53 -40 -94 -40s-72 13 -94 40c-31 37 -38 102 -38 222s7 185 38 222c22 27 53 41 94 41s72 -14 94 -41c31 -37 38 -102 38 -222zM253 254c0 109 -3 162 -26 190c-11 13 -28 23 -50 23s-40 -10 -51 -23
c-23 -28 -25 -81 -25 -190s2 -161 25 -189c11 -13 29 -23 51 -23s39 10 50 23c23 28 26 80 26 189zM273 716l-74 -130h-49l65 130h58z" />
    <glyph glyph-name="ocircumflex" unicode="&#xf4;" horiz-adv-x="353" 
d="M309 254c0 -120 -7 -185 -38 -222c-22 -27 -53 -40 -94 -40s-72 13 -94 40c-31 37 -38 102 -38 222s7 185 38 222c22 27 53 41 94 41s72 -14 94 -41c31 -37 38 -102 38 -222zM253 254c0 109 -3 162 -26 190c-11 13 -28 23 -50 23s-40 -10 -51 -23
c-23 -28 -25 -81 -25 -190s2 -161 25 -189c11 -13 29 -23 51 -23s39 10 50 23c23 28 26 80 26 189zM288 586h-51l-60 92l-60 -92h-52l87 130h50z" />
    <glyph glyph-name="otilde" unicode="&#xf5;" horiz-adv-x="353" 
d="M309 254c0 -120 -7 -185 -38 -222c-22 -27 -53 -40 -94 -40s-72 13 -94 40c-31 37 -38 102 -38 222s7 185 38 222c22 27 53 41 94 41s72 -14 94 -41c31 -37 38 -102 38 -222zM253 254c0 109 -3 162 -26 190c-11 13 -28 23 -50 23s-40 -10 -51 -23
c-23 -28 -25 -81 -25 -190s2 -161 25 -189c11 -13 29 -23 51 -23s39 10 50 23c23 28 26 80 26 189zM297 635c-34 -33 -53 -38 -71 -38c-21 0 -36 7 -54 17c-14 9 -27 16 -42 16c-12 0 -20 -1 -43 -24l-28 29c33 33 51 38 70 38c22 0 36 -6 54 -17c15 -9 27 -16 42 -16
c11 0 21 2 43 24z" />
    <glyph glyph-name="odieresis" unicode="&#xf6;" horiz-adv-x="353" 
d="M309 254c0 -120 -7 -185 -38 -222c-22 -27 -53 -40 -94 -40s-72 13 -94 40c-31 37 -38 102 -38 222s7 185 38 222c22 27 53 41 94 41s72 -14 94 -41c31 -37 38 -102 38 -222zM253 254c0 109 -3 162 -26 190c-11 13 -28 23 -50 23s-40 -10 -51 -23
c-23 -28 -25 -81 -25 -190s2 -161 25 -189c11 -13 29 -23 51 -23s39 10 50 23c23 28 26 80 26 189zM277 606h-63v63h63v-63zM140 606h-64v63h64v-63z" />
    <glyph glyph-name="divide" unicode="&#xf7;" horiz-adv-x="431" 
d="M383 248h-334v53h334v-53zM254 89h-75v76h75v-76zM254 384h-75v75h75v-75z" />
    <glyph glyph-name="oslash" unicode="&#xf8;" horiz-adv-x="347" 
d="M311 553l-32 -87c24 -38 30 -104 30 -212c0 -120 -7 -185 -38 -222c-22 -27 -53 -40 -94 -40c-28 0 -51 6 -69 18l-20 -54h-46l33 87c-24 38 -30 104 -30 211c0 120 7 185 38 222c22 27 53 41 94 41c28 0 50 -7 68 -19l20 55h46zM226 447c-11 12 -28 21 -49 21
c-22 0 -40 -9 -51 -23c-23 -28 -25 -82 -25 -191c0 -65 1 -108 8 -135zM253 254c0 65 -1 109 -8 136l-117 -329c11 -12 28 -20 49 -20c22 0 39 9 50 23c23 28 26 81 26 190z" />
    <glyph glyph-name="ugrave" unicode="&#xf9;" horiz-adv-x="373" 
d="M311 0h-55v41c-6 -11 -20 -25 -29 -31c-16 -11 -35 -18 -58 -18c-34 0 -59 12 -80 34c-20 21 -31 50 -31 101v382h56v-383c0 -56 31 -83 70 -83s71 27 71 83v383h56v-509zM214 586h-49l-75 130h58z" />
    <glyph glyph-name="uacute" unicode="&#xfa;" horiz-adv-x="373" 
d="M311 0h-55v41c-6 -11 -20 -25 -29 -31c-16 -11 -35 -18 -58 -18c-34 0 -59 12 -80 34c-20 21 -31 50 -31 101v382h56v-383c0 -56 31 -83 70 -83s71 27 71 83v383h56v-509zM280 716l-74 -130h-49l65 130h58z" />
    <glyph glyph-name="ucircumflex" unicode="&#xfb;" horiz-adv-x="373" 
d="M311 0h-55v41c-6 -11 -20 -25 -29 -31c-16 -11 -35 -18 -58 -18c-34 0 -59 12 -80 34c-20 21 -31 50 -31 101v382h56v-383c0 -56 31 -83 70 -83s71 27 71 83v383h56v-509zM295 586h-51l-60 92l-60 -92h-52l87 130h50z" />
    <glyph glyph-name="udieresis" unicode="&#xfc;" horiz-adv-x="373" 
d="M311 0h-55v41c-6 -11 -20 -25 -29 -31c-16 -11 -35 -18 -58 -18c-34 0 -59 12 -80 34c-20 21 -31 50 -31 101v382h56v-383c0 -56 31 -83 70 -83s71 27 71 83v383h56v-509zM284 606h-63v63h63v-63zM147 606h-64v63h64v-63z" />
    <glyph glyph-name="yacute" unicode="&#xfd;" horiz-adv-x="308" 
d="M301 509l-144 -608c-19 -79 -71 -104 -148 -104v50c55 0 82 22 93 65l23 90l-121 507h62l87 -420l87 420h61zM254 716l-74 -130h-49l65 130h58z" />
    <glyph glyph-name="thorn" unicode="&#xfe;" horiz-adv-x="366" 
d="M321 254c0 -126 -7 -191 -38 -226c-19 -22 -44 -36 -79 -36c-23 0 -41 5 -58 16c-10 6 -21 19 -27 30v-241h-56v915h55v-244c5 11 19 25 28 31c17 12 36 18 58 18c31 0 58 -12 79 -36c31 -36 38 -100 38 -227zM265 254c0 115 -3 164 -26 190c-11 13 -28 23 -48 23
s-36 -7 -49 -19c-15 -15 -23 -37 -23 -70v-247c0 -33 8 -55 23 -70c13 -12 29 -19 49 -19s37 9 48 22c23 27 26 75 26 190z" />
    <glyph glyph-name="ydieresis" unicode="&#xff;" horiz-adv-x="308" 
d="M301 509l-144 -608c-19 -79 -71 -104 -148 -104v50c55 0 82 22 93 65l23 90l-121 507h62l87 -420l87 420h61zM258 606h-63v63h63v-63zM121 606h-64v63h64v-63z" />
    <glyph glyph-name="Amacron" unicode="&#x100;" horiz-adv-x="379" 
d="M374 0h-63l-39 195h-166l-38 -195h-64l159 712h55zM261 248l-72 358l-71 -358h143zM298 785h-212v45h212v-45z" />
    <glyph glyph-name="amacron" unicode="&#x101;" horiz-adv-x="352" 
d="M294 0h-54v46c-7 -14 -19 -27 -28 -34c-16 -12 -33 -20 -61 -20c-32 0 -59 11 -81 34c-19 20 -33 60 -33 115c0 48 14 89 43 115c25 23 54 34 100 34h58v91c0 56 -23 87 -70 87c-20 0 -35 -8 -46 -19c-16 -17 -23 -37 -23 -71h-56c0 38 8 76 37 105c21 21 51 34 88 34
c40 0 71 -11 91 -32c23 -24 35 -56 35 -106v-379zM238 134v112h-56c-26 0 -45 -6 -62 -22c-17 -17 -27 -48 -27 -82c0 -61 22 -100 71 -100c45 0 74 39 74 92zM278 611h-212v45h212v-45z" />
    <glyph glyph-name="Abreve" unicode="&#x102;" horiz-adv-x="379" 
d="M374 0h-63l-39 195h-166l-38 -195h-64l159 712h55zM261 248l-72 358l-71 -358h143zM302 858c-6 -70 -43 -104 -110 -104c-68 0 -105 34 -111 104h46c5 -40 27 -60 65 -60c37 0 59 20 64 60h46z" />
    <glyph glyph-name="abreve" unicode="&#x103;" horiz-adv-x="352" 
d="M294 0h-54v46c-7 -14 -19 -27 -28 -34c-16 -12 -33 -20 -61 -20c-32 0 -59 11 -81 34c-19 20 -33 60 -33 115c0 48 14 89 43 115c25 23 54 34 100 34h58v91c0 56 -23 87 -70 87c-20 0 -35 -8 -46 -19c-16 -17 -23 -37 -23 -71h-56c0 38 8 76 37 105c21 21 51 34 88 34
c40 0 71 -11 91 -32c23 -24 35 -56 35 -106v-379zM238 134v112h-56c-26 0 -45 -6 -62 -22c-17 -17 -27 -48 -27 -82c0 -61 22 -100 71 -100c45 0 74 39 74 92zM282 684c-6 -70 -42 -104 -110 -104s-104 34 -111 104h46c5 -40 27 -60 65 -60s59 20 65 60h45z" />
    <glyph glyph-name="Aogonek" unicode="&#x104;" horiz-adv-x="379" 
d="M374 0h-63l-39 195h-166l-38 -195h-64l159 712h55zM261 248l-72 358l-71 -358h143zM365 -37l-46 -134h-53l53 134h46z" />
    <glyph glyph-name="aogonek" unicode="&#x105;" horiz-adv-x="352" 
d="M294 0h-54v46c-7 -14 -19 -27 -28 -34c-16 -12 -33 -20 -61 -20c-32 0 -59 11 -81 34c-19 20 -33 60 -33 115c0 48 14 89 43 115c25 23 54 34 100 34h58v91c0 56 -23 87 -70 87c-20 0 -35 -8 -46 -19c-16 -17 -23 -37 -23 -71h-56c0 38 8 76 37 105c21 21 51 34 88 34
c40 0 71 -11 91 -32c23 -24 35 -56 35 -106v-379zM238 134v112h-56c-26 0 -45 -6 -62 -22c-17 -17 -27 -48 -27 -82c0 -61 22 -100 71 -100c45 0 74 39 74 92zM291 -37l-46 -134h-53l53 134h46z" />
    <glyph glyph-name="Cacute" unicode="&#x106;" horiz-adv-x="399" 
d="M358 163c-1 -56 -17 -107 -50 -137c-24 -22 -56 -34 -98 -34c-46 0 -82 16 -106 42c-43 46 -50 96 -50 322s7 276 50 322c24 26 60 42 106 42s78 -14 102 -38c31 -31 45 -79 46 -133h-59c0 36 -7 72 -28 94c-14 15 -33 24 -61 24s-49 -10 -63 -26
c-29 -34 -34 -76 -34 -285s5 -251 34 -285c14 -16 35 -26 63 -26s48 10 61 24c21 22 28 59 28 94h59zM307 894l-75 -130h-49l65 130h59z" />
    <glyph glyph-name="cacute" unicode="&#x107;" horiz-adv-x="340" 
d="M303 134c-1 -48 -10 -83 -36 -109c-22 -22 -51 -33 -90 -33s-72 14 -94 40c-31 36 -38 102 -38 222s7 186 38 222c22 27 55 41 94 41s67 -9 90 -32c30 -29 35 -69 36 -111h-55c0 26 -1 52 -20 72c-12 14 -29 21 -50 21c-22 0 -41 -9 -52 -23c-22 -28 -25 -81 -25 -190
s3 -161 25 -189c11 -14 30 -23 52 -23c19 0 36 7 49 20c17 18 21 42 21 72h55zM273 716l-74 -130h-49l65 130h58z" />
    <glyph glyph-name="Ccircumflex" unicode="&#x108;" horiz-adv-x="399" 
d="M358 163c-1 -56 -17 -107 -50 -137c-24 -22 -56 -34 -98 -34c-46 0 -82 16 -106 42c-43 46 -50 96 -50 322s7 276 50 322c24 26 60 42 106 42s78 -14 102 -38c31 -31 45 -79 46 -133h-59c0 36 -7 72 -28 94c-14 15 -33 24 -61 24s-49 -10 -63 -26
c-29 -34 -34 -76 -34 -285s5 -251 34 -285c14 -16 35 -26 63 -26s48 10 61 24c21 22 28 59 28 94h59zM322 764h-52l-59 92l-60 -92h-52l87 130h50z" />
    <glyph glyph-name="ccircumflex" unicode="&#x109;" horiz-adv-x="340" 
d="M303 134c-1 -48 -10 -83 -36 -109c-22 -22 -51 -33 -90 -33s-72 14 -94 40c-31 36 -38 102 -38 222s7 186 38 222c22 27 55 41 94 41s67 -9 90 -32c30 -29 35 -69 36 -111h-55c0 26 -1 52 -20 72c-12 14 -29 21 -50 21c-22 0 -41 -9 -52 -23c-22 -28 -25 -81 -25 -190
s3 -161 25 -189c11 -14 30 -23 52 -23c19 0 36 7 49 20c17 18 21 42 21 72h55zM288 586h-51l-60 92l-60 -92h-52l87 130h50z" />
    <glyph glyph-name="Cdotaccent" unicode="&#x10a;" horiz-adv-x="399" 
d="M358 163c-1 -56 -17 -107 -50 -137c-24 -22 -56 -34 -98 -34c-46 0 -82 16 -106 42c-43 46 -50 96 -50 322s7 276 50 322c24 26 60 42 106 42s78 -14 102 -38c31 -31 45 -79 46 -133h-59c0 36 -7 72 -28 94c-14 15 -33 24 -61 24s-49 -10 -63 -26
c-29 -34 -34 -76 -34 -285s5 -251 34 -285c14 -16 35 -26 63 -26s48 10 61 24c21 22 28 59 28 94h59zM242 784h-63v63h63v-63z" />
    <glyph glyph-name="cdotaccent" unicode="&#x10b;" horiz-adv-x="340" 
d="M303 134c-1 -48 -10 -83 -36 -109c-22 -22 -51 -33 -90 -33s-72 14 -94 40c-31 36 -38 102 -38 222s7 186 38 222c22 27 55 41 94 41s67 -9 90 -32c30 -29 35 -69 36 -111h-55c0 26 -1 52 -20 72c-12 14 -29 21 -50 21c-22 0 -41 -9 -52 -23c-22 -28 -25 -81 -25 -190
s3 -161 25 -189c11 -14 30 -23 52 -23c19 0 36 7 49 20c17 18 21 42 21 72h55zM208 610h-63v63h63v-63z" />
    <glyph glyph-name="Ccaron" unicode="&#x10c;" horiz-adv-x="399" 
d="M358 163c-1 -56 -17 -107 -50 -137c-24 -22 -56 -34 -98 -34c-46 0 -82 16 -106 42c-43 46 -50 96 -50 322s7 276 50 322c24 26 60 42 106 42s78 -14 102 -38c31 -31 45 -79 46 -133h-59c0 36 -7 72 -28 94c-14 15 -33 24 -61 24s-49 -10 -63 -26
c-29 -34 -34 -76 -34 -285s5 -251 34 -285c14 -16 35 -26 63 -26s48 10 61 24c21 22 28 59 28 94h59zM322 887l-86 -129h-50l-87 129h52l60 -91l59 91h52z" />
    <glyph glyph-name="ccaron" unicode="&#x10d;" horiz-adv-x="340" 
d="M303 134c-1 -48 -10 -83 -36 -109c-22 -22 -51 -33 -90 -33s-72 14 -94 40c-31 36 -38 102 -38 222s7 186 38 222c22 27 55 41 94 41s67 -9 90 -32c30 -29 35 -69 36 -111h-55c0 26 -1 52 -20 72c-12 14 -29 21 -50 21c-22 0 -41 -9 -52 -23c-22 -28 -25 -81 -25 -190
s3 -161 25 -189c11 -14 30 -23 52 -23c19 0 36 7 49 20c17 18 21 42 21 72h55zM288 709l-86 -129h-50l-87 129h52l60 -91l60 91h51z" />
    <glyph glyph-name="Dcaron" unicode="&#x10e;" horiz-adv-x="424" 
d="M371 356c0 -222 -7 -270 -50 -315c-24 -25 -59 -41 -106 -41h-146v712h146c47 0 82 -16 106 -41c43 -45 50 -93 50 -315zM312 356c0 204 -4 245 -35 278c-14 16 -36 25 -65 25h-84v-606h84c29 0 51 9 65 25c31 33 35 75 35 278zM321 887l-86 -129h-50l-87 129h52l60 -91
l59 91h52z" />
    <glyph glyph-name="dcaron" unicode="&#x10f;" horiz-adv-x="365" 
d="M303 0h-55v41c-5 -11 -19 -25 -28 -31c-17 -12 -35 -18 -58 -18c-31 0 -58 12 -79 36c-31 35 -38 99 -38 226s7 190 38 227c18 22 43 36 79 36c23 0 44 -6 58 -16c9 -7 20 -19 27 -30v241h56v-712zM247 131v247c0 33 -8 55 -23 70c-13 12 -29 19 -49 19s-37 -10 -48 -23
c-23 -26 -26 -75 -26 -190s3 -163 26 -190c11 -13 28 -22 48 -22s36 7 49 19c15 15 23 37 23 70zM423 719l-30 -134h-44l21 134h53z" />
    <glyph glyph-name="Dcroat" unicode="&#x110;" horiz-adv-x="429" 
d="M375 356c0 -215 -5 -268 -50 -315c-24 -25 -58 -41 -105 -41h-147v332h-53v49h53v331h147c47 0 81 -16 105 -41c45 -47 50 -100 50 -315zM316 356c0 204 -4 244 -35 278c-14 15 -36 25 -64 25h-85v-278h91v-49h-91v-279h85c28 0 50 10 64 25c31 34 35 74 35 278z" />
    <glyph glyph-name="dcroat" unicode="&#x111;" horiz-adv-x="377" 
d="M303 0h-55v41c-5 -11 -19 -25 -28 -31c-17 -12 -35 -18 -58 -18c-31 0 -58 12 -79 36c-31 35 -38 99 -38 226s7 190 38 227c18 22 43 36 79 36c23 0 44 -6 58 -16c9 -7 20 -19 27 -30v113h-90v42h90v86h56v-86h58v-42h-58v-584zM247 131v247c0 33 -8 55 -23 70
c-13 12 -29 19 -49 19s-37 -10 -48 -23c-23 -26 -26 -75 -26 -190s3 -163 26 -190c11 -13 28 -22 48 -22s36 7 49 19c15 15 23 37 23 70z" />
    <glyph glyph-name="Emacron" unicode="&#x112;" horiz-adv-x="364" 
d="M317 0h-248v712h248v-53h-189v-276h163v-53h-163v-277h189v-53zM304 785h-212v45h212v-45z" />
    <glyph glyph-name="emacron" unicode="&#x113;" horiz-adv-x="349" 
d="M309 246h-208c0 -104 3 -155 26 -181c11 -13 29 -23 51 -23c20 0 39 6 52 20c15 16 22 41 22 72h55c0 -49 -11 -80 -37 -107c-23 -24 -55 -35 -92 -35c-39 0 -69 13 -92 37c-33 36 -41 104 -41 225c0 122 7 189 41 226c22 24 52 37 91 37s69 -13 91 -37
c34 -37 41 -104 41 -234zM253 291c-1 88 -6 130 -26 153c-11 13 -27 23 -50 23s-40 -10 -51 -23c-20 -23 -24 -65 -25 -153h152zM283 611h-212v45h212v-45z" />
    <glyph glyph-name="Ebreve" unicode="&#x114;" horiz-adv-x="364" 
d="M317 0h-248v712h248v-53h-189v-276h163v-53h-163v-277h189v-53zM309 858c-6 -70 -43 -104 -110 -104c-68 0 -105 34 -111 104h46c5 -40 27 -60 65 -60c37 0 59 20 64 60h46z" />
    <glyph glyph-name="ebreve" unicode="&#x115;" horiz-adv-x="349" 
d="M309 246h-208c0 -104 3 -155 26 -181c11 -13 29 -23 51 -23c20 0 39 6 52 20c15 16 22 41 22 72h55c0 -49 -11 -80 -37 -107c-23 -24 -55 -35 -92 -35c-39 0 -69 13 -92 37c-33 36 -41 104 -41 225c0 122 7 189 41 226c22 24 52 37 91 37s69 -13 91 -37
c34 -37 41 -104 41 -234zM253 291c-1 88 -6 130 -26 153c-11 13 -27 23 -50 23s-40 -10 -51 -23c-20 -23 -24 -65 -25 -153h152zM288 684c-6 -70 -42 -104 -110 -104s-104 34 -111 104h46c5 -40 27 -60 65 -60s59 20 65 60h45z" />
    <glyph glyph-name="Edotaccent" unicode="&#x116;" horiz-adv-x="364" 
d="M317 0h-248v712h248v-53h-189v-276h163v-53h-163v-277h189v-53zM229 784h-63v63h63v-63z" />
    <glyph glyph-name="edotaccent" unicode="&#x117;" horiz-adv-x="349" 
d="M309 246h-208c0 -104 3 -155 26 -181c11 -13 29 -23 51 -23c20 0 39 6 52 20c15 16 22 41 22 72h55c0 -49 -11 -80 -37 -107c-23 -24 -55 -35 -92 -35c-39 0 -69 13 -92 37c-33 36 -41 104 -41 225c0 122 7 189 41 226c22 24 52 37 91 37s69 -13 91 -37
c34 -37 41 -104 41 -234zM253 291c-1 88 -6 130 -26 153c-11 13 -27 23 -50 23s-40 -10 -51 -23c-20 -23 -24 -65 -25 -153h152zM208 610h-63v63h63v-63z" />
    <glyph glyph-name="Eogonek" unicode="&#x118;" horiz-adv-x="364" 
d="M317 0h-248v712h248v-53h-189v-276h163v-53h-163v-277h189v-53zM300 -37l-46 -134h-53l53 134h46z" />
    <glyph glyph-name="eogonek" unicode="&#x119;" horiz-adv-x="349" 
d="M309 246h-208c0 -104 3 -155 26 -181c11 -13 29 -23 51 -23c20 0 39 6 52 20c15 16 22 41 22 72h55c0 -49 -11 -80 -37 -107c-23 -24 -55 -35 -92 -35c-39 0 -69 13 -92 37c-33 36 -41 104 -41 225c0 122 7 189 41 226c22 24 52 37 91 37s69 -13 91 -37
c34 -37 41 -104 41 -234zM253 291c-1 88 -6 130 -26 153c-11 13 -27 23 -50 23s-40 -10 -51 -23c-20 -23 -24 -65 -25 -153h152zM249 -37l-46 -134h-53l53 134h46z" />
    <glyph glyph-name="Ecaron" unicode="&#x11a;" horiz-adv-x="364" 
d="M317 0h-248v712h248v-53h-189v-276h163v-53h-163v-277h189v-53zM309 887l-86 -129h-50l-87 129h52l60 -91l59 91h52z" />
    <glyph glyph-name="ecaron" unicode="&#x11b;" horiz-adv-x="349" 
d="M309 246h-208c0 -104 3 -155 26 -181c11 -13 29 -23 51 -23c20 0 39 6 52 20c15 16 22 41 22 72h55c0 -49 -11 -80 -37 -107c-23 -24 -55 -35 -92 -35c-39 0 -69 13 -92 37c-33 36 -41 104 -41 225c0 122 7 189 41 226c22 24 52 37 91 37s69 -13 91 -37
c34 -37 41 -104 41 -234zM253 291c-1 88 -6 130 -26 153c-11 13 -27 23 -50 23s-40 -10 -51 -23c-20 -23 -24 -65 -25 -153h152zM288 709l-86 -129h-50l-87 129h52l60 -91l60 91h51z" />
    <glyph glyph-name="Gcircumflex" unicode="&#x11c;" horiz-adv-x="412" 
d="M358 152c0 -107 -69 -160 -148 -160c-46 0 -82 16 -106 42c-43 46 -50 96 -50 322s7 276 50 322c24 26 60 42 106 42s80 -15 104 -39c30 -32 43 -78 44 -132h-59c0 57 -17 118 -89 118c-28 0 -49 -10 -63 -26c-29 -34 -34 -76 -34 -285s5 -251 34 -285
c14 -16 35 -26 63 -26c52 0 89 39 89 107v175h-89v50h148v-225zM322 764h-52l-59 92l-60 -92h-52l87 130h50z" />
    <glyph glyph-name="gcircumflex" unicode="&#x11d;" horiz-adv-x="365" 
d="M303 509v-524c0 -85 -9 -121 -38 -153c-21 -22 -54 -37 -91 -37c-36 0 -69 11 -92 34c-26 27 -35 60 -35 107h55c0 -30 4 -55 22 -73c12 -13 30 -19 49 -19c22 0 39 9 50 22c19 20 24 54 24 118v65c-6 -11 -17 -22 -27 -29c-16 -11 -33 -17 -57 -17c-32 0 -58 11 -79 35
c-31 36 -39 93 -39 222s7 186 39 221c21 24 47 36 79 36c24 0 42 -6 58 -17c10 -7 21 -19 27 -30v39h55zM247 141v237c0 33 -8 55 -23 70c-13 12 -29 19 -49 19s-37 -10 -48 -23c-23 -26 -26 -73 -26 -185s3 -159 26 -185c11 -13 28 -22 48 -22s37 5 49 18
c15 17 23 37 23 71zM287 586h-51l-60 92l-60 -92h-52l87 130h50z" />
    <glyph glyph-name="Gbreve" unicode="&#x11e;" horiz-adv-x="412" 
d="M358 152c0 -107 -69 -160 -148 -160c-46 0 -82 16 -106 42c-43 46 -50 96 -50 322s7 276 50 322c24 26 60 42 106 42s80 -15 104 -39c30 -32 43 -78 44 -132h-59c0 57 -17 118 -89 118c-28 0 -49 -10 -63 -26c-29 -34 -34 -76 -34 -285s5 -251 34 -285
c14 -16 35 -26 63 -26c52 0 89 39 89 107v175h-89v50h148v-225zM321 858c-6 -70 -43 -104 -110 -104c-68 0 -105 34 -111 104h46c5 -40 27 -60 65 -60c37 0 59 20 64 60h46z" />
    <glyph glyph-name="gbreve" unicode="&#x11f;" horiz-adv-x="365" 
d="M303 509v-524c0 -85 -9 -121 -38 -153c-21 -22 -54 -37 -91 -37c-36 0 -69 11 -92 34c-26 27 -35 60 -35 107h55c0 -30 4 -55 22 -73c12 -13 30 -19 49 -19c22 0 39 9 50 22c19 20 24 54 24 118v65c-6 -11 -17 -22 -27 -29c-16 -11 -33 -17 -57 -17c-32 0 -58 11 -79 35
c-31 36 -39 93 -39 222s7 186 39 221c21 24 47 36 79 36c24 0 42 -6 58 -17c10 -7 21 -19 27 -30v39h55zM247 141v237c0 33 -8 55 -23 70c-13 12 -29 19 -49 19s-37 -10 -48 -23c-23 -26 -26 -73 -26 -185s3 -159 26 -185c11 -13 28 -22 48 -22s37 5 49 18
c15 17 23 37 23 71zM286 684c-6 -70 -42 -104 -110 -104s-104 34 -111 104h46c5 -40 27 -60 65 -60s59 20 65 60h45z" />
    <glyph glyph-name="Gdotaccent" unicode="&#x120;" horiz-adv-x="412" 
d="M358 152c0 -107 -69 -160 -148 -160c-46 0 -82 16 -106 42c-43 46 -50 96 -50 322s7 276 50 322c24 26 60 42 106 42s80 -15 104 -39c30 -32 43 -78 44 -132h-59c0 57 -17 118 -89 118c-28 0 -49 -10 -63 -26c-29 -34 -34 -76 -34 -285s5 -251 34 -285
c14 -16 35 -26 63 -26c52 0 89 39 89 107v175h-89v50h148v-225zM242 784h-63v63h63v-63z" />
    <glyph glyph-name="gdotaccent" unicode="&#x121;" horiz-adv-x="365" 
d="M303 509v-524c0 -85 -9 -121 -38 -153c-21 -22 -54 -37 -91 -37c-36 0 -69 11 -92 34c-26 27 -35 60 -35 107h55c0 -30 4 -55 22 -73c12 -13 30 -19 49 -19c22 0 39 9 50 22c19 20 24 54 24 118v65c-6 -11 -17 -22 -27 -29c-16 -11 -33 -17 -57 -17c-32 0 -58 11 -79 35
c-31 36 -39 93 -39 222s7 186 39 221c21 24 47 36 79 36c24 0 42 -6 58 -17c10 -7 21 -19 27 -30v39h55zM247 141v237c0 33 -8 55 -23 70c-13 12 -29 19 -49 19s-37 -10 -48 -23c-23 -26 -26 -73 -26 -185s3 -159 26 -185c11 -13 28 -22 48 -22s37 5 49 18
c15 17 23 37 23 71zM207 610h-63v63h63v-63z" />
    <glyph glyph-name="Gcommaaccent" unicode="&#x122;" horiz-adv-x="412" 
d="M358 152c0 -107 -69 -160 -148 -160c-46 0 -82 16 -106 42c-43 46 -50 96 -50 322s7 276 50 322c24 26 60 42 106 42s80 -15 104 -39c30 -32 43 -78 44 -132h-59c0 57 -17 118 -89 118c-28 0 -49 -10 -63 -26c-29 -34 -34 -76 -34 -285s5 -251 34 -285
c14 -16 35 -26 63 -26c52 0 89 39 89 107v175h-89v50h148v-225zM236 -37l-46 -134h-53l53 134h46z" />
    <glyph glyph-name="gcommaaccent" unicode="&#x123;" horiz-adv-x="365" 
d="M303 509v-524c0 -85 -9 -121 -38 -153c-21 -22 -54 -37 -91 -37c-36 0 -69 11 -92 34c-26 27 -35 60 -35 107h55c0 -30 4 -55 22 -73c12 -13 30 -19 49 -19c22 0 39 9 50 22c19 20 24 54 24 118v65c-6 -11 -17 -22 -27 -29c-16 -11 -33 -17 -57 -17c-32 0 -58 11 -79 35
c-31 36 -39 93 -39 222s7 186 39 221c21 24 47 36 79 36c24 0 42 -6 58 -17c10 -7 21 -19 27 -30v39h55zM247 141v237c0 33 -8 55 -23 70c-13 12 -29 19 -49 19s-37 -10 -48 -23c-23 -26 -26 -73 -26 -185s3 -159 26 -185c11 -13 28 -22 48 -22s37 5 49 18
c15 17 23 37 23 71zM152 586l46 134h53l-53 -134h-46z" />
    <glyph glyph-name="Hcircumflex" unicode="&#x124;" horiz-adv-x="432" 
d="M363 0h-59v336h-176v-336h-59v712h59v-323h176v323h59v-712zM327 764h-52l-59 92l-60 -92h-52l87 130h50z" />
    <glyph glyph-name="hcircumflex" unicode="&#x125;" horiz-adv-x="373" 
d="M315 0h-56v383c0 56 -31 83 -70 83s-71 -27 -71 -83v-383h-56v712h56v-243c5 11 20 24 28 30c16 11 35 18 58 18c34 0 59 -13 80 -35c20 -21 31 -49 31 -100v-382zM202 764h-51l-60 92l-60 -92h-52l87 130h50z" />
    <glyph glyph-name="Hbar" unicode="&#x126;" horiz-adv-x="442" 
d="M419 520h-51v-520h-59v335h-176v-335h-60v520h-50v48h50v144h60v-144h176v144h59v-144h51v-48zM309 389v131h-176v-131h176z" />
    <glyph glyph-name="hbar" unicode="&#x127;" horiz-adv-x="387" 
d="M329 0h-56v383c0 56 -31 83 -70 83s-71 -27 -71 -83v-383h-56v584h-60v42h60v86h56v-86h87v-42h-87v-115c5 11 20 24 28 30c16 11 35 18 58 18c34 0 59 -13 80 -35c20 -21 31 -49 31 -100v-382z" />
    <glyph glyph-name="Itilde" unicode="&#x128;" horiz-adv-x="197" 
d="M128 0h-59v712h59v-712zM218 813c-34 -33 -53 -38 -71 -38c-21 0 -36 7 -54 17c-14 9 -27 16 -42 16c-12 0 -20 -1 -43 -24l-28 29c33 33 51 38 70 38c22 0 36 -6 54 -17c15 -9 27 -16 42 -16c11 0 21 2 43 24z" />
    <glyph glyph-name="itilde" unicode="&#x129;" horiz-adv-x="181" 
d="M119 0h-56v509h56v-509zM211 635c-34 -33 -53 -38 -71 -38c-21 0 -36 7 -54 17c-14 9 -27 16 -42 16c-12 0 -20 -1 -43 -24l-28 29c33 33 51 38 70 38c22 0 36 -6 54 -17c15 -9 27 -16 42 -16c11 0 21 2 43 24z" />
    <glyph glyph-name="Imacron" unicode="&#x12a;" horiz-adv-x="197" 
d="M128 0h-59v712h59v-712zM205 785h-212v45h212v-45z" />
    <glyph glyph-name="imacron" unicode="&#x12b;" horiz-adv-x="181" 
d="M119 0h-56v509h56v-509zM197 611h-212v45h212v-45z" />
    <glyph glyph-name="Ibreve" unicode="&#x12c;" horiz-adv-x="197" 
d="M128 0h-59v712h59v-712zM210 858c-6 -70 -43 -104 -110 -104c-68 0 -105 34 -111 104h46c5 -40 27 -60 65 -60c37 0 59 20 64 60h46z" />
    <glyph glyph-name="ibreve" unicode="&#x12d;" horiz-adv-x="181" 
d="M119 0h-56v509h56v-509zM202 684c-6 -70 -42 -104 -110 -104s-104 34 -111 104h46c5 -40 27 -60 65 -60s59 20 65 60h45z" />
    <glyph glyph-name="Iogonek" unicode="&#x12e;" horiz-adv-x="197" 
d="M128 0h-59v712h59v-712zM127 -37l-46 -134h-53l53 134h46z" />
    <glyph glyph-name="iogonek" unicode="&#x12f;" horiz-adv-x="181" 
d="M118 0h-56v509h56v-509zM126 626h-72v72h72v-72zM118 -37l-46 -134h-53l53 134h46z" />
    <glyph glyph-name="Idotaccent" unicode="&#x130;" horiz-adv-x="197" 
d="M128 0h-59v712h59v-712zM130 784h-63v63h63v-63z" />
    <glyph glyph-name="dotlessi" unicode="&#x131;" horiz-adv-x="181" 
d="M119 0h-56v509h56v-509z" />
    <glyph glyph-name="IJ" unicode="&#x132;" horiz-adv-x="529" 
d="M128 0h-59v712h59v-712zM468 153c0 -51 -14 -92 -42 -120s-66 -41 -108 -41c-48 0 -85 17 -113 50l43 39c16 -22 41 -36 70 -36c51 0 91 37 91 108v559h59v-559z" />
    <glyph glyph-name="ij" unicode="&#x133;" horiz-adv-x="362" 
d="M118 0h-56v509h56v-509zM126 626h-72v72h72v-72zM299 -68c0 -51 -14 -81 -38 -103c-28 -26 -63 -32 -101 -32v50c51 0 83 22 83 86v576h56v-577zM307 626h-72v72h72v-72z" />
    <glyph glyph-name="Jcircumflex" unicode="&#x134;" horiz-adv-x="332" 
d="M271 153c0 -51 -14 -92 -42 -120s-66 -41 -108 -41c-48 0 -85 17 -113 50l43 39c16 -22 41 -36 70 -36c51 0 91 37 91 108v559h59v-559zM353 764h-52l-59 92l-60 -92h-52l87 130h50z" />
    <glyph glyph-name="jcircumflex" unicode="&#x135;" horiz-adv-x="181" 
d="M118 -67c0 -52 -15 -83 -38 -104c-28 -26 -63 -32 -101 -32v50c52 0 83 22 83 86v576h56v-576zM202 586h-51l-60 92l-60 -92h-52l87 130h50z" />
    <glyph glyph-name="Kcommaaccent" unicode="&#x136;" horiz-adv-x="409" 
d="M399 0h-64l-138 352l-69 -136v-216h-59v712h59v-387l189 387h63l-146 -294zM247 -37l-46 -134h-53l53 134h46z" />
    <glyph glyph-name="kcommaaccent" unicode="&#x137;" horiz-adv-x="373" 
d="M357 0h-62l-110 265l-67 -106v-159h-56v712h56v-470l161 267h61l-120 -195zM227 -37l-46 -134h-53l53 134h46z" />
    <glyph glyph-name="kgreenlandic" unicode="&#x138;" horiz-adv-x="373" 
d="M357 0h-62l-110 265l-67 -106v-159h-56v509h56v-267l161 267h61l-120 -195z" />
    <glyph glyph-name="Lacute" unicode="&#x139;" horiz-adv-x="339" 
d="M317 0h-248v712h59v-659h189v-53zM195 894l-75 -130h-49l65 130h59z" />
    <glyph glyph-name="lacute" unicode="&#x13a;" horiz-adv-x="212" 
d="M196 0c-38 0 -73 6 -101 32c-24 22 -38 53 -38 104v576h56v-576c0 -55 27 -86 83 -86v-50zM181 890l-74 -130h-49l65 130h58z" />
    <glyph glyph-name="Lcommaaccent" unicode="&#x13b;" horiz-adv-x="339" 
d="M317 0h-248v712h59v-659h189v-53zM228 -37l-46 -134h-53l53 134h46z" />
    <glyph glyph-name="lcommaaccent" unicode="&#x13c;" horiz-adv-x="212" 
d="M196 0c-38 0 -73 6 -101 32c-24 22 -38 53 -38 104v576h56v-576c0 -55 27 -86 83 -86v-50zM163 -37l-46 -134h-53l53 134h46z" />
    <glyph glyph-name="Lcaron" unicode="&#x13d;" horiz-adv-x="339" 
d="M317 0h-248v712h59v-659h189v-53zM266 712l-30 -134h-44l21 134h53z" />
    <glyph glyph-name="lcaron" unicode="&#x13e;" horiz-adv-x="212" 
d="M196 0c-38 0 -73 6 -101 32c-24 22 -38 53 -38 104v576h56v-576c0 -55 27 -86 83 -86v-50zM233 719l-30 -134h-44l21 134h53z" />
    <glyph glyph-name="Ldot" unicode="&#x13f;" horiz-adv-x="339" 
d="M317 0h-248v712h59v-659h189v-53zM301 324h-63v63h63v-63z" />
    <glyph glyph-name="ldot" unicode="&#x140;" horiz-adv-x="208" 
d="M196 0c-38 0 -73 6 -101 32c-24 22 -38 53 -38 104v576h56v-576c0 -55 27 -86 83 -86v-50zM223 274h-63v63h63v-63z" />
    <glyph glyph-name="Lslash" unicode="&#x141;" horiz-adv-x="341" 
d="M318 0h-248v294l-50 -47v64l50 48v353h59v-300l95 90v-64l-95 -91v-294h189v-53z" />
    <glyph glyph-name="lslash" unicode="&#x142;" horiz-adv-x="238" 
d="M218 0c-38 0 -73 6 -101 32c-24 22 -38 53 -38 104v184l-62 -64v63l62 64v329h56v-276l63 66v-63l-63 -66v-237c0 -55 27 -86 83 -86v-50z" />
    <glyph glyph-name="Nacute" unicode="&#x143;" horiz-adv-x="454" 
d="M385 0h-58l-199 555v-555h-59v712h59l198 -555v555h59v-712zM323 894l-75 -130h-49l65 130h59z" />
    <glyph glyph-name="nacute" unicode="&#x144;" horiz-adv-x="373" 
d="M315 0h-56v383c0 56 -31 83 -70 83s-71 -27 -71 -83v-383h-56v509h55v-41c6 11 20 25 29 31c16 11 35 18 58 18c34 0 59 -13 80 -35c20 -21 31 -49 31 -100v-382zM286 716l-74 -130h-49l65 130h58z" />
    <glyph glyph-name="Ncommaaccent" unicode="&#x145;" horiz-adv-x="454" 
d="M385 0h-58l-199 555v-555h-59v712h59l198 -555v555h59v-712zM247 -37l-46 -134h-53l53 134h46z" />
    <glyph glyph-name="ncommaaccent" unicode="&#x146;" horiz-adv-x="373" 
d="M315 0h-56v383c0 56 -31 83 -70 83s-71 -27 -71 -83v-383h-56v509h55v-41c6 11 20 25 29 31c16 11 35 18 58 18c34 0 59 -13 80 -35c20 -21 31 -49 31 -100v-382zM219 -37l-46 -134h-53l53 134h46z" />
    <glyph glyph-name="Ncaron" unicode="&#x147;" horiz-adv-x="454" 
d="M385 0h-58l-199 555v-555h-59v712h59l198 -555v555h59v-712zM338 887l-86 -129h-50l-87 129h52l60 -91l59 91h52z" />
    <glyph glyph-name="ncaron" unicode="&#x148;" horiz-adv-x="373" 
d="M315 0h-56v383c0 56 -31 83 -70 83s-71 -27 -71 -83v-383h-56v509h55v-41c6 11 20 25 29 31c16 11 35 18 58 18c34 0 59 -13 80 -35c20 -21 31 -49 31 -100v-382zM301 709l-86 -129h-50l-87 129h52l60 -91l60 91h51z" />
    <glyph glyph-name="napostrophe" unicode="&#x149;" horiz-adv-x="383" 
d="M325 0h-56v383c0 56 -31 83 -70 83s-71 -27 -71 -83v-383h-56v509h55v-41c6 11 20 25 29 31c16 11 35 18 58 18c34 0 59 -13 80 -35c20 -21 31 -49 31 -100v-382zM52 607l-52 -40v152h52v-112z" />
    <glyph glyph-name="Eng" unicode="&#x14a;" horiz-adv-x="454" 
d="M246 -120c50 1 81 22 81 86v34l-199 555v-555h-59v712h59l198 -555v555h59v-746c0 -52 -15 -83 -38 -104c-28 -26 -63 -32 -101 -32v50z" />
    <glyph glyph-name="eng" unicode="&#x14b;" horiz-adv-x="373" 
d="M315 -35c0 -52 -15 -83 -38 -104c-28 -26 -63 -32 -101 -32v50c52 0 83 22 83 86v418c0 56 -31 83 -70 83s-71 -27 -71 -83v-383h-56v509h55v-41c6 11 20 25 29 31c16 11 35 18 58 18c34 0 59 -13 80 -35c20 -21 31 -49 31 -100v-417z" />
    <glyph glyph-name="Omacron" unicode="&#x14c;" horiz-adv-x="421" 
d="M367 356c0 -226 -7 -276 -50 -322c-24 -26 -61 -42 -107 -42s-82 16 -106 42c-43 46 -50 96 -50 322s7 276 50 322c24 26 60 42 106 42s83 -16 107 -42c43 -46 50 -96 50 -322zM308 356c0 209 -5 251 -34 285c-14 16 -36 26 -64 26s-49 -10 -63 -26
c-29 -34 -34 -76 -34 -285s5 -251 34 -285c14 -16 35 -26 63 -26s50 10 64 26c29 34 34 76 34 285zM317 785h-212v45h212v-45z" />
    <glyph glyph-name="omacron" unicode="&#x14d;" horiz-adv-x="353" 
d="M309 254c0 -120 -7 -185 -38 -222c-22 -27 -53 -40 -94 -40s-72 13 -94 40c-31 37 -38 102 -38 222s7 185 38 222c22 27 53 41 94 41s72 -14 94 -41c31 -37 38 -102 38 -222zM253 254c0 109 -3 162 -26 190c-11 13 -28 23 -50 23s-40 -10 -51 -23
c-23 -28 -25 -81 -25 -190s2 -161 25 -189c11 -13 29 -23 51 -23s39 10 50 23c23 28 26 80 26 189zM283 611h-212v45h212v-45z" />
    <glyph glyph-name="Obreve" unicode="&#x14e;" horiz-adv-x="421" 
d="M367 356c0 -226 -7 -276 -50 -322c-24 -26 -61 -42 -107 -42s-82 16 -106 42c-43 46 -50 96 -50 322s7 276 50 322c24 26 60 42 106 42s83 -16 107 -42c43 -46 50 -96 50 -322zM308 356c0 209 -5 251 -34 285c-14 16 -36 26 -64 26s-49 -10 -63 -26
c-29 -34 -34 -76 -34 -285s5 -251 34 -285c14 -16 35 -26 63 -26s50 10 64 26c29 34 34 76 34 285zM322 858c-6 -70 -43 -104 -110 -104c-68 0 -105 34 -111 104h46c5 -40 27 -60 65 -60c37 0 59 20 64 60h46z" />
    <glyph glyph-name="obreve" unicode="&#x14f;" horiz-adv-x="353" 
d="M309 254c0 -120 -7 -185 -38 -222c-22 -27 -53 -40 -94 -40s-72 13 -94 40c-31 37 -38 102 -38 222s7 185 38 222c22 27 53 41 94 41s72 -14 94 -41c31 -37 38 -102 38 -222zM253 254c0 109 -3 162 -26 190c-11 13 -28 23 -50 23s-40 -10 -51 -23
c-23 -28 -25 -81 -25 -190s2 -161 25 -189c11 -13 29 -23 51 -23s39 10 50 23c23 28 26 80 26 189zM288 684c-6 -70 -42 -104 -110 -104s-104 34 -111 104h46c5 -40 27 -60 65 -60s59 20 65 60h45z" />
    <glyph glyph-name="Ohungarumlaut" unicode="&#x150;" horiz-adv-x="421" 
d="M367 356c0 -226 -7 -276 -50 -322c-24 -26 -61 -42 -107 -42s-82 16 -106 42c-43 46 -50 96 -50 322s7 276 50 322c24 26 60 42 106 42s83 -16 107 -42c43 -46 50 -96 50 -322zM308 356c0 209 -5 251 -34 285c-14 16 -36 26 -64 26s-49 -10 -63 -26
c-29 -34 -34 -76 -34 -285s5 -251 34 -285c14 -16 35 -26 63 -26s50 10 64 26c29 34 34 76 34 285zM241 894l-70 -130h-48l59 130h59zM367 894l-70 -130h-47l58 130h59z" />
    <glyph glyph-name="ohungarumlaut" unicode="&#x151;" horiz-adv-x="353" 
d="M309 254c0 -120 -7 -185 -38 -222c-22 -27 -53 -40 -94 -40s-72 13 -94 40c-31 37 -38 102 -38 222s7 185 38 222c22 27 53 41 94 41s72 -14 94 -41c31 -37 38 -102 38 -222zM253 254c0 109 -3 162 -26 190c-11 13 -28 23 -50 23s-40 -10 -51 -23
c-23 -28 -25 -81 -25 -190s2 -161 25 -189c11 -13 29 -23 51 -23s39 10 50 23c23 28 26 80 26 189zM205 716l-69 -130h-48l59 130h58zM331 716l-69 -130h-47l58 130h58z" />
    <glyph glyph-name="OE" unicode="&#x152;" horiz-adv-x="602" 
d="M556 0h-246v40c-22 -31 -57 -48 -101 -48s-81 16 -105 42c-43 47 -50 104 -50 322s7 275 50 322c24 26 61 42 105 42s80 -17 101 -48v40h246v-53h-190v-276h164v-53h-164v-277h190v-53zM308 356c0 209 -5 250 -34 285c-14 16 -35 26 -64 26s-49 -10 -63 -26
c-29 -35 -34 -76 -34 -285s5 -250 34 -285c14 -16 34 -26 63 -26s50 10 64 26c29 35 34 76 34 285z" />
    <glyph glyph-name="oe" unicode="&#x153;" horiz-adv-x="559" 
d="M516 246h-207c0 -104 3 -155 26 -181c11 -13 28 -23 51 -23c20 0 39 6 51 20c16 16 23 41 23 72h55c0 -49 -12 -80 -38 -107c-22 -24 -54 -35 -91 -35s-66 14 -86 34c-7 8 -14 17 -19 29c-5 -12 -12 -21 -19 -29c-19 -21 -48 -34 -85 -34c-41 0 -72 14 -94 40
c-31 37 -38 102 -38 222s7 186 38 222c22 27 53 41 94 41c37 0 66 -14 86 -34c7 -8 13 -17 18 -29c5 12 11 21 19 29c20 20 49 34 84 34c39 0 69 -13 91 -37c34 -37 41 -104 41 -234zM253 254c0 109 -3 162 -26 190c-11 13 -28 23 -50 23s-40 -10 -51 -23
c-23 -28 -25 -81 -25 -190s2 -162 25 -189c11 -14 29 -23 51 -23s39 9 50 23c23 27 26 80 26 189zM460 291c0 88 -4 130 -25 153c-11 13 -29 23 -51 23s-39 -10 -50 -23c-21 -23 -25 -65 -25 -153h151z" />
    <glyph glyph-name="Racute" unicode="&#x154;" horiz-adv-x="432" 
d="M386 0h-63l-103 319h-92v-319h-59v712h140c86 0 154 -31 154 -197c0 -110 -30 -163 -88 -185zM304 515c0 92 -21 144 -93 144h-83v-287h83c72 0 93 51 93 143zM298 894l-75 -130h-49l65 130h59z" />
    <glyph glyph-name="racute" unicode="&#x155;" horiz-adv-x="245" 
d="M229 464h-12c-60 0 -99 -38 -99 -99v-365h-56v509h55v-54c5 11 17 25 25 32c23 21 53 30 87 30v-53zM226 716l-74 -130h-49l65 130h58z" />
    <glyph glyph-name="Rcommaaccent" unicode="&#x156;" horiz-adv-x="432" 
d="M386 0h-63l-103 319h-92v-319h-59v712h140c86 0 154 -31 154 -197c0 -110 -30 -163 -88 -185zM304 515c0 92 -21 144 -93 144h-83v-287h83c72 0 93 51 93 143zM244 -37l-46 -134h-53l53 134h46z" />
    <glyph glyph-name="rcommaaccent" unicode="&#x157;" horiz-adv-x="245" 
d="M229 464h-12c-60 0 -99 -38 -99 -99v-365h-56v509h55v-54c5 11 17 25 25 32c23 21 53 30 87 30v-53zM118 -37l-46 -134h-53l53 134h46z" />
    <glyph glyph-name="Rcaron" unicode="&#x158;" horiz-adv-x="432" 
d="M386 0h-63l-103 319h-92v-319h-59v712h140c86 0 154 -31 154 -197c0 -110 -30 -163 -88 -185zM304 515c0 92 -21 144 -93 144h-83v-287h83c72 0 93 51 93 143zM313 887l-86 -129h-50l-87 129h52l60 -91l59 91h52z" />
    <glyph glyph-name="rcaron" unicode="&#x159;" horiz-adv-x="245" 
d="M229 464h-12c-60 0 -99 -38 -99 -99v-365h-56v509h55v-54c5 11 17 25 25 32c23 21 53 30 87 30v-53zM242 709l-86 -129h-50l-87 129h52l60 -91l60 91h51z" />
    <glyph glyph-name="Sacute" unicode="&#x15a;" horiz-adv-x="396" 
d="M350 186c0 -75 -12 -122 -44 -154c-24 -24 -60 -38 -111 -38c-48 0 -86 12 -112 38c-32 33 -42 68 -42 146h59c0 -55 6 -85 28 -107c15 -15 37 -24 67 -24c33 0 54 9 68 24c23 25 28 57 28 113c0 89 -14 121 -75 146l-76 31c-73 30 -94 71 -94 178c0 61 16 110 49 141
c26 25 60 38 104 38c46 0 82 -14 107 -39c35 -35 43 -76 43 -138h-59c0 45 -6 74 -27 98c-14 16 -35 26 -65 26c-28 0 -48 -9 -62 -23c-22 -22 -31 -58 -31 -102c0 -82 12 -106 77 -133l76 -31c77 -31 92 -87 92 -190zM298 894l-75 -130h-49l65 130h59z" />
    <glyph glyph-name="sacute" unicode="&#x15b;" horiz-adv-x="336" 
d="M303 130c0 -40 -16 -75 -40 -99c-25 -25 -58 -39 -97 -39s-70 13 -93 36c-29 30 -40 67 -40 110h56c0 -32 7 -56 26 -75c14 -14 32 -21 51 -21c24 0 43 8 58 23s23 37 23 63c0 21 -4 39 -14 55c-11 17 -27 31 -51 44l-64 35c-32 18 -55 41 -66 60c-10 19 -14 39 -14 64
c0 39 16 72 40 96c23 23 55 35 91 35c38 0 68 -11 91 -34c25 -25 37 -61 37 -110h-56c0 38 -6 57 -22 74c-14 15 -32 20 -50 20c-22 0 -40 -6 -53 -19c-16 -15 -22 -39 -22 -60c0 -17 3 -32 10 -44c7 -13 24 -25 47 -38l63 -36c33 -18 55 -37 69 -60s20 -51 20 -80zM269 716
l-74 -130h-49l65 130h58z" />
    <glyph glyph-name="Scircumflex" unicode="&#x15c;" horiz-adv-x="396" 
d="M350 186c0 -75 -12 -122 -44 -154c-24 -24 -60 -38 -111 -38c-48 0 -86 12 -112 38c-32 33 -42 68 -42 146h59c0 -55 6 -85 28 -107c15 -15 37 -24 67 -24c33 0 54 9 68 24c23 25 28 57 28 113c0 89 -14 121 -75 146l-76 31c-73 30 -94 71 -94 178c0 61 16 110 49 141
c26 25 60 38 104 38c46 0 82 -14 107 -39c35 -35 43 -76 43 -138h-59c0 45 -6 74 -27 98c-14 16 -35 26 -65 26c-28 0 -48 -9 -62 -23c-22 -22 -31 -58 -31 -102c0 -82 12 -106 77 -133l76 -31c77 -31 92 -87 92 -190zM313 764h-52l-59 92l-60 -92h-52l87 130h50z" />
    <glyph glyph-name="scircumflex" unicode="&#x15d;" horiz-adv-x="336" 
d="M303 130c0 -40 -16 -75 -40 -99c-25 -25 -58 -39 -97 -39s-70 13 -93 36c-29 30 -40 67 -40 110h56c0 -32 7 -56 26 -75c14 -14 32 -21 51 -21c24 0 43 8 58 23s23 37 23 63c0 21 -4 39 -14 55c-11 17 -27 31 -51 44l-64 35c-32 18 -55 41 -66 60c-10 19 -14 39 -14 64
c0 39 16 72 40 96c23 23 55 35 91 35c38 0 68 -11 91 -34c25 -25 37 -61 37 -110h-56c0 38 -6 57 -22 74c-14 15 -32 20 -50 20c-22 0 -40 -6 -53 -19c-16 -15 -22 -39 -22 -60c0 -17 3 -32 10 -44c7 -13 24 -25 47 -38l63 -36c33 -18 55 -37 69 -60s20 -51 20 -80zM284 586
h-51l-60 92l-60 -92h-52l87 130h50z" />
    <glyph glyph-name="Scedilla" unicode="&#x15e;" horiz-adv-x="396" 
d="M350 186c0 -75 -12 -122 -44 -154c-24 -24 -60 -38 -111 -38c-48 0 -86 12 -112 38c-32 33 -42 68 -42 146h59c0 -55 6 -85 28 -107c15 -15 37 -24 67 -24c33 0 54 9 68 24c23 25 28 57 28 113c0 89 -14 121 -75 146l-76 31c-73 30 -94 71 -94 178c0 61 16 110 49 141
c26 25 60 38 104 38c46 0 82 -14 107 -39c35 -35 43 -76 43 -138h-59c0 45 -6 74 -27 98c-14 16 -35 26 -65 26c-28 0 -48 -9 -62 -23c-22 -22 -31 -58 -31 -102c0 -82 12 -106 77 -133l76 -31c77 -31 92 -87 92 -190zM218 -37l-46 -134h-53l53 134h46z" />
    <glyph glyph-name="scedilla" unicode="&#x15f;" horiz-adv-x="336" 
d="M303 130c0 -40 -16 -75 -40 -99c-25 -25 -58 -39 -97 -39s-70 13 -93 36c-29 30 -40 67 -40 110h56c0 -32 7 -56 26 -75c14 -14 32 -21 51 -21c24 0 43 8 58 23s23 37 23 63c0 21 -4 39 -14 55c-11 17 -27 31 -51 44l-64 35c-32 18 -55 41 -66 60c-10 19 -14 39 -14 64
c0 39 16 72 40 96c23 23 55 35 91 35c38 0 68 -11 91 -34c25 -25 37 -61 37 -110h-56c0 38 -6 57 -22 74c-14 15 -32 20 -50 20c-22 0 -40 -6 -53 -19c-16 -15 -22 -39 -22 -60c0 -17 3 -32 10 -44c7 -13 24 -25 47 -38l63 -36c33 -18 55 -37 69 -60s20 -51 20 -80zM190 -37
l-46 -134h-53l53 134h46z" />
    <glyph glyph-name="Scaron" unicode="&#x160;" horiz-adv-x="396" 
d="M350 186c0 -75 -12 -122 -44 -154c-24 -24 -60 -38 -111 -38c-48 0 -86 12 -112 38c-32 33 -42 68 -42 146h59c0 -55 6 -85 28 -107c15 -15 37 -24 67 -24c33 0 54 9 68 24c23 25 28 57 28 113c0 89 -14 121 -75 146l-76 31c-73 30 -94 71 -94 178c0 61 16 110 49 141
c26 25 60 38 104 38c46 0 82 -14 107 -39c35 -35 43 -76 43 -138h-59c0 45 -6 74 -27 98c-14 16 -35 26 -65 26c-28 0 -48 -9 -62 -23c-22 -22 -31 -58 -31 -102c0 -82 12 -106 77 -133l76 -31c77 -31 92 -87 92 -190zM317 887l-86 -129h-50l-87 129h52l60 -91l59 91h52z
" />
    <glyph glyph-name="scaron" unicode="&#x161;" horiz-adv-x="336" 
d="M303 130c0 -40 -16 -75 -40 -99c-25 -25 -58 -39 -97 -39s-70 13 -93 36c-29 30 -40 67 -40 110h56c0 -32 7 -56 26 -75c14 -14 32 -21 51 -21c24 0 43 8 58 23s23 37 23 63c0 21 -4 39 -14 55c-11 17 -27 31 -51 44l-64 35c-32 18 -55 41 -66 60c-10 19 -14 39 -14 64
c0 39 16 72 40 96c23 23 55 35 91 35c38 0 68 -11 91 -34c25 -25 37 -61 37 -110h-56c0 38 -6 57 -22 74c-14 15 -32 20 -50 20c-22 0 -40 -6 -53 -19c-16 -15 -22 -39 -22 -60c0 -17 3 -32 10 -44c7 -13 24 -25 47 -38l63 -36c33 -18 55 -37 69 -60s20 -51 20 -80zM284 709
l-86 -129h-50l-87 129h52l60 -91l60 91h51z" />
    <glyph glyph-name="Tcommaaccent" unicode="&#x162;" horiz-adv-x="341" 
d="M319 659h-119v-659h-59v659h-119v53h297v-53zM194 -37l-46 -134h-53l53 134h46z" />
    <glyph glyph-name="tcommaaccent" unicode="&#x163;" horiz-adv-x="245" 
d="M225 0c-41 0 -79 4 -109 32c-25 23 -38 57 -38 104v329h-62v44h62v149h56v-149h87v-44h-87v-329c0 -61 32 -86 91 -86v-50zM181 -37l-46 -134h-53l53 134h46z" />
    <glyph glyph-name="Tcaron" unicode="&#x164;" horiz-adv-x="341" 
d="M319 659h-119v-659h-59v659h-119v53h297v-53zM280 887l-86 -129h-50l-87 129h52l60 -91l59 91h52z" />
    <glyph glyph-name="tcaron" unicode="&#x165;" horiz-adv-x="245" 
d="M225 0c-41 0 -79 4 -109 32c-25 23 -38 57 -38 104v329h-62v44h62v149h56v-149h87v-44h-87v-329c0 -61 32 -86 91 -86v-50zM253 719l-30 -134h-44l21 134h53z" />
    <glyph glyph-name="Tbar" unicode="&#x166;" horiz-adv-x="341" 
d="M273 332h-73v-332h-59v332h-71v49h71v278h-119v53h297v-53h-119v-278h73v-49z" />
    <glyph glyph-name="tbar" unicode="&#x167;" horiz-adv-x="245" 
d="M225 0c-41 0 -79 4 -109 32c-25 23 -38 57 -38 104v148h-62v44h62v137h-62v44h62v149h56v-149h87v-44h-87v-137h87v-44h-87v-148c0 -61 32 -86 91 -86v-50z" />
    <glyph glyph-name="Utilde" unicode="&#x168;" horiz-adv-x="417" 
d="M356 148c0 -50 -16 -89 -42 -115c-28 -27 -65 -41 -105 -41s-77 14 -105 41c-26 26 -43 65 -43 115v564h59v-569c0 -61 40 -98 89 -98s88 37 88 98v569h59v-564zM330 813c-34 -33 -53 -38 -71 -38c-21 0 -36 7 -54 17c-14 9 -27 16 -42 16c-12 0 -20 -1 -43 -24l-28 29
c33 33 51 38 70 38c22 0 36 -6 54 -17c15 -9 27 -16 42 -16c11 0 21 2 43 24z" />
    <glyph glyph-name="utilde" unicode="&#x169;" horiz-adv-x="373" 
d="M311 0h-55v41c-6 -11 -20 -25 -29 -31c-16 -11 -35 -18 -58 -18c-34 0 -59 12 -80 34c-20 21 -31 50 -31 101v382h56v-383c0 -56 31 -83 70 -83s71 27 71 83v383h56v-509zM303 635c-34 -33 -53 -38 -71 -38c-21 0 -36 7 -54 17c-14 9 -27 16 -42 16c-12 0 -20 -1 -43 -24
l-28 29c33 33 51 38 70 38c22 0 36 -6 54 -17c15 -9 27 -16 42 -16c11 0 21 2 43 24z" />
    <glyph glyph-name="Umacron" unicode="&#x16a;" horiz-adv-x="417" 
d="M356 148c0 -50 -16 -89 -42 -115c-28 -27 -65 -41 -105 -41s-77 14 -105 41c-26 26 -43 65 -43 115v564h59v-569c0 -61 40 -98 89 -98s88 37 88 98v569h59v-564zM316 785h-212v45h212v-45z" />
    <glyph glyph-name="umacron" unicode="&#x16b;" horiz-adv-x="373" 
d="M311 0h-55v41c-6 -11 -20 -25 -29 -31c-16 -11 -35 -18 -58 -18c-34 0 -59 12 -80 34c-20 21 -31 50 -31 101v382h56v-383c0 -56 31 -83 70 -83s71 27 71 83v383h56v-509zM290 611h-212v45h212v-45z" />
    <glyph glyph-name="Ubreve" unicode="&#x16c;" horiz-adv-x="417" 
d="M356 148c0 -50 -16 -89 -42 -115c-28 -27 -65 -41 -105 -41s-77 14 -105 41c-26 26 -43 65 -43 115v564h59v-569c0 -61 40 -98 89 -98s88 37 88 98v569h59v-564zM320 858c-6 -70 -43 -104 -110 -104c-68 0 -105 34 -111 104h46c5 -40 27 -60 65 -60c37 0 59 20 64 60h46z
" />
    <glyph glyph-name="ubreve" unicode="&#x16d;" horiz-adv-x="373" 
d="M311 0h-55v41c-6 -11 -20 -25 -29 -31c-16 -11 -35 -18 -58 -18c-34 0 -59 12 -80 34c-20 21 -31 50 -31 101v382h56v-383c0 -56 31 -83 70 -83s71 27 71 83v383h56v-509zM294 684c-6 -70 -42 -104 -110 -104s-104 34 -111 104h46c5 -40 27 -60 65 -60s59 20 65 60h45z
" />
    <glyph glyph-name="Uring" unicode="&#x16e;" horiz-adv-x="417" 
d="M356 148c0 -50 -16 -89 -42 -115c-28 -27 -65 -41 -105 -41s-77 14 -105 41c-26 26 -43 65 -43 115v564h59v-569c0 -61 40 -98 89 -98s88 37 88 98v569h59v-564zM301 842c0 -50 -42 -91 -91 -91c-50 0 -91 41 -91 91s41 91 91 91c49 0 91 -41 91 -91zM262 842
c0 29 -24 52 -52 52c-29 0 -53 -23 -53 -52s24 -53 53 -53c28 0 52 24 52 53z" />
    <glyph glyph-name="uring" unicode="&#x16f;" horiz-adv-x="373" 
d="M311 0h-55v41c-6 -11 -20 -25 -29 -31c-16 -11 -35 -18 -58 -18c-34 0 -59 12 -80 34c-20 21 -31 50 -31 101v382h56v-383c0 -56 31 -83 70 -83s71 27 71 83v383h56v-509zM275 672c0 -50 -41 -91 -91 -91s-91 41 -91 91s41 91 91 91s91 -41 91 -91zM236 672
c0 29 -24 53 -52 53c-29 0 -53 -24 -53 -53c0 -28 24 -52 53 -52c28 0 52 24 52 52z" />
    <glyph glyph-name="Uhungarumlaut" unicode="&#x170;" horiz-adv-x="417" 
d="M356 148c0 -50 -16 -89 -42 -115c-28 -27 -65 -41 -105 -41s-77 14 -105 41c-26 26 -43 65 -43 115v564h59v-569c0 -61 40 -98 89 -98s88 37 88 98v569h59v-564zM239 894l-70 -130h-48l59 130h59zM365 894l-70 -130h-47l58 130h59z" />
    <glyph glyph-name="uhungarumlaut" unicode="&#x171;" horiz-adv-x="373" 
d="M311 0h-55v41c-6 -11 -20 -25 -29 -31c-16 -11 -35 -18 -58 -18c-34 0 -59 12 -80 34c-20 21 -31 50 -31 101v382h56v-383c0 -56 31 -83 70 -83s71 27 71 83v383h56v-509zM212 716l-69 -130h-48l59 130h58zM338 716l-69 -130h-47l58 130h58z" />
    <glyph glyph-name="Uogonek" unicode="&#x172;" horiz-adv-x="417" 
d="M356 148c0 -50 -16 -89 -42 -115c-28 -27 -65 -41 -105 -41s-77 14 -105 41c-26 26 -43 65 -43 115v564h59v-569c0 -61 40 -98 89 -98s88 37 88 98v569h59v-564zM307 -37l-46 -134h-53l53 134h46z" />
    <glyph glyph-name="uogonek" unicode="&#x173;" horiz-adv-x="373" 
d="M311 0h-55v41c-6 -11 -20 -25 -29 -31c-16 -11 -35 -18 -58 -18c-34 0 -59 12 -80 34c-20 21 -31 50 -31 101v382h56v-383c0 -56 31 -83 70 -83s71 27 71 83v383h56v-509zM310 -37l-46 -134h-53l53 134h46z" />
    <glyph glyph-name="Wcircumflex" unicode="&#x174;" horiz-adv-x="587" 
d="M583 712l-108 -712h-62l-119 607l-118 -607h-62l-110 712h65l76 -606l115 606h67l117 -606l75 606h64zM405 764h-52l-59 92l-60 -92h-52l87 130h50z" />
    <glyph glyph-name="wcircumflex" unicode="&#x175;" horiz-adv-x="474" 
d="M470 509l-99 -509h-60l-77 416l-73 -416h-60l-97 509h65l63 -421l74 421h56l78 -421l65 421h65zM346 586h-51l-60 92l-60 -92h-52l87 130h50z" />
    <glyph glyph-name="Ycircumflex" unicode="&#x176;" horiz-adv-x="315" 
d="M312 712l-125 -414v-298h-59v298l-125 414h65l89 -326l90 326h65zM269 764h-52l-59 92l-60 -92h-52l87 130h50z" />
    <glyph glyph-name="ycircumflex" unicode="&#x177;" horiz-adv-x="308" 
d="M301 509l-144 -608c-19 -79 -71 -104 -148 -104v50c55 0 82 22 93 65l23 90l-121 507h62l87 -420l87 420h61zM269 586h-51l-60 92l-60 -92h-52l87 130h50z" />
    <glyph glyph-name="Ydieresis" unicode="&#x178;" horiz-adv-x="315" 
d="M312 712l-125 -414v-298h-59v298l-125 414h65l89 -326l90 326h65zM259 784h-63v63h63v-63zM121 784h-63v63h63v-63z" />
    <glyph glyph-name="Zacute" unicode="&#x179;" horiz-adv-x="324" 
d="M294 0h-264v46l203 613h-189v53h250v-46l-202 -613h202v-53zM264 894l-75 -130h-49l65 130h59z" />
    <glyph glyph-name="zacute" unicode="&#x17a;" horiz-adv-x="276" 
d="M255 0h-233v44l172 415h-162v50h223v-44l-172 -415h172v-50zM240 716l-74 -130h-49l65 130h58z" />
    <glyph glyph-name="Zdotaccent" unicode="&#x17b;" horiz-adv-x="324" 
d="M294 0h-264v46l203 613h-189v53h250v-46l-202 -613h202v-53zM199 784h-63v63h63v-63z" />
    <glyph glyph-name="zdotaccent" unicode="&#x17c;" horiz-adv-x="276" 
d="M255 0h-233v44l172 415h-162v50h223v-44l-172 -415h172v-50zM175 610h-63v63h63v-63z" />
    <glyph glyph-name="Zcaron" unicode="&#x17d;" horiz-adv-x="324" 
d="M294 0h-264v46l203 613h-189v53h250v-46l-202 -613h202v-53zM279 887l-86 -129h-50l-87 129h52l60 -91l59 91h52z" />
    <glyph glyph-name="zcaron" unicode="&#x17e;" horiz-adv-x="276" 
d="M255 0h-233v44l172 415h-162v50h223v-44l-172 -415h172v-50zM255 709l-86 -129h-50l-87 129h52l60 -91l60 91h51z" />
    <glyph glyph-name="longs" unicode="&#x17f;" horiz-adv-x="181" 
d="M118 578v-578h-56v578c0 47 13 80 38 103c29 26 66 33 105 33v-51c-57 0 -87 -28 -87 -85z" />
    <glyph glyph-name="uni018F" unicode="&#x18f;" horiz-adv-x="412" 
d="M54 152v225h245c-1 190 -6 230 -34 264c-14 16 -34 26 -63 26c-72 0 -89 -61 -89 -118h-59c0 54 15 101 45 132c24 24 57 39 103 39s82 -16 106 -42c45 -48 50 -104 50 -322s-5 -274 -50 -322c-24 -26 -60 -42 -106 -42c-79 0 -148 54 -148 160zM113 327v-175
c0 -67 38 -107 89 -107c29 0 49 10 63 26c27 33 33 73 34 256h-186z" />
    <glyph glyph-name="florin" unicode="&#x192;" horiz-adv-x="337" 
d="M316 664h-19c-47 0 -82 -28 -92 -81l-37 -201h83v-44h-91l-104 -542h-56l104 542h-57v44h65l37 202c16 85 72 130 152 130h15v-50z" />
    <glyph glyph-name="uni01B5" unicode="&#x1b5;" horiz-adv-x="324" 
d="M294 0h-264v46l94 286h-64v49h81l92 278h-189v53h250v-46l-94 -285h64v-49h-80l-92 -279h202v-53z" />
    <glyph glyph-name="uni01B6" unicode="&#x1b6;" horiz-adv-x="276" 
d="M255 0h-233v44l78 188h-57v45h75l76 182h-162v50h223v-44l-78 -188h61v-45h-80l-75 -182h172v-50z" />
    <glyph glyph-name="uni01C4" unicode="&#x1c4;" horiz-adv-x="748" 
d="M371 356c0 -222 -7 -270 -50 -315c-24 -25 -59 -41 -106 -41h-146v712h146c47 0 82 -16 106 -41c43 -45 50 -93 50 -315zM312 356c0 204 -4 245 -35 278c-14 16 -36 25 -65 25h-84v-606h84c29 0 51 9 65 25c31 33 35 75 35 278zM718 0h-264v46l203 613h-189v53h250v-46
l-202 -613h202v-53zM703 887l-86 -129h-50l-87 129h52l60 -91l59 91h52z" />
    <glyph glyph-name="uni01C5" unicode="&#x1c5;" horiz-adv-x="700" 
d="M371 356c0 -222 -7 -270 -50 -315c-24 -25 -59 -41 -106 -41h-146v712h146c47 0 82 -16 106 -41c43 -45 50 -93 50 -315zM312 356c0 204 -4 245 -35 278c-14 16 -36 25 -65 25h-84v-606h84c29 0 51 9 65 25c31 33 35 75 35 278zM679 0h-233v44l172 415h-162v50h223v-44
l-172 -415h172v-50zM679 709l-86 -129h-50l-87 129h52l60 -91l60 91h51z" />
    <glyph glyph-name="uni01C6" unicode="&#x1c6;" horiz-adv-x="641" 
d="M303 0h-55v41c-5 -11 -19 -25 -28 -31c-17 -12 -35 -18 -58 -18c-31 0 -58 12 -79 36c-31 35 -38 99 -38 226s7 190 38 227c18 22 43 36 79 36c23 0 44 -6 58 -16c9 -7 20 -19 27 -30v241h56v-712zM247 131v247c0 33 -8 55 -23 70c-13 12 -29 19 -49 19s-37 -10 -48 -23
c-23 -26 -26 -75 -26 -190s3 -163 26 -190c11 -13 28 -22 48 -22s36 7 49 19c15 15 23 37 23 70zM620 0h-233v44l172 415h-162v50h223v-44l-172 -415h172v-50zM620 709l-86 -129h-50l-87 129h52l60 -91l60 91h51z" />
    <glyph glyph-name="uni01C7" unicode="&#x1c7;" horiz-adv-x="671" 
d="M317 0h-248v712h59v-659h189v-53zM610 153c0 -51 -14 -92 -42 -120s-66 -41 -108 -41c-48 0 -85 17 -113 50l43 39c16 -22 41 -36 70 -36c51 0 91 37 91 108v559h59v-559z" />
    <glyph glyph-name="uni01C8" unicode="&#x1c8;" horiz-adv-x="520" 
d="M317 0h-248v712h59v-659h189v-53zM457 -68c0 -51 -14 -81 -38 -103c-28 -26 -63 -32 -101 -32v50c51 0 83 22 83 86v576h56v-577zM465 626h-72v72h72v-72z" />
    <glyph glyph-name="uni01C9" unicode="&#x1c9;" horiz-adv-x="393" 
d="M196 0c-38 0 -73 6 -101 32c-24 22 -38 53 -38 104v576h56v-576c0 -55 27 -86 83 -86v-50zM330 -68c0 -51 -14 -81 -38 -103c-28 -26 -63 -32 -101 -32v50c51 0 83 22 83 86v576h56v-577zM338 626h-72v72h72v-72z" />
    <glyph glyph-name="uni01CA" unicode="&#x1ca;" horiz-adv-x="786" 
d="M385 0h-58l-199 555v-555h-59v712h59l198 -555v555h59v-712zM725 153c0 -51 -14 -92 -42 -120s-66 -41 -108 -41c-48 0 -85 17 -113 50l43 39c16 -22 41 -36 70 -36c51 0 91 37 91 108v559h59v-559z" />
    <glyph glyph-name="uni01CB" unicode="&#x1cb;" horiz-adv-x="635" 
d="M385 0h-58l-199 555v-555h-59v712h59l198 -555v555h59v-712zM572 -68c0 -51 -14 -81 -38 -103c-28 -26 -63 -32 -101 -32v50c51 0 83 22 83 86v576h56v-577zM580 626h-72v72h72v-72z" />
    <glyph glyph-name="uni01CC" unicode="&#x1cc;" horiz-adv-x="554" 
d="M315 0h-56v383c0 56 -31 83 -70 83s-71 -27 -71 -83v-383h-56v509h55v-41c6 11 20 25 29 31c16 11 35 18 58 18c34 0 59 -13 80 -35c20 -21 31 -49 31 -100v-382zM491 -68c0 -51 -14 -81 -38 -103c-28 -26 -63 -32 -101 -32v50c51 0 83 22 83 86v576h56v-577zM499 626
h-72v72h72v-72z" />
    <glyph glyph-name="uni01F1" unicode="&#x1f1;" horiz-adv-x="748" 
d="M371 356c0 -222 -7 -270 -50 -315c-24 -25 -59 -41 -106 -41h-146v712h146c47 0 82 -16 106 -41c43 -45 50 -93 50 -315zM312 356c0 204 -4 245 -35 278c-14 16 -36 25 -65 25h-84v-606h84c29 0 51 9 65 25c31 33 35 75 35 278zM718 0h-264v46l203 613h-189v53h250v-46
l-202 -613h202v-53z" />
    <glyph glyph-name="uni01F2" unicode="&#x1f2;" horiz-adv-x="700" 
d="M371 356c0 -222 -7 -270 -50 -315c-24 -25 -59 -41 -106 -41h-146v712h146c47 0 82 -16 106 -41c43 -45 50 -93 50 -315zM312 356c0 204 -4 245 -35 278c-14 16 -36 25 -65 25h-84v-606h84c29 0 51 9 65 25c31 33 35 75 35 278zM679 0h-233v44l172 415h-162v50h223v-44
l-172 -415h172v-50z" />
    <glyph glyph-name="uni01F3" unicode="&#x1f3;" horiz-adv-x="641" 
d="M303 0h-55v41c-5 -11 -19 -25 -28 -31c-17 -12 -35 -18 -58 -18c-31 0 -58 12 -79 36c-31 35 -38 99 -38 226s7 190 38 227c18 22 43 36 79 36c23 0 44 -6 58 -16c9 -7 20 -19 27 -30v241h56v-712zM247 131v247c0 33 -8 55 -23 70c-13 12 -29 19 -49 19s-37 -10 -48 -23
c-23 -26 -26 -75 -26 -190s3 -163 26 -190c11 -13 28 -22 48 -22s36 7 49 19c15 15 23 37 23 70zM620 0h-233v44l172 415h-162v50h223v-44l-172 -415h172v-50z" />
    <glyph glyph-name="Aringacute" unicode="&#x1fa;" horiz-adv-x="379" 
d="M374 0h-63l-39 195h-166l-38 -195h-64l159 712h55zM261 248l-72 358l-71 -358h143zM283 842c0 -50 -42 -91 -91 -91c-50 0 -91 41 -91 91s41 91 91 91c49 0 91 -41 91 -91zM244 842c0 29 -24 52 -52 52c-29 0 -53 -23 -53 -52s24 -53 53 -53c28 0 52 24 52 53zM288 1073
l-75 -130h-49l65 130h59z" />
    <glyph glyph-name="aringacute" unicode="&#x1fb;" horiz-adv-x="352" 
d="M294 0h-54v46c-7 -14 -19 -27 -28 -34c-16 -12 -33 -20 -61 -20c-32 0 -59 11 -81 34c-19 20 -33 60 -33 115c0 48 14 89 43 115c25 23 54 34 100 34h58v91c0 56 -23 87 -70 87c-20 0 -35 -8 -46 -19c-16 -17 -23 -37 -23 -71h-56c0 38 8 76 37 105c21 21 51 34 88 34
c40 0 71 -11 91 -32c23 -24 35 -56 35 -106v-379zM238 134v112h-56c-26 0 -45 -6 -62 -22c-17 -17 -27 -48 -27 -82c0 -61 22 -100 71 -100c45 0 74 39 74 92zM263 672c0 -50 -41 -91 -91 -91s-91 41 -91 91s41 91 91 91s91 -41 91 -91zM224 672c0 29 -24 53 -52 53
c-29 0 -53 -24 -53 -53c0 -28 24 -52 53 -52c28 0 52 24 52 52zM268 903l-74 -130h-49l65 130h58z" />
    <glyph glyph-name="AEacute" unicode="&#x1fc;" horiz-adv-x="604" 
d="M558 0h-249v197h-168l-72 -197h-64l265 712h288v-53h-190v-276h164v-53h-164v-277h190v-53zM309 250v410l-149 -410h149zM437 894l-75 -130h-49l65 130h59z" />
    <glyph glyph-name="aeacute" unicode="&#x1fd;" horiz-adv-x="544" 
d="M502 246h-208c0 -104 4 -155 26 -181c11 -13 29 -23 52 -23s38 7 51 20c15 15 22 41 22 72h55c0 -48 -11 -80 -37 -107c-23 -24 -56 -35 -91 -35s-63 11 -83 30c-12 12 -24 29 -31 45c-8 -21 -21 -41 -36 -52c-17 -13 -40 -23 -71 -23c-32 0 -59 11 -81 34
c-19 20 -33 60 -33 115c0 48 14 89 43 115c25 23 54 34 100 34h58v91c0 56 -24 87 -70 87c-20 0 -36 -8 -46 -19c-17 -17 -23 -38 -23 -71h-56c0 38 8 76 37 105c21 21 51 34 88 34s65 -10 84 -28c8 -8 13 -15 18 -25c5 8 10 14 15 19c20 21 49 34 85 34c39 0 69 -13 91 -37
c34 -37 41 -104 41 -234zM238 134v112h-56c-26 0 -45 -5 -62 -22c-17 -16 -27 -48 -27 -82c0 -61 22 -100 71 -100c45 0 74 39 74 92zM446 291c-1 88 -5 130 -26 153c-11 13 -27 23 -50 23s-40 -10 -51 -23c-20 -23 -24 -65 -25 -153h152zM362 716l-74 -130h-49l65 130h58z
" />
    <glyph glyph-name="Oslashacute" unicode="&#x1fe;" horiz-adv-x="405" 
d="M367 356c0 -226 -7 -276 -50 -322c-24 -26 -60 -42 -107 -42c-31 0 -57 7 -79 20l-17 -56h-50l29 90c-34 44 -39 107 -39 310c0 226 7 276 50 322c24 26 60 42 106 42c31 0 58 -7 80 -21l17 57h50l-28 -91c33 -44 38 -108 38 -309zM272 644c-14 15 -34 23 -62 23
s-49 -10 -63 -26c-29 -34 -34 -76 -34 -285c0 -134 2 -192 11 -226zM308 356c0 130 -2 190 -10 225l-149 -513c13 -15 33 -23 61 -23s50 10 64 26c29 34 34 76 34 285zM307 894l-75 -130h-49l65 130h59z" />
    <glyph glyph-name="oslashacute" unicode="&#x1ff;" horiz-adv-x="347" 
d="M311 553l-32 -87c24 -38 30 -104 30 -212c0 -120 -7 -185 -38 -222c-22 -27 -53 -40 -94 -40c-28 0 -51 6 -69 18l-20 -54h-46l33 87c-24 38 -30 104 -30 211c0 120 7 185 38 222c22 27 53 41 94 41c28 0 50 -7 68 -19l20 55h46zM226 447c-11 12 -28 21 -49 21
c-22 0 -40 -9 -51 -23c-23 -28 -25 -82 -25 -191c0 -65 1 -108 8 -135zM253 254c0 65 -1 109 -8 136l-117 -329c11 -12 28 -20 49 -20c22 0 39 9 50 23c23 28 26 81 26 190zM273 716l-74 -130h-49l65 130h58z" />
    <glyph glyph-name="Scommaaccent" unicode="&#x218;" horiz-adv-x="396" 
d="M350 186c0 -75 -12 -122 -44 -154c-24 -24 -60 -38 -111 -38c-48 0 -86 12 -112 38c-32 33 -42 68 -42 146h59c0 -55 6 -85 28 -107c15 -15 37 -24 67 -24c33 0 54 9 68 24c23 25 28 57 28 113c0 89 -14 121 -75 146l-76 31c-73 30 -94 71 -94 178c0 61 16 110 49 141
c26 25 60 38 104 38c46 0 82 -14 107 -39c35 -35 43 -76 43 -138h-59c0 45 -6 74 -27 98c-14 16 -35 26 -65 26c-28 0 -48 -9 -62 -23c-22 -22 -31 -58 -31 -102c0 -82 12 -106 77 -133l76 -31c77 -31 92 -87 92 -190zM218 -37l-46 -134h-53l53 134h46z" />
    <glyph glyph-name="scommaaccent" unicode="&#x219;" horiz-adv-x="336" 
d="M303 130c0 -40 -16 -75 -40 -99c-25 -25 -58 -39 -97 -39s-70 13 -93 36c-29 30 -40 67 -40 110h56c0 -32 7 -56 26 -75c14 -14 32 -21 51 -21c24 0 43 8 58 23s23 37 23 63c0 21 -4 39 -14 55c-11 17 -27 31 -51 44l-64 35c-32 18 -55 41 -66 60c-10 19 -14 39 -14 64
c0 39 16 72 40 96c23 23 55 35 91 35c38 0 68 -11 91 -34c25 -25 37 -61 37 -110h-56c0 38 -6 57 -22 74c-14 15 -32 20 -50 20c-22 0 -40 -6 -53 -19c-16 -15 -22 -39 -22 -60c0 -17 3 -32 10 -44c7 -13 24 -25 47 -38l63 -36c33 -18 55 -37 69 -60s20 -51 20 -80zM190 -37
l-46 -134h-53l53 134h46z" />
    <glyph glyph-name="uni021A" unicode="&#x21a;" horiz-adv-x="341" 
d="M319 659h-119v-659h-59v659h-119v53h297v-53zM194 -37l-46 -134h-53l53 134h46z" />
    <glyph glyph-name="uni021B" unicode="&#x21b;" horiz-adv-x="245" 
d="M225 0c-41 0 -79 4 -109 32c-25 23 -38 57 -38 104v329h-62v44h62v149h56v-149h87v-44h-87v-329c0 -61 32 -86 91 -86v-50zM172 -37l-46 -134h-53l53 134h46z" />
    <glyph glyph-name="uni0237" unicode="&#x237;" horiz-adv-x="181" 
d="M118 -67c0 -52 -15 -83 -38 -104c-28 -26 -63 -32 -101 -32v50c52 0 83 22 83 86v576h56v-576z" />
    <glyph glyph-name="uni0259" unicode="&#x259;" horiz-adv-x="349" 
d="M45 263h208c0 104 -3 155 -26 181c-11 13 -29 23 -51 23c-20 0 -39 -6 -52 -20c-15 -16 -22 -41 -22 -72h-55c0 49 11 80 37 107c23 24 55 35 92 35c39 0 69 -13 92 -37c33 -36 41 -104 41 -225c0 -122 -7 -189 -41 -226c-22 -24 -52 -37 -91 -37s-69 13 -91 37
c-34 37 -41 104 -41 234zM101 218c1 -88 6 -130 26 -153c11 -13 27 -23 50 -23s40 10 51 23c20 23 24 65 25 153h-152z" />
    <glyph glyph-name="uni02BB" unicode="&#x2bb;" horiz-adv-x="184" 
d="M127 620h-69v92l69 51v-143z" />
    <glyph glyph-name="afii57929" unicode="&#x2bc;" horiz-adv-x="184" 
d="M127 620l-69 -50v142h69v-92z" />
    <glyph glyph-name="circumflex" unicode="&#x2c6;" horiz-adv-x="354" 
d="M288 586h-51l-60 92l-60 -92h-52l87 130h50z" />
    <glyph glyph-name="caron" unicode="&#x2c7;" horiz-adv-x="354" 
d="M288 709l-86 -129h-50l-87 129h52l60 -91l60 91h51z" />
    <glyph glyph-name="breve" unicode="&#x2d8;" horiz-adv-x="354" 
d="M287 684c-6 -70 -42 -104 -110 -104s-104 34 -111 104h46c5 -40 27 -60 65 -60s59 20 65 60h45z" />
    <glyph glyph-name="dotaccent" unicode="&#x2d9;" horiz-adv-x="354" 
d="M208 610h-63v63h63v-63z" />
    <glyph glyph-name="ring" unicode="&#x2da;" horiz-adv-x="354" 
d="M268 672c0 -50 -41 -91 -91 -91s-91 41 -91 91s41 91 91 91s91 -41 91 -91zM229 672c0 29 -24 53 -52 53c-29 0 -53 -24 -53 -53c0 -28 24 -52 53 -52c28 0 52 24 52 52z" />
    <glyph glyph-name="ogonek" unicode="&#x2db;" horiz-adv-x="354" 
d="M209 -37l-46 -134h-53l53 134h46z" />
    <glyph glyph-name="tilde" unicode="&#x2dc;" horiz-adv-x="354" 
d="M297 635c-34 -33 -53 -38 -71 -38c-21 0 -36 7 -54 17c-14 9 -27 16 -42 16c-12 0 -20 -1 -43 -24l-28 29c33 33 51 38 70 38c22 0 36 -6 54 -17c15 -9 27 -16 42 -16c11 0 21 2 43 24z" />
    <glyph glyph-name="hungarumlaut" unicode="&#x2dd;" horiz-adv-x="354" 
d="M205 716l-69 -130h-48l59 130h58zM331 716l-69 -130h-47l58 130h58z" />
    <glyph glyph-name="uni0394" unicode="&#x394;" horiz-adv-x="379" 
d="M375 0h-371l159 712h56zM301 53l-112 553l-110 -553h222z" />
    <glyph glyph-name="uni03A9" unicode="&#x3a9;" horiz-adv-x="429" 
d="M376 0h-138v44c27 13 51 34 61 65c12 35 13 107 13 247c0 214 -6 252 -35 285c-14 16 -35 26 -63 26s-49 -10 -63 -26c-29 -33 -35 -71 -35 -285c0 -140 1 -212 13 -247c11 -31 34 -52 62 -65v-44h-139v49h73c-20 12 -39 28 -51 56c-15 37 -17 105 -17 251
c0 223 7 276 51 322c24 26 59 42 106 42s82 -16 106 -42c44 -46 51 -99 51 -322c0 -146 -2 -214 -17 -251c-11 -28 -30 -44 -51 -56h73v-49z" />
    <glyph glyph-name="uni03BC" unicode="&#x3bc;" horiz-adv-x="378" 
d="M315 0h-55v41c-6 -11 -20 -25 -29 -31c-16 -11 -34 -18 -58 -18c-25 0 -49 11 -56 21v-217h-55v713h56v-384c0 -56 31 -83 70 -83s71 27 71 83v384h56v-509z" />
    <glyph glyph-name="pi" unicode="&#x3c0;" horiz-adv-x="391" 
d="M322 509v-509h-56v461h-141v-461h-56v509h253z" />
    <glyph glyph-name="uni0400" unicode="&#x400;" horiz-adv-x="364" 
d="M317 0h-248v712h248v-53h-189v-276h163v-53h-163v-277h189v-53zM225 764h-49l-75 130h59z" />
    <glyph glyph-name="afii10023" unicode="&#x401;" horiz-adv-x="364" 
d="M317 0h-248v712h248v-53h-189v-276h163v-53h-163v-277h189v-53zM293 784h-63v63h63v-63zM155 784h-63v63h63v-63z" />
    <glyph glyph-name="afii10051" unicode="&#x402;" horiz-adv-x="464" 
d="M418 207c0 -155 -55 -207 -154 -207h-15v53h12c71 0 98 47 98 154c0 106 -27 153 -98 153h-75v-360h-59v659h-105v53h296v-53h-132v-246h78c100 0 154 -50 154 -206z" />
    <glyph glyph-name="afii10052" unicode="&#x403;" horiz-adv-x="337" 
d="M312 659h-184v-659h-59v712h243v-53zM265 894l-75 -130h-49l65 130h59z" />
    <glyph glyph-name="afii10053" unicode="&#x404;" horiz-adv-x="399" 
d="M357 163c0 -57 -16 -107 -50 -137c-24 -22 -55 -34 -97 -34c-46 0 -82 16 -106 42c-43 46 -50 96 -50 322s7 276 50 322c24 26 60 42 106 42c45 0 78 -14 102 -38c29 -29 45 -79 45 -133h-58c0 36 -7 72 -28 95c-13 14 -33 23 -61 23s-50 -9 -63 -25
c-28 -32 -35 -69 -35 -259h149v-53h-149c0 -192 7 -228 35 -260c13 -16 35 -25 63 -25s48 9 61 23c21 23 28 59 28 95h58z" />
    <glyph glyph-name="afii10054" unicode="&#x405;" horiz-adv-x="396" 
d="M350 186c0 -75 -12 -122 -44 -154c-24 -24 -60 -38 -111 -38c-48 0 -86 12 -112 38c-32 33 -42 68 -42 146h59c0 -55 6 -85 28 -107c15 -15 37 -24 67 -24c33 0 54 9 68 24c23 25 28 57 28 113c0 89 -14 121 -75 146l-76 31c-73 30 -94 71 -94 178c0 61 16 110 49 141
c26 25 60 38 104 38c46 0 82 -14 107 -39c35 -35 43 -76 43 -138h-59c0 45 -6 74 -27 98c-14 16 -35 26 -65 26c-28 0 -48 -9 -62 -23c-22 -22 -31 -58 -31 -102c0 -82 12 -106 77 -133l76 -31c77 -31 92 -87 92 -190z" />
    <glyph glyph-name="afii10055" unicode="&#x406;" horiz-adv-x="197" 
d="M128 0h-59v712h59v-712z" />
    <glyph glyph-name="afii10056" unicode="&#x407;" horiz-adv-x="197" 
d="M128 0h-59v712h59v-712zM199 784h-63v63h63v-63zM61 784h-63v63h63v-63z" />
    <glyph glyph-name="afii10057" unicode="&#x408;" horiz-adv-x="332" 
d="M271 153c0 -51 -14 -92 -42 -120s-66 -41 -108 -41c-48 0 -85 17 -113 50l43 39c16 -22 41 -36 70 -36c51 0 91 37 91 108v559h59v-559z" />
    <glyph glyph-name="afii10058" unicode="&#x409;" horiz-adv-x="666" 
d="M620 199c0 -166 -68 -199 -154 -199h-140v659h-143v-323c0 -310 -71 -336 -152 -336h-17v53h8c53 0 105 14 105 296v363h258v-315h81c86 0 154 -32 154 -198zM561 199c0 120 -40 145 -97 145h-79v-291h79c57 0 97 26 97 146z" />
    <glyph glyph-name="afii10059" unicode="&#x40a;" horiz-adv-x="645" 
d="M598 198c0 -167 -69 -198 -154 -198h-140v344h-176v-344h-59v712h59v-315h176v315h59v-315h81c101 0 154 -49 154 -199zM539 199c0 93 -22 145 -93 145h-83v-291h83c71 0 93 53 93 146z" />
    <glyph glyph-name="afii10060" unicode="&#x40b;" horiz-adv-x="469" 
d="M418 0h-59v239c0 95 -36 121 -106 121h-67v-360h-59v659h-105v53h296v-53h-132v-246h74c104 0 158 -43 158 -165v-248z" />
    <glyph glyph-name="afii10061" unicode="&#x40c;" horiz-adv-x="423" 
d="M412 0h-68l-215 371l200 341h66l-205 -338zM127 0h-59v712h59v-712zM317 894l-75 -130h-49l65 130h59z" />
    <glyph glyph-name="uni040D" unicode="&#x40d;" horiz-adv-x="444" 
d="M127 0h-58v712h59v-555l188 555h59v-712h-59v555zM249 764h-49l-75 130h59z" />
    <glyph glyph-name="afii10062" unicode="&#x40e;" horiz-adv-x="359" 
d="M355 712l-183 -610c-27 -89 -68 -102 -145 -102v53c54 0 77 12 95 74l30 102l-148 483h64l113 -400l110 400h64zM294 857c-6 -70 -44 -102 -113 -102s-106 32 -112 102h48c4 -40 26 -61 64 -61c39 0 61 21 65 61h48z" />
    <glyph glyph-name="afii10145" unicode="&#x40f;" horiz-adv-x="432" 
d="M363 0h-119v-141h-57v141h-118v712h59v-659h176v659h59v-712z" />
    <glyph glyph-name="afii10017" unicode="&#x410;" horiz-adv-x="379" 
d="M374 0h-63l-39 195h-166l-38 -195h-64l159 712h55zM261 248l-72 358l-71 -358h143z" />
    <glyph glyph-name="afii10018" unicode="&#x411;" horiz-adv-x="416" 
d="M367 198c0 -167 -69 -198 -154 -198h-144v712h269v-53h-210v-262h85c101 0 154 -49 154 -199zM308 199c0 93 -22 145 -93 145h-87v-291h87c71 0 93 53 93 146z" />
    <glyph glyph-name="afii10019" unicode="&#x412;" horiz-adv-x="415" 
d="M363 196c0 -89 -13 -123 -44 -155c-28 -29 -64 -41 -123 -41h-127v712h128c58 0 92 -11 120 -41c30 -32 40 -67 40 -142c0 -51 -7 -94 -43 -131c-14 -14 -30 -24 -45 -28c19 -5 36 -14 50 -28c39 -39 44 -89 44 -146zM304 198c0 104 -38 145 -106 145h-70v-290h70
c68 0 106 31 106 145zM298 527c0 103 -35 132 -100 132h-70v-264h70c64 0 100 37 100 132z" />
    <glyph glyph-name="afii10020" unicode="&#x413;" horiz-adv-x="337" 
d="M312 659h-184v-659h-59v712h243v-53z" />
    <glyph glyph-name="afii10021" unicode="&#x414;" horiz-adv-x="455" 
d="M426 -119h-57v119h-298v-119h-57v172h44c37 96 58 213 58 351v308h258v-659h52v-172zM315 53v606h-143v-263c0 -131 -17 -245 -53 -343h196z" />
    <glyph glyph-name="afii10022" unicode="&#x415;" horiz-adv-x="364" 
d="M317 0h-248v712h248v-53h-189v-276h163v-53h-163v-277h189v-53z" />
    <glyph glyph-name="afii10024" unicode="&#x416;" horiz-adv-x="632" 
d="M621 0h-64l-206 371l191 341h66l-193 -338zM349 0h-59v712h59v-712zM288 371l-213 -371h-65l214 374l-200 338h65z" />
    <glyph glyph-name="afii10025" unicode="&#x417;" horiz-adv-x="393" 
d="M340 186c0 -71 -8 -114 -45 -154c-25 -27 -62 -40 -106 -40c-43 0 -76 12 -99 34c-35 33 -48 80 -49 137h59c0 -37 7 -74 29 -96c13 -14 33 -22 60 -22s49 8 63 24c24 27 30 64 30 118c0 72 -10 97 -32 121c-17 17 -36 24 -59 24h-59v51h59c23 0 43 7 58 23
c20 23 29 47 29 119c0 55 -1 89 -27 119c-14 15 -35 23 -62 23s-47 -8 -60 -22c-21 -22 -29 -59 -29 -96h-58c0 55 13 101 44 132c24 24 57 39 103 39c43 0 80 -13 105 -39c39 -41 43 -91 43 -155c0 -75 -11 -101 -31 -129c-12 -15 -27 -28 -46 -38c19 -11 35 -23 47 -37
c22 -27 33 -56 33 -136z" />
    <glyph glyph-name="afii10026" unicode="&#x418;" horiz-adv-x="444" 
d="M127 0h-58v712h59v-555l188 555h59v-712h-59v555z" />
    <glyph glyph-name="afii10027" unicode="&#x419;" horiz-adv-x="444" 
d="M127 0h-58v712h59v-555l188 555h59v-712h-59v555zM336 857c-6 -70 -44 -102 -113 -102s-106 32 -112 102h48c4 -40 26 -61 64 -61c39 0 61 21 65 61h48z" />
    <glyph glyph-name="afii10028" unicode="&#x41a;" horiz-adv-x="423" 
d="M412 0h-68l-215 371l200 341h66l-205 -338zM127 0h-59v712h59v-712z" />
    <glyph glyph-name="afii10029" unicode="&#x41b;" horiz-adv-x="453" 
d="M384 0h-59v659h-142v-323c0 -310 -71 -336 -152 -336h-17v53h8c53 0 105 14 105 296v363h257v-712z" />
    <glyph glyph-name="afii10030" unicode="&#x41c;" horiz-adv-x="557" 
d="M488 0h-59v573l-130 -376h-43l-128 364v-561h-59v712h59l150 -419l151 419h59v-712z" />
    <glyph glyph-name="afii10031" unicode="&#x41d;" horiz-adv-x="432" 
d="M363 0h-59v336h-176v-336h-59v712h59v-323h176v323h59v-712z" />
    <glyph glyph-name="afii10032" unicode="&#x41e;" horiz-adv-x="421" 
d="M367 356c0 -226 -7 -276 -50 -322c-24 -26 -61 -42 -107 -42s-82 16 -106 42c-43 46 -50 96 -50 322s7 276 50 322c24 26 60 42 106 42s83 -16 107 -42c43 -46 50 -96 50 -322zM308 356c0 209 -5 251 -34 285c-14 16 -36 26 -64 26s-49 -10 -63 -26
c-29 -34 -34 -76 -34 -285s5 -251 34 -285c14 -16 35 -26 63 -26s50 10 64 26c29 34 34 76 34 285z" />
    <glyph glyph-name="afii10033" unicode="&#x41f;" horiz-adv-x="432" 
d="M363 0h-59v659h-177v-659h-58v712h294v-712z" />
    <glyph glyph-name="afii10034" unicode="&#x420;" horiz-adv-x="410" 
d="M363 513c0 -167 -70 -198 -154 -198h-81v-315h-59v712h140c84 0 154 -32 154 -199zM304 513c0 120 -40 146 -98 146h-78v-291h78c58 0 98 25 98 145z" />
    <glyph glyph-name="afii10035" unicode="&#x421;" horiz-adv-x="399" 
d="M358 163c-1 -56 -17 -107 -50 -137c-24 -22 -56 -34 -98 -34c-46 0 -82 16 -106 42c-43 46 -50 96 -50 322s7 276 50 322c24 26 60 42 106 42s78 -14 102 -38c31 -31 45 -79 46 -133h-59c0 36 -7 72 -28 94c-14 15 -33 24 -61 24s-49 -10 -63 -26
c-29 -34 -34 -76 -34 -285s5 -251 34 -285c14 -16 35 -26 63 -26s48 10 61 24c21 22 28 59 28 94h59z" />
    <glyph glyph-name="afii10036" unicode="&#x422;" horiz-adv-x="341" 
d="M319 659h-119v-659h-59v659h-119v53h297v-53z" />
    <glyph glyph-name="afii10037" unicode="&#x423;" horiz-adv-x="359" 
d="M355 712l-183 -610c-27 -89 -68 -102 -145 -102v53c54 0 77 12 95 74l30 102l-148 483h64l113 -400l110 400h64z" />
    <glyph glyph-name="afii10038" unicode="&#x424;" horiz-adv-x="515" 
d="M470 379c0 -197 -33 -291 -182 -298v-85h-59v85c-149 7 -183 101 -183 298s34 291 183 298v60h59v-60c149 -7 182 -101 182 -298zM411 379c0 172 -19 240 -123 246v-491c104 5 123 74 123 245zM229 134v491c-103 -6 -124 -74 -124 -246c0 -171 21 -240 124 -245z" />
    <glyph glyph-name="afii10039" unicode="&#x425;" horiz-adv-x="372" 
d="M353 0h-64l-103 308l-102 -308h-65l132 371l-121 341h65l91 -282l92 282h64l-124 -341z" />
    <glyph glyph-name="afii10040" unicode="&#x426;" horiz-adv-x="444" 
d="M415 -141h-57v141h-289v712h59v-659h176v659h59v-659h52v-194z" />
    <glyph glyph-name="afii10041" unicode="&#x427;" horiz-adv-x="425" 
d="M357 0h-59v266c-34 -6 -65 -9 -96 -9c-79 0 -135 33 -135 151v304h59v-298c0 -88 37 -104 84 -104c30 0 58 2 88 8v394h59v-712z" />
    <glyph glyph-name="afii10042" unicode="&#x428;" horiz-adv-x="644" 
d="M576 0h-507v712h59v-659h165v659h59v-659h165v659h59v-712z" />
    <glyph glyph-name="afii10043" unicode="&#x429;" horiz-adv-x="656" 
d="M576 712v-659h52v-194h-57v141h-502v712h59v-659h165v659h59v-659h165v659h59z" />
    <glyph glyph-name="afii10044" unicode="&#x42a;" horiz-adv-x="470" 
d="M22 659v53h167v-315h81c101 0 154 -49 154 -199c0 -167 -69 -198 -154 -198h-140v659h-108zM365 199c0 93 -22 145 -93 145h-83v-291h83c71 0 93 53 93 146z" />
    <glyph glyph-name="afii10045" unicode="&#x42b;" horiz-adv-x="559" 
d="M363 198c0 -167 -69 -198 -154 -198h-140v712h59v-315h81c101 0 154 -49 154 -199zM304 199c0 93 -22 145 -93 145h-83v-291h83c71 0 93 53 93 146zM490 0h-59v712h59v-712z" />
    <glyph glyph-name="afii10046" unicode="&#x42c;" horiz-adv-x="409" 
d="M363 198c0 -167 -69 -198 -154 -198h-140v712h59v-315h81c101 0 154 -49 154 -199zM304 199c0 93 -22 145 -93 145h-83v-291h83c71 0 93 53 93 146z" />
    <glyph glyph-name="afii10047" unicode="&#x42d;" horiz-adv-x="399" 
d="M133 330v53h153c-1 186 -7 225 -34 258c-14 16 -35 26 -63 26s-48 -9 -61 -24c-21 -22 -28 -58 -28 -94h-59c1 54 15 102 46 133c24 24 56 38 102 38s82 -16 106 -42c43 -46 50 -96 50 -322s-7 -276 -50 -322c-24 -26 -60 -42 -106 -42c-42 0 -74 12 -98 34
c-33 30 -49 81 -50 137h59c0 -35 7 -72 28 -94c14 -14 33 -24 61 -24s50 10 63 26c27 33 33 73 34 259h-153z" />
    <glyph glyph-name="afii10048" unicode="&#x42e;" horiz-adv-x="589" 
d="M536 356c0 -226 -7 -276 -50 -322c-24 -26 -61 -42 -107 -42s-82 16 -106 42c-42 44 -50 94 -50 301h-95v-335h-59v712h59v-324h95c1 198 9 246 50 290c24 26 60 42 106 42s83 -16 107 -42c43 -46 50 -96 50 -322zM477 356c0 209 -5 251 -34 285c-14 16 -36 26 -64 26
s-49 -10 -63 -26c-29 -34 -34 -76 -34 -285s5 -251 34 -285c14 -16 35 -26 63 -26s50 10 64 26c29 34 34 76 34 285z" />
    <glyph glyph-name="afii10049" unicode="&#x42f;" horiz-adv-x="398" 
d="M80 0h-63l111 330c-58 22 -88 75 -88 185c0 166 68 197 154 197h140v-712h-59v319h-92zM99 515c0 -92 21 -143 93 -143h83v287h-83c-72 0 -93 -52 -93 -144z" />
    <glyph glyph-name="afii10065" unicode="&#x430;" horiz-adv-x="352" 
d="M294 0h-54v46c-7 -14 -19 -27 -28 -34c-16 -12 -33 -20 -61 -20c-32 0 -59 11 -81 34c-19 20 -33 60 -33 115c0 48 14 89 43 115c25 23 54 34 100 34h58v91c0 56 -23 87 -70 87c-20 0 -35 -8 -46 -19c-16 -17 -23 -37 -23 -71h-56c0 38 8 76 37 105c21 21 51 34 88 34
c40 0 71 -11 91 -32c23 -24 35 -56 35 -106v-379zM238 134v112h-56c-26 0 -45 -6 -62 -22c-17 -17 -27 -48 -27 -82c0 -61 22 -100 71 -100c45 0 74 39 74 92z" />
    <glyph glyph-name="afii10066" unicode="&#x431;" horiz-adv-x="359" 
d="M314 254c0 -120 -7 -185 -38 -222c-22 -26 -54 -40 -94 -40c-41 0 -72 14 -94 40c-31 37 -38 103 -38 222c0 272 4 324 37 377c37 60 106 80 207 83v-51c-77 -2 -130 -12 -157 -54c-24 -38 -28 -82 -32 -146c18 32 50 52 90 52c29 0 57 -11 80 -37c32 -35 39 -97 39 -224
zM258 254c0 109 -3 162 -26 190c-11 13 -28 23 -50 23s-40 -10 -51 -23c-23 -28 -25 -81 -25 -190s2 -162 25 -189c11 -14 29 -23 51 -23s39 9 50 23c23 27 26 80 26 189z" />
    <glyph glyph-name="afii10067" unicode="&#x432;" horiz-adv-x="360" 
d="M261 145c0 70 -31 97 -83 97h-60v-192h60c52 0 83 20 83 95zM255 374c0 66 -29 85 -77 85h-60v-172h60c48 0 77 24 77 87zM317 143c0 -60 -13 -87 -37 -111c-21 -21 -51 -32 -102 -32h-116v509h115c48 0 77 -7 100 -30c25 -23 34 -52 34 -102c0 -38 -10 -70 -35 -92
c-8 -7 -20 -14 -30 -18c12 -4 26 -12 34 -19c30 -24 37 -62 37 -105z" />
    <glyph glyph-name="afii10068" unicode="&#x433;" horiz-adv-x="288" 
d="M273 509v-50h-155v-459h-56v509h211z" />
    <glyph glyph-name="afii10069" unicode="&#x434;" horiz-adv-x="399" 
d="M374 -124h-55v124h-249v-124h-56v174h45c31 77 45 140 45 289v170h226v-459h44v-174zM273 50v409h-115v-125c0 -150 -11 -208 -40 -284h155z" />
    <glyph glyph-name="afii10070" unicode="&#x435;" horiz-adv-x="349" 
d="M309 246h-208c0 -104 3 -155 26 -181c11 -13 29 -23 51 -23c20 0 39 6 52 20c15 16 22 41 22 72h55c0 -49 -11 -80 -37 -107c-23 -24 -55 -35 -92 -35c-39 0 -69 13 -92 37c-33 36 -41 104 -41 225c0 122 7 189 41 226c22 24 52 37 91 37s69 -13 91 -37
c34 -37 41 -104 41 -234zM253 291c-1 88 -6 130 -26 153c-11 13 -27 23 -50 23s-40 -10 -51 -23c-20 -23 -24 -65 -25 -153h152z" />
    <glyph glyph-name="afii10072" unicode="&#x436;" horiz-adv-x="529" 
d="M521 0h-64l-162 264l152 245h63l-155 -242zM293 0h-56v509h56v-509zM235 264l-162 -264h-65l167 267l-155 242h62z" />
    <glyph glyph-name="afii10073" unicode="&#x437;" horiz-adv-x="339" 
d="M296 136c0 -61 -11 -88 -40 -116c-20 -17 -50 -28 -90 -28c-39 0 -67 9 -88 28c-28 25 -41 65 -42 110h56c0 -29 8 -57 25 -73c10 -9 28 -15 49 -15c23 0 38 6 50 16c18 16 24 39 24 80c0 49 -8 67 -25 82c-15 12 -28 16 -52 16h-39v47h39c23 0 38 6 49 17
c16 14 24 33 24 75c0 37 -5 60 -23 77c-11 10 -25 15 -47 15s-40 -7 -51 -17c-17 -17 -23 -43 -23 -71h-56c1 42 13 79 38 104c21 21 51 34 92 34c40 0 65 -7 88 -28c28 -25 38 -58 38 -111c0 -49 -10 -69 -26 -88c-9 -11 -23 -22 -37 -28c14 -6 26 -14 36 -23
c21 -19 31 -43 31 -103z" />
    <glyph glyph-name="afii10074" unicode="&#x438;" horiz-adv-x="391" 
d="M328 0h-56v388l-157 -388h-53v509h56v-388l157 388h53v-509z" />
    <glyph glyph-name="afii10075" unicode="&#x439;" horiz-adv-x="391" 
d="M328 0h-56v388l-157 -388h-53v509h56v-388l157 388h53v-509zM307 684c-5 -71 -43 -103 -112 -103s-107 32 -113 103h48c4 -41 27 -61 65 -61s60 20 64 61h48z" />
    <glyph glyph-name="afii10076" unicode="&#x43a;" horiz-adv-x="358" 
d="M347 0h-64l-163 264l153 245h62l-154 -242zM119 0h-56v509h56v-509z" />
    <glyph glyph-name="afii10077" unicode="&#x43b;" horiz-adv-x="387" 
d="M325 0h-56v459h-112v-262c0 -156 -52 -197 -126 -197h-17v49h9c33 0 78 12 78 162v298h224v-509z" />
    <glyph glyph-name="afii10078" unicode="&#x43c;" horiz-adv-x="475" 
d="M413 0h-56v385l-100 -241h-40l-99 241v-385h-56v509h53l122 -297l123 297h53v-509z" />
    <glyph glyph-name="afii10079" unicode="&#x43d;" horiz-adv-x="374" 
d="M311 0h-56v237h-137v-237h-56v509h56v-222h137v222h56v-509z" />
    <glyph glyph-name="afii10080" unicode="&#x43e;" horiz-adv-x="353" 
d="M309 254c0 -120 -7 -185 -38 -222c-22 -27 -53 -40 -94 -40s-72 13 -94 40c-31 37 -38 102 -38 222s7 185 38 222c22 27 53 41 94 41s72 -14 94 -41c31 -37 38 -102 38 -222zM253 254c0 109 -3 162 -26 190c-11 13 -28 23 -50 23s-40 -10 -51 -23
c-23 -28 -25 -81 -25 -190s2 -161 25 -189c11 -13 29 -23 51 -23s39 10 50 23c23 28 26 80 26 189z" />
    <glyph glyph-name="afii10081" unicode="&#x43f;" horiz-adv-x="374" 
d="M311 0h-56v459h-137v-459h-56v509h249v-509z" />
    <glyph glyph-name="afii10082" unicode="&#x440;" horiz-adv-x="365" 
d="M321 254c0 -127 -7 -190 -38 -226c-21 -24 -44 -36 -79 -36c-24 0 -42 5 -58 16c-9 6 -21 19 -28 30v-241h-56v712h55v-41c5 11 20 25 29 31c16 11 34 18 58 18c31 0 58 -12 79 -36c31 -36 38 -100 38 -227zM265 254c0 115 -3 164 -26 190c-11 13 -28 23 -49 23
c-19 0 -36 -7 -48 -19c-16 -15 -24 -37 -24 -70v-247c0 -33 8 -55 24 -70c12 -12 29 -19 48 -19c21 0 38 9 49 22c23 27 26 75 26 190z" />
    <glyph glyph-name="afii10083" unicode="&#x441;" horiz-adv-x="340" 
d="M303 134c-1 -48 -10 -83 -36 -109c-22 -22 -51 -33 -90 -33s-72 14 -94 40c-31 36 -38 102 -38 222s7 186 38 222c22 27 55 41 94 41s67 -9 90 -32c30 -29 35 -69 36 -111h-55c0 26 -1 52 -20 72c-12 14 -29 21 -50 21c-22 0 -41 -9 -52 -23c-22 -28 -25 -81 -25 -190
s3 -161 25 -189c11 -14 30 -23 52 -23c19 0 36 7 49 20c17 18 21 42 21 72h55z" />
    <glyph glyph-name="afii10084" unicode="&#x442;" horiz-adv-x="288" 
d="M273 459h-101v-459h-56v459h-100v50h257v-50z" />
    <glyph glyph-name="afii10085" unicode="&#x443;" horiz-adv-x="308" 
d="M301 509l-144 -608c-19 -79 -71 -104 -148 -104v50c55 0 82 22 93 65l23 90l-121 507h62l87 -420l87 420h61z" />
    <glyph glyph-name="afii10086" unicode="&#x444;" horiz-adv-x="479" 
d="M435 254c0 -122 -11 -177 -50 -215c-31 -30 -69 -43 -117 -44v-198h-56v198c-50 1 -91 16 -117 44c-40 38 -50 97 -50 215c0 119 10 177 49 216c27 28 68 43 118 44v198h56v-198c51 -1 88 -16 114 -41c43 -41 53 -96 53 -219zM378 254c0 108 -6 156 -37 184
c-16 14 -41 26 -73 26v-419c32 0 57 11 73 26c31 28 37 76 37 183zM212 45v419c-32 0 -58 -12 -73 -26c-31 -28 -38 -76 -38 -184c0 -113 8 -154 38 -183c15 -15 41 -26 73 -26z" />
    <glyph glyph-name="afii10087" unicode="&#x445;" horiz-adv-x="321" 
d="M304 0h-62l-81 210l-82 -210h-62l112 259l-106 250h62l76 -202l75 202h62l-108 -250z" />
    <glyph glyph-name="afii10088" unicode="&#x446;" horiz-adv-x="381" 
d="M356 -124h-53v124h-241v509h56v-459h137v459h56v-459h45v-174z" />
    <glyph glyph-name="afii10089" unicode="&#x447;" horiz-adv-x="339" 
d="M277 0h-56v178c-24 -5 -49 -7 -73 -7c-58 0 -108 26 -108 112v226h56v-219c0 -58 27 -69 59 -69c21 0 43 1 66 6v282h56v-509z" />
    <glyph glyph-name="afii10090" unicode="&#x448;" horiz-adv-x="530" 
d="M467 0h-405v509h56v-459h119v459h56v-459h118v459h56v-509z" />
    <glyph glyph-name="afii10091" unicode="&#x449;" horiz-adv-x="537" 
d="M512 -124h-54v124h-396v509h56v-459h119v459h56v-459h118v459h56v-459h45v-174z" />
    <glyph glyph-name="afii10092" unicode="&#x44a;" horiz-adv-x="390" 
d="M356 147c0 -100 -38 -147 -130 -147h-124v459h-86v50h142v-214h68c92 0 130 -48 130 -148zM299 147c0 69 -24 98 -77 98h-64v-195h64c53 0 77 29 77 97z" />
    <glyph glyph-name="afii10093" unicode="&#x44b;" horiz-adv-x="490" 
d="M62 509h56v-214h68c92 0 130 -48 130 -148s-38 -147 -130 -147h-124v509zM259 147c0 69 -24 98 -77 98h-64v-195h64c53 0 77 29 77 97zM428 0h-56v509h56v-509z" />
    <glyph glyph-name="afii10094" unicode="&#x44c;" horiz-adv-x="350" 
d="M62 509h56v-214h68c92 0 130 -48 130 -148s-38 -147 -130 -147h-124v509zM259 147c0 69 -24 98 -77 98h-64v-195h64c53 0 77 29 77 97z" />
    <glyph glyph-name="afii10095" unicode="&#x44d;" horiz-adv-x="343" 
d="M299 254c0 -119 -7 -185 -38 -221c-22 -27 -56 -41 -95 -41c-36 0 -65 7 -87 27c-28 25 -41 67 -42 110h54c1 -28 9 -56 25 -71c10 -10 29 -16 50 -16c23 0 41 9 52 23c22 25 25 71 25 172h-130v48h130c0 89 -3 134 -25 159c-11 14 -29 23 -52 23c-22 0 -41 -7 -52 -18
c-16 -16 -22 -42 -23 -70h-54c1 42 13 82 38 106c19 18 51 32 91 32c39 0 73 -14 95 -41c31 -36 38 -102 38 -222z" />
    <glyph glyph-name="afii10096" unicode="&#x44e;" horiz-adv-x="502" 
d="M457 254c0 -119 -7 -185 -38 -221c-22 -27 -53 -41 -94 -41s-72 14 -94 41c-28 34 -37 84 -38 203h-75v-236h-56v509h56v-223h75c2 103 11 158 38 190c22 27 53 41 94 41s72 -14 94 -41c31 -36 38 -102 38 -222zM401 254c0 109 -3 162 -26 190c-11 13 -28 23 -50 23
s-39 -10 -50 -23c-23 -28 -26 -81 -26 -190c0 -108 3 -161 26 -189c11 -13 28 -23 50 -23s39 10 50 23c23 28 26 81 26 189z" />
    <glyph glyph-name="afii10097" unicode="&#x44f;" horiz-adv-x="349" 
d="M287 0h-56v219h-68l-75 -219h-59l82 229c-47 22 -67 67 -67 135c0 95 37 145 125 145h118v-509zM231 268v192h-60c-51 0 -71 -30 -71 -96c0 -64 21 -96 71 -96h60z" />
    <glyph glyph-name="uni0450" unicode="&#x450;" horiz-adv-x="349" 
d="M309 246h-208c0 -104 3 -155 26 -181c11 -13 29 -23 51 -23c20 0 39 6 52 20c15 16 22 41 22 72h55c0 -49 -11 -80 -37 -107c-23 -24 -55 -35 -92 -35c-39 0 -69 13 -92 37c-33 36 -41 104 -41 225c0 122 7 189 41 226c22 24 52 37 91 37s69 -13 91 -37
c34 -37 41 -104 41 -234zM253 291c-1 88 -6 130 -26 153c-11 13 -27 23 -50 23s-40 -10 -51 -23c-20 -23 -24 -65 -25 -153h152zM207 586h-49l-75 130h58z" />
    <glyph glyph-name="afii10071" unicode="&#x451;" horiz-adv-x="349" 
d="M309 246h-208c0 -104 3 -155 26 -181c11 -13 29 -23 51 -23c20 0 39 6 52 20c15 16 22 41 22 72h55c0 -49 -11 -80 -37 -107c-23 -24 -55 -35 -92 -35c-39 0 -69 13 -92 37c-33 36 -41 104 -41 225c0 122 7 189 41 226c22 24 52 37 91 37s69 -13 91 -37
c34 -37 41 -104 41 -234zM253 291c-1 88 -6 130 -26 153c-11 13 -27 23 -50 23s-40 -10 -51 -23c-20 -23 -24 -65 -25 -153h152zM277 606h-63v63h63v-63zM140 606h-64v63h64v-63z" />
    <glyph glyph-name="afii10099" unicode="&#x452;" horiz-adv-x="373" 
d="M315 -55c0 -49 -15 -78 -37 -98c-26 -24 -58 -30 -94 -30v50c47 0 75 20 75 78v438c0 55 -31 83 -71 83c-39 0 -70 -28 -70 -83v-383h-56v586h-57v42h57v84h56v-84h147v-42h-147v-116c6 11 18 23 27 29c16 11 35 18 58 18c35 0 60 -13 81 -35c20 -21 31 -49 31 -100v-437
z" />
    <glyph glyph-name="afii10100" unicode="&#x453;" horiz-adv-x="288" 
d="M273 509v-50h-155v-459h-56v509h211zM248 716l-74 -130h-49l65 130h58z" />
    <glyph glyph-name="afii10101" unicode="&#x454;" horiz-adv-x="343" 
d="M45 254c0 120 7 186 38 222c22 27 56 41 95 41c40 0 72 -14 91 -32c25 -24 37 -64 38 -106h-54c-1 28 -7 54 -23 70c-11 11 -30 18 -52 18c-23 0 -41 -9 -52 -23c-22 -25 -25 -70 -25 -159h130v-48h-130c0 -101 3 -147 25 -172c11 -14 29 -23 52 -23c21 0 40 6 50 16
c16 15 24 43 25 71h54c-1 -43 -14 -85 -42 -110c-22 -20 -51 -27 -87 -27c-39 0 -73 14 -95 41c-31 36 -38 102 -38 221z" />
    <glyph glyph-name="afii10102" unicode="&#x455;" horiz-adv-x="336" 
d="M303 130c0 -40 -16 -75 -40 -99c-25 -25 -58 -39 -97 -39s-70 13 -93 36c-29 30 -40 67 -40 110h56c0 -32 7 -56 26 -75c14 -14 32 -21 51 -21c24 0 43 8 58 23s23 37 23 63c0 21 -4 39 -14 55c-11 17 -27 31 -51 44l-64 35c-32 18 -55 41 -66 60c-10 19 -14 39 -14 64
c0 39 16 72 40 96c23 23 55 35 91 35c38 0 68 -11 91 -34c25 -25 37 -61 37 -110h-56c0 38 -6 57 -22 74c-14 15 -32 20 -50 20c-22 0 -40 -6 -53 -19c-16 -15 -22 -39 -22 -60c0 -17 3 -32 10 -44c7 -13 24 -25 47 -38l63 -36c33 -18 55 -37 69 -60s20 -51 20 -80z" />
    <glyph glyph-name="afii10103" unicode="&#x456;" horiz-adv-x="181" 
d="M118 0h-56v509h56v-509zM126 626h-72v72h72v-72z" />
    <glyph glyph-name="afii10104" unicode="&#x457;" horiz-adv-x="181" 
d="M119 0h-56v509h56v-509zM191 606h-63v63h63v-63zM54 606h-64v63h64v-63z" />
    <glyph glyph-name="afii10105" unicode="&#x458;" horiz-adv-x="181" 
d="M118 -68c0 -51 -14 -81 -38 -103c-28 -26 -63 -32 -101 -32v50c51 0 83 22 83 86v576h56v-577zM126 626h-72v72h72v-72z" />
    <glyph glyph-name="afii10106" unicode="&#x459;" horiz-adv-x="556" 
d="M523 147c0 -100 -38 -147 -131 -147h-123v459h-112v-262c0 -156 -52 -197 -126 -197h-17v48h9c33 0 78 12 78 163v298h224v-214h67c93 0 131 -48 131 -148zM466 147c0 69 -25 98 -77 98h-64v-195h64c52 0 77 28 77 97z" />
    <glyph glyph-name="afii10107" unicode="&#x45a;" horiz-adv-x="543" 
d="M509 147c0 -100 -38 -147 -130 -147h-124v246h-137v-246h-56v509h56v-215h137v215h56v-215h68c92 0 130 -47 130 -147zM453 147c0 69 -25 99 -78 99h-64v-196h64c53 0 78 29 78 97z" />
    <glyph glyph-name="afii10108" unicode="&#x45b;" horiz-adv-x="373" 
d="M315 0h-56v383c0 55 -31 83 -70 83s-71 -28 -71 -83v-383h-56v586h-57v42h57v84h56v-84h147v-42h-147v-116c6 11 19 23 28 29c16 11 35 18 58 18c35 0 60 -13 81 -35c20 -21 30 -49 30 -100v-382z" />
    <glyph glyph-name="afii10109" unicode="&#x45c;" horiz-adv-x="358" 
d="M347 0h-64l-163 264l153 245h62l-154 -242zM119 0h-56v509h56v-509zM278 716l-74 -130h-49l65 130h58z" />
    <glyph glyph-name="uni045D" unicode="&#x45d;" horiz-adv-x="391" 
d="M328 0h-56v388l-157 -388h-53v509h56v-388l157 388h53v-509zM222 586h-49l-75 130h58z" />
    <glyph glyph-name="afii10110" unicode="&#x45e;" horiz-adv-x="308" 
d="M301 509l-144 -608c-19 -79 -71 -104 -148 -104v50c55 0 82 22 93 65l23 90l-121 507h62l87 -420l87 420h61zM266 684c-5 -71 -43 -103 -112 -103s-107 32 -113 103h48c4 -41 27 -61 65 -61s60 20 64 61h48z" />
    <glyph glyph-name="afii10193" unicode="&#x45f;" horiz-adv-x="374" 
d="M311 0h-97v-124h-54v124h-98v509h56v-459h137v459h56v-509z" />
    <glyph glyph-name="afii10146" unicode="&#x462;" horiz-adv-x="412" 
d="M366 198c0 -167 -69 -198 -154 -198h-140v556h-52v49h52v107h59v-107h92v-49h-92v-159h81c101 0 154 -49 154 -199zM307 199c0 93 -22 145 -93 145h-83v-291h83c71 0 93 53 93 146z" />
    <glyph glyph-name="afii10194" unicode="&#x463;" horiz-adv-x="362" 
d="M220 393h-90v-98h68c92 0 130 -48 130 -148s-38 -147 -130 -147h-124v393h-58v42h58v74h56v-74h90v-42zM271 147c0 69 -24 98 -77 98h-64v-195h64c53 0 77 29 77 97z" />
    <glyph glyph-name="afii10147" unicode="&#x472;" horiz-adv-x="421" 
d="M367 356c0 -218 -5 -274 -50 -322c-24 -26 -61 -42 -107 -42s-82 16 -106 42c-45 48 -50 104 -50 322s5 274 50 322c24 26 60 42 106 42s83 -16 107 -42c45 -48 50 -104 50 -322zM274 71c27 33 33 73 34 259h-195c0 -186 6 -226 34 -259c14 -16 34 -26 63 -26
s50 10 64 26zM147 641c-28 -34 -34 -74 -34 -258h195c-1 184 -7 224 -34 258c-14 16 -35 26 -64 26s-49 -10 -63 -26z" />
    <glyph glyph-name="afii10195" unicode="&#x473;" horiz-adv-x="353" 
d="M309 254c0 -120 -7 -185 -38 -222c-22 -27 -53 -40 -94 -40s-72 13 -94 40c-31 37 -38 102 -38 222s7 185 38 222c22 27 53 41 94 41s72 -14 94 -41c31 -37 38 -102 38 -222zM227 65c22 27 26 77 26 181h-152c0 -103 2 -154 25 -181c11 -13 29 -23 51 -23s39 10 50 23z
M126 444c-20 -25 -25 -69 -25 -153h152c-1 84 -6 128 -26 153c-11 13 -28 23 -50 23s-40 -10 -51 -23z" />
    <glyph glyph-name="afii10148" unicode="&#x474;" horiz-adv-x="438" 
d="M185 106l96 504c15 80 60 102 145 102v-53c-52 0 -76 -22 -87 -74l-125 -585h-58l-152 712h65z" />
    <glyph glyph-name="afii10196" unicode="&#x475;" horiz-adv-x="381" 
d="M274 394l-92 -394h-59l-119 509h62l87 -421l65 317c16 78 71 104 148 104v-50c-54 0 -82 -22 -92 -65z" />
    <glyph glyph-name="afii10050" unicode="&#x490;" horiz-adv-x="337" 
d="M312 659h-184v-659h-59v712h186v89h57v-142z" />
    <glyph glyph-name="afii10098" unicode="&#x491;" horiz-adv-x="288" 
d="M273 459h-155v-459h-56v509h157v117h54v-167z" />
    <glyph glyph-name="uni0492" unicode="&#x492;" horiz-adv-x="341" 
d="M316 659h-184v-278h91v-49h-91v-332h-59v332h-53v49h53v331h243v-53z" />
    <glyph glyph-name="uni0493" unicode="&#x493;" horiz-adv-x="300" 
d="M285 459h-155v-132h90v-42h-90v-285h-56v285h-58v42h58v182h211v-50z" />
    <glyph glyph-name="uni0496" unicode="&#x496;" horiz-adv-x="632" 
d="M608 712l-193 -338l178 -324h28v-174h-54v124h-10l-206 371l191 341h66zM288 371l-213 -371h-65l214 374l-200 338h65zM349 0h-59v712h59v-712z" />
    <glyph glyph-name="uni0497" unicode="&#x497;" horiz-adv-x="529" 
d="M510 509l-155 -242l135 -217h31v-174h-54v124h-10l-162 264l152 245h63zM235 264l-162 -264h-65l167 267l-155 242h62zM293 0h-56v509h56v-509z" />
    <glyph glyph-name="uni049A" unicode="&#x49a;" horiz-adv-x="423" 
d="M395 712l-205 -338l192 -324h30v-174h-54v124h-14l-215 371l200 341h66zM127 0h-59v712h59v-712z" />
    <glyph glyph-name="uni049B" unicode="&#x49b;" horiz-adv-x="358" 
d="M335 509l-154 -242l135 -217h31v-174h-54v124h-10l-163 264l153 245h62zM119 0h-56v509h56v-509z" />
    <glyph glyph-name="uni049C" unicode="&#x49c;" horiz-adv-x="479" 
d="M468 0h-69l-164 346h-25v-107h-48v107h-34v-346h-59v712h59v-313h34v107h48v-107h27l147 313h66l-164 -338z" />
    <glyph glyph-name="uni049D" unicode="&#x49d;" horiz-adv-x="410" 
d="M399 0h-64l-120 240h-24v-109h-43v109h-30v-240h-56v509h56v-221h30v109h43v-109h24l110 221h62l-123 -242z" />
    <glyph glyph-name="uni04A2" unicode="&#x4a2;" horiz-adv-x="432" 
d="M363 712v-662h24v-174h-54v124h-29v336h-176v-336h-59v712h59v-323h176v323h59z" />
    <glyph glyph-name="uni04A3" unicode="&#x4a3;" horiz-adv-x="374" 
d="M311 509v-459h26v-174h-54v124h-28v237h-137v-237h-56v509h56v-222h137v222h56z" />
    <glyph glyph-name="uni04AE" unicode="&#x4ae;" horiz-adv-x="315" 
d="M312 712l-125 -414v-298h-59v298l-125 414h65l89 -326l90 326h65z" />
    <glyph glyph-name="uni04AF" unicode="&#x4af;" horiz-adv-x="308" 
d="M301 509l-120 -506v-206h-56v205l-121 507h62l87 -420l87 420h61z" />
    <glyph glyph-name="uni04B0" unicode="&#x4b0;" horiz-adv-x="315" 
d="M312 712l-125 -414h72v-49h-72v-249h-59v249h-72v49h72l-125 414h65l89 -326l90 326h65z" />
    <glyph glyph-name="uni04B1" unicode="&#x4b1;" horiz-adv-x="308" 
d="M301 509l-120 -506h74v-42h-74v-164h-56v164h-74v42h74l-121 506h62l87 -420l87 420h61z" />
    <glyph glyph-name="uni04B2" unicode="&#x4b2;" horiz-adv-x="372" 
d="M342 712l-124 -341l117 -321h18v-174h-54v124h-10l-103 308l-102 -308h-65l132 371l-121 341h65l91 -282l92 282h64z" />
    <glyph glyph-name="uni04B3" unicode="&#x4b3;" horiz-adv-x="321" 
d="M298 509l-108 -250l92 -209h22v-174h-54v124h-8l-81 209l-82 -209h-62l112 259l-106 250h62l76 -202l75 202h62z" />
    <glyph glyph-name="uni04B6" unicode="&#x4b6;" horiz-adv-x="425" 
d="M357 712v-662h24v-174h-54v124h-29v266c-34 -6 -65 -9 -96 -9c-79 0 -135 33 -135 151v304h59v-298c0 -88 37 -104 84 -104c30 0 58 2 88 8v394h59z" />
    <glyph glyph-name="uni04B7" unicode="&#x4b7;" horiz-adv-x="339" 
d="M277 509v-459h26v-174h-54v124h-28v178c-24 -5 -49 -7 -73 -7c-58 0 -108 26 -108 112v226h56v-219c0 -58 27 -69 59 -69c21 0 43 1 66 6v282h56z" />
    <glyph glyph-name="uni04B8" unicode="&#x4b8;" horiz-adv-x="434" 
d="M241 150h-48v107c-76 5 -126 41 -126 151v304h59v-298c0 -73 27 -96 67 -102v105h48v-107c22 1 43 4 66 8v394h59v-712h-59v266c-23 -4 -45 -7 -66 -8v-108z" />
    <glyph glyph-name="uni04B9" unicode="&#x4b9;" horiz-adv-x="346" 
d="M184 62h-43v109c-58 4 -101 32 -101 112v226h56v-219c0 -46 18 -64 45 -69v108h43v-109c14 1 28 3 44 7v282h56v-509h-56v178c-15 -3 -30 -5 -44 -6v-110z" />
    <glyph glyph-name="uni04BA" unicode="&#x4ba;" horiz-adv-x="425" 
d="M68 712h59v-266c34 6 65 9 96 9c79 0 135 -33 135 -151v-304h-59v298c0 88 -37 104 -84 104c-30 0 -58 -2 -88 -8v-394h-59v712z" />
    <glyph glyph-name="uni04BB" unicode="&#x4bb;" horiz-adv-x="339" 
d="M62 509h56v-178c24 5 49 7 73 7c58 0 108 -26 108 -112v-226h-56v219c0 58 -27 69 -59 69c-21 0 -43 -1 -66 -6v-282h-56v509z" />
    <glyph glyph-name="uni04C0" unicode="&#x4c0;" horiz-adv-x="197" 
d="M128 0h-59v712h59v-712z" />
    <glyph glyph-name="uni04CF" unicode="&#x4cf;" horiz-adv-x="170" 
d="M113 0h-56v712h56v-712z" />
    <glyph glyph-name="uni04D8" unicode="&#x4d8;" horiz-adv-x="412" 
d="M54 152v225h245c-1 190 -6 230 -34 264c-14 16 -34 26 -63 26c-72 0 -89 -61 -89 -118h-59c0 54 15 101 45 132c24 24 57 39 103 39s82 -16 106 -42c45 -48 50 -104 50 -322s-5 -274 -50 -322c-24 -26 -60 -42 -106 -42c-79 0 -148 54 -148 160zM113 327v-175
c0 -67 38 -107 89 -107c29 0 49 10 63 26c27 33 33 73 34 256h-186z" />
    <glyph glyph-name="afii10846" unicode="&#x4d9;" horiz-adv-x="349" 
d="M45 263h208c0 104 -3 155 -26 181c-11 13 -29 23 -51 23c-20 0 -39 -6 -52 -20c-15 -16 -22 -41 -22 -72h-55c0 49 11 80 37 107c23 24 55 35 92 35c39 0 69 -13 92 -37c33 -36 41 -104 41 -225c0 -122 -7 -189 -41 -226c-22 -24 -52 -37 -91 -37s-69 13 -91 37
c-34 37 -41 104 -41 234zM101 218c1 -88 6 -130 26 -153c11 -13 27 -23 50 -23s40 10 51 23c20 23 24 65 25 153h-152z" />
    <glyph glyph-name="uni04E2" unicode="&#x4e2;" horiz-adv-x="444" 
d="M127 0h-58v712h59v-555l188 555h59v-712h-59v555zM329 785h-212v45h212v-45z" />
    <glyph glyph-name="uni04E3" unicode="&#x4e3;" horiz-adv-x="391" 
d="M328 0h-56v388l-157 -388h-53v509h56v-388l157 388h53v-509zM301 611h-212v45h212v-45z" />
    <glyph glyph-name="uni04E8" unicode="&#x4e8;" horiz-adv-x="421" 
d="M367 356c0 -218 -5 -274 -50 -322c-24 -26 -61 -42 -107 -42s-82 16 -106 42c-45 48 -50 104 -50 322s5 274 50 322c24 26 60 42 106 42s83 -16 107 -42c45 -48 50 -104 50 -322zM274 71c27 33 33 73 34 259h-195c0 -186 6 -226 34 -259c14 -16 34 -26 63 -26
s50 10 64 26zM147 641c-28 -34 -34 -74 -34 -258h195c-1 184 -7 224 -34 258c-14 16 -35 26 -64 26s-49 -10 -63 -26z" />
    <glyph glyph-name="uni04E9" unicode="&#x4e9;" horiz-adv-x="353" 
d="M309 254c0 -120 -7 -185 -38 -222c-22 -27 -53 -40 -94 -40s-72 13 -94 40c-31 37 -38 102 -38 222s7 185 38 222c22 27 53 41 94 41s72 -14 94 -41c31 -37 38 -102 38 -222zM227 65c22 27 26 77 26 181h-152c0 -103 2 -154 25 -181c11 -13 29 -23 51 -23s39 10 50 23z
M126 444c-20 -25 -25 -69 -25 -153h152c-1 84 -6 128 -26 153c-11 13 -28 23 -50 23s-40 -10 -51 -23z" />
    <glyph glyph-name="uni04EE" unicode="&#x4ee;" horiz-adv-x="359" 
d="M355 712l-183 -610c-27 -89 -68 -102 -145 -102v53c54 0 77 12 95 74l30 102l-148 483h64l113 -400l110 400h64zM288 785h-212v45h212v-45z" />
    <glyph glyph-name="uni04EF" unicode="&#x4ef;" horiz-adv-x="308" 
d="M301 509l-144 -608c-19 -79 -71 -104 -148 -104v50c55 0 82 22 93 65l23 90l-121 507h62l87 -420l87 420h61zM259 611h-212v45h212v-45z" />
    <glyph glyph-name="Wgrave" unicode="&#x1e80;" horiz-adv-x="587" 
d="M583 712l-108 -712h-62l-119 607l-118 -607h-62l-110 712h65l76 -606l115 606h67l117 -606l75 606h64zM321 764h-49l-75 130h59z" />
    <glyph glyph-name="wgrave" unicode="&#x1e81;" horiz-adv-x="474" 
d="M470 509l-99 -509h-60l-77 416l-73 -416h-60l-97 509h65l63 -421l74 421h56l78 -421l65 421h65zM264 586h-49l-75 130h58z" />
    <glyph glyph-name="Wacute" unicode="&#x1e82;" horiz-adv-x="587" 
d="M583 712l-108 -712h-62l-119 607l-118 -607h-62l-110 712h65l76 -606l115 606h67l117 -606l75 606h64zM390 894l-75 -130h-49l65 130h59z" />
    <glyph glyph-name="wacute" unicode="&#x1e83;" horiz-adv-x="474" 
d="M470 509l-99 -509h-60l-77 416l-73 -416h-60l-97 509h65l63 -421l74 421h56l78 -421l65 421h65zM333 716l-74 -130h-49l65 130h58z" />
    <glyph glyph-name="Wdieresis" unicode="&#x1e84;" horiz-adv-x="587" 
d="M583 712l-108 -712h-62l-119 607l-118 -607h-62l-110 712h65l76 -606l115 606h67l117 -606l75 606h64zM394 784h-63v63h63v-63zM256 784h-63v63h63v-63z" />
    <glyph glyph-name="wdieresis" unicode="&#x1e85;" horiz-adv-x="474" 
d="M470 509l-99 -509h-60l-77 416l-73 -416h-60l-97 509h65l63 -421l74 421h56l78 -421l65 421h65zM335 606h-63v63h63v-63zM198 606h-64v63h64v-63z" />
    <glyph glyph-name="uni1E8A" unicode="&#x1e8a;" horiz-adv-x="372" 
d="M353 0h-64l-103 308l-102 -308h-65l132 371l-121 341h65l91 -282l92 282h64l-124 -341zM218 784h-63v63h63v-63z" />
    <glyph glyph-name="uni1E8B" unicode="&#x1e8b;" horiz-adv-x="321" 
d="M304 0h-62l-81 210l-82 -210h-62l112 259l-106 250h62l76 -202l75 202h62l-108 -250zM193 610h-63v63h63v-63z" />
    <glyph glyph-name="Ygrave" unicode="&#x1ef2;" horiz-adv-x="315" 
d="M312 712l-125 -414v-298h-59v298l-125 414h65l89 -326l90 326h65zM185 764h-49l-75 130h59z" />
    <glyph glyph-name="ygrave" unicode="&#x1ef3;" horiz-adv-x="308" 
d="M301 509l-144 -608c-19 -79 -71 -104 -148 -104v50c55 0 82 22 93 65l23 90l-121 507h62l87 -420l87 420h61zM182 586h-49l-75 130h58z" />
    <glyph glyph-name="uni2007" unicode="&#x2007;" horiz-adv-x="361" 
 />
    <glyph glyph-name="uni2008" unicode="&#x2008;" horiz-adv-x="199" 
 />
    <glyph glyph-name="uni200B" unicode="&#x200b;" horiz-adv-x="0" 
 />
    <glyph glyph-name="uniFEFF" unicode="&#xfeff;" horiz-adv-x="0" 
 />
    <glyph glyph-name="endash" unicode="&#x2013;" horiz-adv-x="432" 
d="M383 250h-335v54h335v-54z" />
    <glyph glyph-name="emdash" unicode="&#x2014;" horiz-adv-x="671" 
d="M616 250h-561v54h561v-54z" />
    <glyph glyph-name="afii00208" unicode="&#x2015;" horiz-adv-x="670" 
d="M616 250h-561v54h561v-54z" />
    <glyph glyph-name="quoteleft" unicode="&#x2018;" horiz-adv-x="184" 
d="M127 620h-69v92l69 51v-143z" />
    <glyph glyph-name="quoteright" unicode="&#x2019;" horiz-adv-x="184" 
d="M127 620l-69 -50v142h69v-92z" />
    <glyph glyph-name="quotesinglbase" unicode="&#x201a;" horiz-adv-x="184" 
d="M127 0l-69 -51v143h69v-92z" />
    <glyph glyph-name="quotedblleft" unicode="&#x201c;" horiz-adv-x="329" 
d="M271 620h-69v92l69 51v-143zM127 620h-69v92l69 51v-143z" />
    <glyph glyph-name="quotedblright" unicode="&#x201d;" horiz-adv-x="329" 
d="M271 620l-69 -50v142h69v-92zM127 620l-69 -50v142h69v-92z" />
    <glyph glyph-name="quotedblbase" unicode="&#x201e;" horiz-adv-x="329" 
d="M271 -16l-69 -51v143h69v-92zM127 -16l-69 -51v143h69v-92z" />
    <glyph glyph-name="dagger" unicode="&#x2020;" horiz-adv-x="437" 
d="M388 460h-143v-460h-54v460h-143v49h143v203h54v-203h143v-49z" />
    <glyph glyph-name="daggerdbl" unicode="&#x2021;" horiz-adv-x="437" 
d="M388 0h-143v-203h-54v203h-143v49h143v411h-143v49h143v203h54v-203h143v-49h-143v-411h143v-49z" />
    <glyph glyph-name="bullet" unicode="&#x2022;" horiz-adv-x="464" 
d="M395 334c0 -90 -73 -163 -163 -163s-163 73 -163 163s73 163 163 163s163 -73 163 -163z" />
    <glyph glyph-name="ellipsis" unicode="&#x2026;" horiz-adv-x="549" 
d="M487 0h-75v75h75v-75zM137 0h-75v75h75v-75zM312 0h-75v75h75v-75z" />
    <glyph glyph-name="perthousand" unicode="&#x2030;" horiz-adv-x="890" 
d="M252 446c0 -61 -42 -100 -99 -100s-98 39 -98 100v175c0 61 41 99 98 99s99 -38 99 -99v-175zM835 92c0 -61 -42 -100 -99 -100s-98 39 -98 100v174c0 61 41 100 98 100s99 -39 99 -100v-174zM562 92c0 -61 -41 -100 -98 -100s-98 39 -98 100v174c0 61 41 100 98 100
s98 -39 98 -100v-174zM456 712l-248 -712h-47l248 712h47zM514 92v174c0 35 -18 57 -50 57s-50 -22 -50 -57v-174c0 -35 18 -57 50 -57s50 22 50 57zM786 92v174c0 35 -18 57 -50 57s-49 -22 -49 -57v-174c0 -35 17 -57 49 -57s50 22 50 57zM203 446v174c0 35 -18 57 -50 57
s-49 -22 -49 -57v-174c0 -35 17 -57 49 -57s50 22 50 57z" />
    <glyph glyph-name="guilsinglleft" unicode="&#x2039;" horiz-adv-x="219" 
d="M164 58l-136 210l136 210v-96l-75 -114l75 -115v-95z" />
    <glyph glyph-name="guilsinglright" unicode="&#x203a;" horiz-adv-x="219" 
d="M191 268l-136 -210v95l75 115l-75 114v96z" />
    <glyph glyph-name="fraction" unicode="&#x2044;" horiz-adv-x="154" 
d="M224 712l-247 -712h-47l247 712h47z" />
    <glyph glyph-name="uni2070" unicode="&#x2070;" horiz-adv-x="278" 
d="M237 369c0 -31 -10 -51 -26 -66c-17 -15 -46 -23 -72 -23s-56 9 -71 23c-17 15 -27 35 -27 66v259c0 32 10 52 27 66c15 14 41 23 71 23s55 -9 72 -23c16 -14 26 -34 26 -66v-259zM194 367v263c0 33 -23 49 -55 49s-54 -16 -54 -49v-263c0 -33 22 -49 54 -49s55 16 55 49
z" />
    <glyph glyph-name="uni2074" unicode="&#x2074;" 
d="M251 349h-32v-64h-43v64h-148v38l125 325h43l-124 -325h104v103h43v-103h32v-38z" />
    <glyph glyph-name="uni2075" unicode="&#x2075;" 
d="M235 422c0 -67 -7 -95 -29 -117c-15 -15 -41 -25 -67 -25s-49 8 -65 22c-17 15 -25 34 -25 66v25h44v-25c0 -33 22 -50 46 -50c19 0 31 7 38 15c11 13 15 32 15 89c0 56 -4 75 -15 88c-7 8 -17 14 -37 14c-25 0 -45 -18 -45 -45v-16h-44v249h178v-38h-135v-138
c6 7 13 14 23 19c11 6 23 9 36 9c27 0 45 -10 59 -24c17 -18 23 -46 23 -118z" />
    <glyph glyph-name="uni2076" unicode="&#x2076;" 
d="M232 412c0 -59 -6 -82 -24 -103c-15 -19 -41 -29 -71 -29c-31 0 -56 11 -70 29c-19 23 -24 46 -24 103c0 45 6 79 18 109l77 191h46l-74 -180c10 7 22 11 38 11c25 0 45 -7 59 -23c18 -19 25 -38 25 -108zM189 413c0 53 -5 74 -18 85c-7 5 -18 10 -33 10
c-16 0 -27 -5 -34 -10c-13 -11 -18 -32 -18 -85s5 -74 18 -85c7 -5 18 -10 34 -10c15 0 26 5 33 10c13 11 18 32 18 85z" />
    <glyph glyph-name="uni2077" unicode="&#x2077;" 
d="M236 674l-101 -389h-46l101 389h-109v-71h-43v109h198v-38z" />
    <glyph glyph-name="uni2078" unicode="&#x2078;" 
d="M233 404c0 -53 -6 -79 -29 -100c-16 -15 -40 -24 -66 -24s-52 9 -67 24c-24 21 -28 47 -28 100c0 49 3 65 15 83c7 10 17 17 28 24c-11 6 -21 14 -27 24c-10 17 -12 34 -12 70c0 47 6 71 27 90c16 15 38 22 64 22c25 0 48 -7 64 -22c22 -19 28 -43 28 -90
c0 -36 -4 -53 -14 -70c-6 -10 -15 -18 -25 -24c11 -7 22 -14 29 -24c12 -18 13 -34 13 -83zM190 404c0 46 -4 62 -16 74c-8 8 -20 13 -36 13s-29 -5 -37 -13c-12 -12 -15 -27 -15 -74s3 -61 15 -73c8 -8 21 -13 37 -13s28 5 36 13c12 12 16 26 16 73zM187 605
c0 38 -6 53 -16 63c-6 7 -18 11 -33 11s-26 -4 -33 -11c-10 -10 -15 -25 -15 -63s5 -54 15 -64c7 -7 18 -11 33 -11s27 4 33 11c10 10 16 26 16 64z" />
    <glyph glyph-name="uni2079" unicode="&#x2079;" 
d="M232 585c0 -45 -6 -79 -18 -109l-77 -191h-47l75 180c-10 -7 -22 -11 -38 -11c-25 0 -45 7 -59 23c-18 19 -25 38 -25 108c0 59 6 82 23 103c16 19 41 29 71 29c32 0 56 -10 71 -29c19 -23 24 -46 24 -103zM189 584c0 53 -5 74 -19 85c-6 5 -18 10 -33 10s-27 -5 -33 -10
c-13 -11 -18 -32 -18 -85s5 -74 18 -85c6 -5 18 -10 33 -10s27 5 33 10c14 11 19 32 19 85z" />
    <glyph glyph-name="uni2080" unicode="&#x2080;" horiz-adv-x="278" 
d="M237 -66c0 -31 -10 -51 -26 -66c-17 -15 -46 -23 -72 -23s-56 9 -71 23c-17 15 -27 35 -27 66v259c0 32 10 52 27 66c15 14 41 23 71 23s55 -9 72 -23c16 -14 26 -34 26 -66v-259zM194 -68v263c0 33 -23 49 -55 49s-54 -16 -54 -49v-263c0 -33 22 -49 54 -49s55 16 55 49
z" />
    <glyph glyph-name="uni2081" unicode="&#x2081;" 
d="M174 -150h-43v379l-69 -47v47l69 48h43v-427z" />
    <glyph glyph-name="uni2082" unicode="&#x2082;" 
d="M242 -150h-204v37l137 218c16 26 24 46 24 79c0 36 -24 60 -60 60c-41 0 -59 -26 -59 -69v-18h-43v17c0 39 7 62 27 81c18 17 43 27 75 27c33 0 53 -8 73 -24s30 -42 30 -74c0 -35 -9 -64 -30 -98l-124 -198h154v-38z" />
    <glyph glyph-name="uni2083" unicode="&#x2083;" 
d="M245 -36c0 -49 -7 -71 -30 -93c-16 -16 -45 -26 -75 -26c-31 0 -58 9 -77 27c-16 17 -25 36 -25 85v13h43v-13c0 -34 5 -48 18 -59c10 -10 24 -15 41 -15s32 5 42 15c12 12 20 29 20 67c0 41 -7 56 -17 68c-12 14 -26 19 -45 19h-29v38h29c17 0 29 5 40 14
c18 17 19 42 19 68c0 25 -5 46 -19 58c-9 10 -22 14 -40 14c-17 0 -31 -4 -42 -15s-16 -30 -16 -54v-13h-43v12c0 42 8 65 25 81c19 17 42 27 76 27c35 0 58 -11 74 -26c20 -19 28 -48 28 -84c0 -34 -5 -55 -18 -72c-10 -13 -23 -23 -39 -29c17 -5 32 -16 42 -31
c12 -17 18 -37 18 -76z" />
    <glyph glyph-name="uni2084" unicode="&#x2084;" 
d="M251 -86h-32v-64h-43v64h-148v38l125 325h43l-124 -325h104v103h43v-103h32v-38z" />
    <glyph glyph-name="uni2085" unicode="&#x2085;" 
d="M235 -13c0 -67 -7 -95 -29 -117c-15 -15 -41 -25 -67 -25s-49 8 -65 22c-17 15 -25 34 -25 66v25h44v-25c0 -33 22 -50 46 -50c19 0 31 7 38 15c11 13 15 32 15 89c0 56 -4 75 -15 88c-7 8 -17 14 -37 14c-25 0 -45 -18 -45 -45v-16h-44v249h178v-38h-135v-138
c6 7 13 14 23 19c11 6 23 9 36 9c27 0 45 -10 59 -24c17 -18 23 -46 23 -118z" />
    <glyph glyph-name="uni2086" unicode="&#x2086;" 
d="M232 -23c0 -59 -6 -82 -24 -103c-15 -19 -41 -29 -71 -29c-31 0 -56 11 -70 29c-19 23 -24 46 -24 103c0 45 6 79 18 109l77 191h46l-74 -180c10 7 22 11 38 11c25 0 45 -7 59 -23c18 -19 25 -38 25 -108zM189 -22c0 53 -5 74 -18 85c-7 5 -18 10 -33 10
c-16 0 -27 -5 -34 -10c-13 -11 -18 -32 -18 -85s5 -74 18 -85c7 -5 18 -10 34 -10c15 0 26 5 33 10c13 11 18 32 18 85z" />
    <glyph glyph-name="uni2087" unicode="&#x2087;" 
d="M236 239l-101 -389h-46l101 389h-109v-71h-43v109h198v-38z" />
    <glyph glyph-name="uni2088" unicode="&#x2088;" 
d="M233 -31c0 -53 -6 -79 -29 -100c-16 -15 -40 -24 -66 -24s-52 9 -67 24c-24 21 -28 47 -28 100c0 49 3 65 15 83c7 10 17 17 28 24c-11 6 -21 14 -27 24c-10 17 -12 34 -12 70c0 47 6 71 27 90c16 15 38 22 64 22c25 0 48 -7 64 -22c22 -19 28 -43 28 -90
c0 -36 -4 -53 -14 -70c-6 -10 -15 -18 -25 -24c11 -7 22 -14 29 -24c12 -18 13 -34 13 -83zM190 -31c0 46 -4 62 -16 74c-8 8 -20 13 -36 13s-29 -5 -37 -13c-12 -12 -15 -27 -15 -74s3 -61 15 -73c8 -8 21 -13 37 -13s28 5 36 13c12 12 16 26 16 73zM187 170
c0 38 -6 53 -16 63c-6 7 -18 11 -33 11s-26 -4 -33 -11c-10 -10 -15 -25 -15 -63s5 -54 15 -64c7 -7 18 -11 33 -11s27 4 33 11c10 10 16 26 16 64z" />
    <glyph glyph-name="uni2089" unicode="&#x2089;" 
d="M232 150c0 -45 -6 -79 -18 -109l-77 -191h-47l75 180c-10 -7 -22 -11 -38 -11c-25 0 -45 7 -59 23c-18 19 -25 38 -25 108c0 59 6 82 23 103c16 19 41 29 71 29c32 0 56 -10 71 -29c19 -23 24 -46 24 -103zM189 149c0 53 -5 74 -19 85c-6 5 -18 10 -33 10s-27 -5 -33 -10
c-13 -11 -18 -32 -18 -85s5 -74 18 -85c6 -5 18 -10 33 -10s27 5 33 10c14 11 19 32 19 85z" />
    <glyph glyph-name="Euro" unicode="&#x20ac;" horiz-adv-x="448" 
d="M402 163c-1 -57 -16 -106 -50 -137c-24 -21 -56 -34 -98 -34c-46 0 -82 16 -106 42c-36 38 -48 78 -50 228h-63v44h63v100h-63v44h63c2 150 14 190 50 228c24 26 60 42 106 42c45 0 78 -14 102 -38c31 -31 44 -79 45 -133h-59c0 59 -17 118 -88 118
c-29 0 -50 -10 -64 -26c-24 -28 -30 -55 -32 -191h133v-44h-134v-100h134v-44h-133c2 -136 9 -163 33 -191c14 -16 34 -26 63 -26c71 0 89 59 89 118h59z" />
    <glyph glyph-name="uni20B4" unicode="&#x20b4;" horiz-adv-x="396" 
d="M45 262h-28v44h40c13 32 36 54 76 70l73 30h-189v44h253c12 20 16 47 16 90c0 44 -9 80 -31 102c-14 14 -34 23 -62 23c-30 0 -51 -10 -65 -26c-21 -24 -27 -53 -27 -98h-59c0 62 8 103 43 138c25 25 61 39 107 39c44 0 78 -13 104 -38c33 -31 49 -80 49 -141
c0 -37 -3 -66 -9 -89h33v-44h-54c-14 -19 -35 -33 -64 -45l-76 -31c-18 -7 -31 -15 -41 -24h235v-44h-262c-5 -20 -7 -45 -7 -78c0 -56 5 -88 28 -113c14 -15 35 -24 68 -24c30 0 52 9 67 24c22 22 28 52 28 107h59c0 -78 -10 -113 -42 -146c-26 -26 -64 -38 -112 -38
c-51 0 -87 14 -111 38c-32 32 -44 79 -44 154c0 29 1 54 4 76z" />
    <glyph glyph-name="afii61352" unicode="&#x2116;" horiz-adv-x="656" 
d="M600 541c0 -79 -3 -117 -25 -145c-14 -18 -37 -29 -66 -29s-53 11 -67 29c-22 28 -24 66 -24 145c0 80 3 116 24 145c14 19 38 30 67 30s52 -11 66 -30c22 -27 25 -65 25 -145zM555 541c0 66 -3 103 -16 121c-6 10 -18 15 -30 15s-24 -6 -31 -15
c-13 -18 -15 -55 -15 -121s3 -103 16 -121c6 -9 18 -14 30 -14s24 5 30 14c13 18 16 55 16 121zM597 288h-175v41h175v-41zM361 0h-54l-182 555v-555h-56v712h55l181 -555v555h56v-712z" />
    <glyph glyph-name="trademark" unicode="&#x2122;" horiz-adv-x="602" 
d="M544 282h-43v323l-73 -206h-31l-74 199v-316h-43v430h42l90 -241l91 241h41v-430zM223 673h-74v-391h-42v391h-74v39h190v-39z" />
    <glyph glyph-name="Omega" unicode="&#x2126;" horiz-adv-x="429" 
d="M376 0h-138v44c27 13 51 34 61 65c12 35 13 107 13 247c0 214 -6 252 -35 285c-14 16 -35 26 -63 26s-49 -10 -63 -26c-29 -33 -35 -71 -35 -285c0 -140 1 -212 13 -247c11 -31 34 -52 62 -65v-44h-139v49h73c-20 12 -39 28 -51 56c-15 37 -17 105 -17 251
c0 223 7 276 51 322c24 26 59 42 106 42s82 -16 106 -42c44 -46 51 -99 51 -322c0 -146 -2 -214 -17 -251c-11 -28 -30 -44 -51 -56h73v-49z" />
    <glyph glyph-name="uni2150" unicode="&#x2150;" horiz-adv-x="708" 
d="M174 285h-43v379l-69 -47v47l69 48h43v-427zM501 712l-247 -712h-47l247 712h47zM667 389l-101 -389h-46l101 389h-109v-71h-43v109h198v-38z" />
    <glyph glyph-name="uni2151" unicode="&#x2151;" horiz-adv-x="708" 
d="M174 285h-43v379l-69 -47v47l69 48h43v-427zM501 712l-247 -712h-47l247 712h47zM663 300c0 -45 -6 -79 -18 -109l-77 -191h-47l75 180c-10 -7 -22 -11 -38 -11c-25 0 -45 7 -59 23c-18 19 -25 38 -25 108c0 59 6 82 23 103c16 19 41 29 71 29c32 0 56 -10 71 -29
c19 -23 24 -46 24 -103zM620 299c0 53 -5 74 -19 85c-6 5 -18 10 -33 10s-27 -5 -33 -10c-13 -11 -18 -32 -18 -85s5 -74 18 -85c6 -5 18 -10 33 -10s27 5 33 10c14 11 19 32 19 85z" />
    <glyph glyph-name="uni2152" unicode="&#x2152;" horiz-adv-x="986" 
d="M174 285h-43v379l-69 -47v47l69 48h43v-427zM501 712l-247 -712h-47l247 712h47zM605 0h-43v379l-69 -47v47l69 48h43v-427zM945 84c0 -31 -10 -51 -26 -66c-17 -15 -46 -23 -72 -23s-56 9 -71 23c-17 15 -27 35 -27 66v259c0 32 10 52 27 66c15 14 41 23 71 23
s55 -9 72 -23c16 -14 26 -34 26 -66v-259zM902 82v263c0 33 -23 49 -55 49s-54 -16 -54 -49v-263c0 -33 22 -49 54 -49s55 16 55 49z" />
    <glyph glyph-name="onethird" unicode="&#x2153;" horiz-adv-x="708" 
d="M174 285h-43v379l-69 -47v47l69 48h43v-427zM501 712l-247 -712h-47l247 712h47zM676 114c0 -49 -7 -71 -30 -93c-16 -16 -45 -26 -75 -26c-31 0 -58 9 -77 27c-16 17 -25 36 -25 85v13h43v-13c0 -34 5 -48 18 -59c10 -10 24 -15 41 -15s32 5 42 15c12 12 20 29 20 67
c0 41 -7 56 -17 68c-12 14 -26 19 -45 19h-29v38h29c17 0 29 5 40 14c18 17 19 42 19 68c0 25 -5 46 -19 58c-9 10 -22 14 -40 14c-17 0 -31 -4 -42 -15s-16 -30 -16 -54v-13h-43v12c0 42 8 65 25 81c19 17 42 27 76 27c35 0 58 -11 74 -26c20 -19 28 -48 28 -84
c0 -34 -5 -55 -18 -72c-10 -13 -23 -23 -39 -29c17 -5 32 -16 42 -31c12 -17 18 -37 18 -76z" />
    <glyph glyph-name="twothirds" unicode="&#x2154;" horiz-adv-x="708" 
d="M242 285h-204v37l137 218c16 26 24 46 24 79c0 36 -24 60 -60 60c-41 0 -59 -26 -59 -69v-18h-43v17c0 39 7 62 27 81c18 17 43 27 75 27c33 0 53 -8 73 -24s30 -42 30 -74c0 -35 -9 -64 -30 -98l-124 -198h154v-38zM501 712l-247 -712h-47l247 712h47zM676 114
c0 -49 -7 -71 -30 -93c-16 -16 -45 -26 -75 -26c-31 0 -58 9 -77 27c-16 17 -25 36 -25 85v13h43v-13c0 -34 5 -48 18 -59c10 -10 24 -15 41 -15s32 5 42 15c12 12 20 29 20 67c0 41 -7 56 -17 68c-12 14 -26 19 -45 19h-29v38h29c17 0 29 5 40 14c18 17 19 42 19 68
c0 25 -5 46 -19 58c-9 10 -22 14 -40 14c-17 0 -31 -4 -42 -15s-16 -30 -16 -54v-13h-43v12c0 42 8 65 25 81c19 17 42 27 76 27c35 0 58 -11 74 -26c20 -19 28 -48 28 -84c0 -34 -5 -55 -18 -72c-10 -13 -23 -23 -39 -29c17 -5 32 -16 42 -31c12 -17 18 -37 18 -76z" />
    <glyph glyph-name="uni2155" unicode="&#x2155;" horiz-adv-x="708" 
d="M174 285h-43v379l-69 -47v47l69 48h43v-427zM501 712l-247 -712h-47l247 712h47zM666 137c0 -67 -7 -95 -29 -117c-15 -15 -41 -25 -67 -25s-49 8 -65 22c-17 15 -25 34 -25 66v25h44v-25c0 -33 22 -50 46 -50c19 0 31 7 38 15c11 13 15 32 15 89c0 56 -4 75 -15 88
c-7 8 -17 14 -37 14c-25 0 -45 -18 -45 -45v-16h-44v249h178v-38h-135v-138c6 7 13 14 23 19c11 6 23 9 36 9c27 0 45 -10 59 -24c17 -18 23 -46 23 -118z" />
    <glyph glyph-name="uni2156" unicode="&#x2156;" horiz-adv-x="708" 
d="M242 285h-204v37l137 218c16 26 24 46 24 79c0 36 -24 60 -60 60c-41 0 -59 -26 -59 -69v-18h-43v17c0 39 7 62 27 81c18 17 43 27 75 27c33 0 53 -8 73 -24s30 -42 30 -74c0 -35 -9 -64 -30 -98l-124 -198h154v-38zM501 712l-247 -712h-47l247 712h47zM666 137
c0 -67 -7 -95 -29 -117c-15 -15 -41 -25 -67 -25s-49 8 -65 22c-17 15 -25 34 -25 66v25h44v-25c0 -33 22 -50 46 -50c19 0 31 7 38 15c11 13 15 32 15 89c0 56 -4 75 -15 88c-7 8 -17 14 -37 14c-25 0 -45 -18 -45 -45v-16h-44v249h178v-38h-135v-138c6 7 13 14 23 19
c11 6 23 9 36 9c27 0 45 -10 59 -24c17 -18 23 -46 23 -118z" />
    <glyph glyph-name="uni2157" unicode="&#x2157;" horiz-adv-x="708" 
d="M245 399c0 -49 -7 -71 -30 -93c-16 -16 -45 -26 -75 -26c-31 0 -58 9 -77 27c-16 17 -25 36 -25 85v13h43v-13c0 -34 5 -48 18 -59c10 -10 24 -15 41 -15s32 5 42 15c12 12 20 29 20 67c0 41 -7 56 -17 68c-12 14 -26 19 -45 19h-29v38h29c17 0 29 5 40 14
c18 17 19 42 19 68c0 25 -5 46 -19 58c-9 10 -22 14 -40 14c-17 0 -31 -4 -42 -15s-16 -30 -16 -54v-13h-43v12c0 42 8 65 25 81c19 17 42 27 76 27c35 0 58 -11 74 -26c20 -19 28 -48 28 -84c0 -34 -5 -55 -18 -72c-10 -13 -23 -23 -39 -29c17 -5 32 -16 42 -31
c12 -17 18 -37 18 -76zM501 712l-247 -712h-47l247 712h47zM666 137c0 -67 -7 -95 -29 -117c-15 -15 -41 -25 -67 -25s-49 8 -65 22c-17 15 -25 34 -25 66v25h44v-25c0 -33 22 -50 46 -50c19 0 31 7 38 15c11 13 15 32 15 89c0 56 -4 75 -15 88c-7 8 -17 14 -37 14
c-25 0 -45 -18 -45 -45v-16h-44v249h178v-38h-135v-138c6 7 13 14 23 19c11 6 23 9 36 9c27 0 45 -10 59 -24c17 -18 23 -46 23 -118z" />
    <glyph glyph-name="uni2158" unicode="&#x2158;" horiz-adv-x="708" 
d="M251 349h-32v-64h-43v64h-148v38l125 325h43l-124 -325h104v103h43v-103h32v-38zM501 712l-247 -712h-47l247 712h47zM666 137c0 -67 -7 -95 -29 -117c-15 -15 -41 -25 -67 -25s-49 8 -65 22c-17 15 -25 34 -25 66v25h44v-25c0 -33 22 -50 46 -50c19 0 31 7 38 15
c11 13 15 32 15 89c0 56 -4 75 -15 88c-7 8 -17 14 -37 14c-25 0 -45 -18 -45 -45v-16h-44v249h178v-38h-135v-138c6 7 13 14 23 19c11 6 23 9 36 9c27 0 45 -10 59 -24c17 -18 23 -46 23 -118z" />
    <glyph glyph-name="uni2159" unicode="&#x2159;" horiz-adv-x="708" 
d="M174 285h-43v379l-69 -47v47l69 48h43v-427zM501 712l-247 -712h-47l247 712h47zM663 127c0 -59 -6 -82 -24 -103c-15 -19 -41 -29 -71 -29c-31 0 -56 11 -70 29c-19 23 -24 46 -24 103c0 45 6 79 18 109l77 191h46l-74 -180c10 7 22 11 38 11c25 0 45 -7 59 -23
c18 -19 25 -38 25 -108zM620 128c0 53 -5 74 -18 85c-7 5 -18 10 -33 10c-16 0 -27 -5 -34 -10c-13 -11 -18 -32 -18 -85s5 -74 18 -85c7 -5 18 -10 34 -10c15 0 26 5 33 10c13 11 18 32 18 85z" />
    <glyph glyph-name="uni215A" unicode="&#x215a;" horiz-adv-x="708" 
d="M235 422c0 -67 -7 -95 -29 -117c-15 -15 -41 -25 -67 -25s-49 8 -65 22c-17 15 -25 34 -25 66v25h44v-25c0 -33 22 -50 46 -50c19 0 31 7 38 15c11 13 15 32 15 89c0 56 -4 75 -15 88c-7 8 -17 14 -37 14c-25 0 -45 -18 -45 -45v-16h-44v249h178v-38h-135v-138
c6 7 13 14 23 19c11 6 23 9 36 9c27 0 45 -10 59 -24c17 -18 23 -46 23 -118zM501 712l-247 -712h-47l247 712h47zM663 127c0 -59 -6 -82 -24 -103c-15 -19 -41 -29 -71 -29c-31 0 -56 11 -70 29c-19 23 -24 46 -24 103c0 45 6 79 18 109l77 191h46l-74 -180
c10 7 22 11 38 11c25 0 45 -7 59 -23c18 -19 25 -38 25 -108zM620 128c0 53 -5 74 -18 85c-7 5 -18 10 -33 10c-16 0 -27 -5 -34 -10c-13 -11 -18 -32 -18 -85s5 -74 18 -85c7 -5 18 -10 34 -10c15 0 26 5 33 10c13 11 18 32 18 85z" />
    <glyph glyph-name="oneeighth" unicode="&#x215b;" horiz-adv-x="708" 
d="M174 285h-43v379l-69 -47v47l69 48h43v-427zM501 712l-247 -712h-47l247 712h47zM664 119c0 -53 -6 -79 -29 -100c-16 -15 -40 -24 -66 -24s-52 9 -67 24c-24 21 -28 47 -28 100c0 49 3 65 15 83c7 10 17 17 28 24c-11 6 -21 14 -27 24c-10 17 -12 34 -12 70
c0 47 6 71 27 90c16 15 38 22 64 22c25 0 48 -7 64 -22c22 -19 28 -43 28 -90c0 -36 -4 -53 -14 -70c-6 -10 -15 -18 -25 -24c11 -7 22 -14 29 -24c12 -18 13 -34 13 -83zM621 119c0 46 -4 62 -16 74c-8 8 -20 13 -36 13s-29 -5 -37 -13c-12 -12 -15 -27 -15 -74
s3 -61 15 -73c8 -8 21 -13 37 -13s28 5 36 13c12 12 16 26 16 73zM618 320c0 38 -6 53 -16 63c-6 7 -18 11 -33 11s-26 -4 -33 -11c-10 -10 -15 -25 -15 -63s5 -54 15 -64c7 -7 18 -11 33 -11s27 4 33 11c10 10 16 26 16 64z" />
    <glyph glyph-name="threeeighths" unicode="&#x215c;" horiz-adv-x="708" 
d="M245 399c0 -49 -7 -71 -30 -93c-16 -16 -45 -26 -75 -26c-31 0 -58 9 -77 27c-16 17 -25 36 -25 85v13h43v-13c0 -34 5 -48 18 -59c10 -10 24 -15 41 -15s32 5 42 15c12 12 20 29 20 67c0 41 -7 56 -17 68c-12 14 -26 19 -45 19h-29v38h29c17 0 29 5 40 14
c18 17 19 42 19 68c0 25 -5 46 -19 58c-9 10 -22 14 -40 14c-17 0 -31 -4 -42 -15s-16 -30 -16 -54v-13h-43v12c0 42 8 65 25 81c19 17 42 27 76 27c35 0 58 -11 74 -26c20 -19 28 -48 28 -84c0 -34 -5 -55 -18 -72c-10 -13 -23 -23 -39 -29c17 -5 32 -16 42 -31
c12 -17 18 -37 18 -76zM501 712l-247 -712h-47l247 712h47zM664 119c0 -53 -6 -79 -29 -100c-16 -15 -40 -24 -66 -24s-52 9 -67 24c-24 21 -28 47 -28 100c0 49 3 65 15 83c7 10 17 17 28 24c-11 6 -21 14 -27 24c-10 17 -12 34 -12 70c0 47 6 71 27 90c16 15 38 22 64 22
c25 0 48 -7 64 -22c22 -19 28 -43 28 -90c0 -36 -4 -53 -14 -70c-6 -10 -15 -18 -25 -24c11 -7 22 -14 29 -24c12 -18 13 -34 13 -83zM621 119c0 46 -4 62 -16 74c-8 8 -20 13 -36 13s-29 -5 -37 -13c-12 -12 -15 -27 -15 -74s3 -61 15 -73c8 -8 21 -13 37 -13s28 5 36 13
c12 12 16 26 16 73zM618 320c0 38 -6 53 -16 63c-6 7 -18 11 -33 11s-26 -4 -33 -11c-10 -10 -15 -25 -15 -63s5 -54 15 -64c7 -7 18 -11 33 -11s27 4 33 11c10 10 16 26 16 64z" />
    <glyph glyph-name="fiveeighths" unicode="&#x215d;" horiz-adv-x="708" 
d="M235 422c0 -67 -7 -95 -29 -117c-15 -15 -41 -25 -67 -25s-49 8 -65 22c-17 15 -25 34 -25 66v25h44v-25c0 -33 22 -50 46 -50c19 0 31 7 38 15c11 13 15 32 15 89c0 56 -4 75 -15 88c-7 8 -17 14 -37 14c-25 0 -45 -18 -45 -45v-16h-44v249h178v-38h-135v-138
c6 7 13 14 23 19c11 6 23 9 36 9c27 0 45 -10 59 -24c17 -18 23 -46 23 -118zM501 712l-247 -712h-47l247 712h47zM664 119c0 -53 -6 -79 -29 -100c-16 -15 -40 -24 -66 -24s-52 9 -67 24c-24 21 -28 47 -28 100c0 49 3 65 15 83c7 10 17 17 28 24c-11 6 -21 14 -27 24
c-10 17 -12 34 -12 70c0 47 6 71 27 90c16 15 38 22 64 22c25 0 48 -7 64 -22c22 -19 28 -43 28 -90c0 -36 -4 -53 -14 -70c-6 -10 -15 -18 -25 -24c11 -7 22 -14 29 -24c12 -18 13 -34 13 -83zM621 119c0 46 -4 62 -16 74c-8 8 -20 13 -36 13s-29 -5 -37 -13
c-12 -12 -15 -27 -15 -74s3 -61 15 -73c8 -8 21 -13 37 -13s28 5 36 13c12 12 16 26 16 73zM618 320c0 38 -6 53 -16 63c-6 7 -18 11 -33 11s-26 -4 -33 -11c-10 -10 -15 -25 -15 -63s5 -54 15 -64c7 -7 18 -11 33 -11s27 4 33 11c10 10 16 26 16 64z" />
    <glyph glyph-name="seveneighths" unicode="&#x215e;" horiz-adv-x="708" 
d="M236 674l-101 -389h-46l101 389h-109v-71h-43v109h198v-38zM501 712l-247 -712h-47l247 712h47zM664 119c0 -53 -6 -79 -29 -100c-16 -15 -40 -24 -66 -24s-52 9 -67 24c-24 21 -28 47 -28 100c0 49 3 65 15 83c7 10 17 17 28 24c-11 6 -21 14 -27 24
c-10 17 -12 34 -12 70c0 47 6 71 27 90c16 15 38 22 64 22c25 0 48 -7 64 -22c22 -19 28 -43 28 -90c0 -36 -4 -53 -14 -70c-6 -10 -15 -18 -25 -24c11 -7 22 -14 29 -24c12 -18 13 -34 13 -83zM621 119c0 46 -4 62 -16 74c-8 8 -20 13 -36 13s-29 -5 -37 -13
c-12 -12 -15 -27 -15 -74s3 -61 15 -73c8 -8 21 -13 37 -13s28 5 36 13c12 12 16 26 16 73zM618 320c0 38 -6 53 -16 63c-6 7 -18 11 -33 11s-26 -4 -33 -11c-10 -10 -15 -25 -15 -63s5 -54 15 -64c7 -7 18 -11 33 -11s27 4 33 11c10 10 16 26 16 64z" />
    <glyph glyph-name="uni215F" unicode="&#x215f;" horiz-adv-x="431" 
d="M174 285h-43v379l-69 -47v47l69 48h43v-427zM501 712l-247 -712h-47l247 712h47z" />
    <glyph glyph-name="uni2189" unicode="&#x2189;" horiz-adv-x="709" 
d="M237 369c0 -31 -10 -51 -26 -66c-17 -15 -46 -23 -72 -23s-56 9 -71 23c-17 15 -27 35 -27 66v259c0 32 10 52 27 66c15 14 41 23 71 23s55 -9 72 -23c16 -14 26 -34 26 -66v-259zM194 367v263c0 33 -23 49 -55 49s-54 -16 -54 -49v-263c0 -33 22 -49 54 -49s55 16 55 49
zM502 712l-247 -712h-47l247 712h47zM677 114c0 -49 -7 -71 -30 -93c-16 -16 -45 -26 -75 -26c-31 0 -58 9 -77 27c-16 17 -25 36 -25 85v13h43v-13c0 -34 5 -48 18 -59c10 -10 24 -15 41 -15s32 5 42 15c12 12 20 29 20 67c0 41 -7 56 -17 68c-12 14 -26 19 -45 19h-29v38
h29c17 0 29 5 40 14c18 17 19 42 19 68c0 25 -5 46 -19 58c-9 10 -22 14 -40 14c-17 0 -31 -4 -42 -15s-16 -30 -16 -54v-13h-43v12c0 42 8 65 25 81c19 17 42 27 76 27c35 0 58 -11 74 -26c20 -19 28 -48 28 -84c0 -34 -5 -55 -18 -72c-10 -13 -23 -23 -39 -29
c17 -5 32 -16 42 -31c12 -17 18 -37 18 -76z" />
    <glyph glyph-name="arrowleft" unicode="&#x2190;" horiz-adv-x="632" 
d="M576 241h-445l214 -214h-75l-242 241l242 240h75l-214 -212h445v-55z" />
    <glyph glyph-name="arrowup" unicode="&#x2191;" horiz-adv-x="632" 
d="M556 235l-212 214v-445h-56v445l-212 -214v75l240 242l240 -242v-75z" />
    <glyph glyph-name="arrowright" unicode="&#x2192;" horiz-adv-x="632" 
d="M603 268l-241 -241h-75l214 214h-445v55h445l-214 212h75z" />
    <glyph glyph-name="arrowdown" unicode="&#x2193;" horiz-adv-x="632" 
d="M556 225l-240 -241l-240 241v76l212 -215v446h56v-446l212 215v-76z" />
    <glyph glyph-name="uni2196" unicode="&#x2196;" horiz-adv-x="632" 
d="M516 418l-302 1l315 -316l-39 -39l-316 316l2 -302l-54 52v341h341z" />
    <glyph glyph-name="uni2197" unicode="&#x2197;" horiz-adv-x="632" 
d="M456 78l1 302l-315 -316l-39 39l315 316l-302 -1l53 53h340v-341z" />
    <glyph glyph-name="uni2198" unicode="&#x2198;" horiz-adv-x="632" 
d="M509 404v-340h-340l-54 54l303 -1l-315 315l38 38l316 -314l-2 302z" />
    <glyph glyph-name="uni2199" unicode="&#x2199;" horiz-adv-x="632" 
d="M463 64h-340v340l53 54l-1 -302l316 314l38 -38l-315 -315l303 1z" />
    <glyph glyph-name="partialdiff" unicode="&#x2202;" horiz-adv-x="363" 
d="M304 254c0 -120 -7 -186 -39 -222c-22 -26 -52 -40 -90 -40c-39 0 -68 15 -90 39c-32 35 -40 100 -40 219c0 124 7 187 38 222c21 23 49 35 81 35c22 0 40 -5 56 -16c10 -6 24 -20 28 -29v112c0 35 -7 57 -19 72s-31 22 -53 22c-28 0 -53 -12 -70 -33l-40 35
c29 32 64 48 111 48c39 0 71 -11 91 -31c24 -24 36 -50 36 -117v-316zM248 250c0 107 -2 158 -25 185c-11 13 -28 22 -48 22s-37 -9 -48 -22c-23 -27 -26 -78 -26 -185c0 -108 3 -159 26 -186c11 -13 28 -22 48 -22s37 9 48 22c23 27 25 78 25 186z" />
    <glyph glyph-name="Delta" unicode="&#x2206;" horiz-adv-x="379" 
d="M375 0h-371l159 712h56zM301 53l-112 553l-110 -553h222z" />
    <glyph glyph-name="product" unicode="&#x220f;" horiz-adv-x="433" 
d="M364 -219h-60v926h-176v-926h-59v979h295v-979z" />
    <glyph glyph-name="summation" unicode="&#x2211;" horiz-adv-x="353" 
d="M301 -220h-271v46l142 458l-129 430v46h258v-53h-193l113 -396v-57l-125 -420h205v-54z" />
    <glyph glyph-name="minus" unicode="&#x2212;" horiz-adv-x="431" 
d="M383 250h-335v54h335v-54z" />
    <glyph glyph-name="uni2219" unicode="&#x2219;" horiz-adv-x="431" 
d="M378 277c0 -90 -73 -163 -163 -163s-163 73 -163 163s73 163 163 163s163 -73 163 -163z" />
    <glyph glyph-name="radical" unicode="&#x221a;" horiz-adv-x="441" 
d="M413 659h-78l-153 -659h-61l-117 493h64l83 -405l133 624h129v-53z" />
    <glyph glyph-name="infinity" unicode="&#x221e;" horiz-adv-x="615" 
d="M564 275c0 -69 -48 -121 -121 -121c-52 0 -91 24 -136 79c-44 -55 -83 -80 -135 -80c-73 0 -121 53 -121 122s48 122 121 122c51 0 91 -25 135 -80c45 55 83 80 136 80c73 0 121 -53 121 -122zM511 274c0 42 -30 70 -71 70c-37 0 -62 -28 -97 -70c35 -42 60 -69 97 -69
c41 0 71 27 71 69zM272 274c-35 42 -60 72 -97 72c-41 0 -71 -30 -71 -72s30 -69 71 -69c37 0 62 27 97 69z" />
    <glyph glyph-name="integral" unicode="&#x222b;" horiz-adv-x="282" 
d="M252 664h-15c-38 0 -68 -27 -68 -79v-657c0 -45 -10 -72 -34 -97c-22 -22 -52 -34 -85 -34h-20v51h16c38 0 67 26 67 79v656c0 48 14 77 34 98c20 20 53 33 86 33h19v-50z" />
    <glyph glyph-name="approxequal" unicode="&#x2248;" horiz-adv-x="431" 
d="M385 347c-43 -43 -65 -54 -99 -54c-28 0 -53 12 -81 25c-21 9 -38 18 -60 18s-35 -5 -64 -34l-35 34c43 42 66 53 99 53c28 0 53 -11 81 -24c22 -10 39 -18 60 -18c23 0 36 5 65 34zM385 202c-43 -42 -65 -53 -99 -53c-28 0 -53 11 -81 24c-21 10 -38 18 -60 18
s-35 -5 -64 -34l-35 34c43 43 66 54 99 54c28 0 53 -12 81 -25c22 -9 39 -18 60 -18c23 0 36 5 65 34z" />
    <glyph glyph-name="notequal" unicode="&#x2260;" horiz-adv-x="431" 
d="M386 179h-215l-75 -94l-40 30l52 64h-62v53h102l74 91h-176v53h215l74 94l40 -30l-51 -64h62v-53h-101l-74 -91h175v-53z" />
    <glyph glyph-name="lessequal" unicode="&#x2264;" horiz-adv-x="361" 
d="M327 158l-293 170v49l293 170v-63l-229 -132l229 -131v-63zM327 -3l-293 170v62l293 -170v-62z" />
    <glyph glyph-name="greaterequal" unicode="&#x2265;" horiz-adv-x="361" 
d="M327 328l-293 -170v63l229 131l-229 132v63l293 -170v-49zM327 167l-293 -170v62l293 170v-62z" />
    <glyph glyph-name="dotmath" unicode="&#x22c5;" horiz-adv-x="431" 
d="M277 216h-123v123h123v-123z" />
    <glyph glyph-name="lozenge" unicode="&#x25ca;" horiz-adv-x="500" 
d="M447 334l-197 -279l-197 279l197 279zM385 334l-135 193l-135 -193l135 -195z" />
    <glyph glyph-name="fi" unicode="&#xfb01;" horiz-adv-x="400" 
d="M221 465h-87v-465h-56v465h-62v44h62v69c0 47 13 80 38 103c29 26 66 33 105 33v-51c-57 0 -87 -28 -87 -85v-69h87v-44zM337 0h-56v509h56v-509zM345 626h-72v72h72v-72z" />
    <glyph glyph-name="fl" unicode="&#xfb02;" horiz-adv-x="436" 
d="M221 465h-87v-465h-56v465h-62v44h62v69c0 47 13 80 38 103c29 26 66 33 105 33v-51c-57 0 -87 -28 -87 -85v-69h87v-44zM420 0c-38 0 -73 6 -101 32c-24 22 -38 53 -38 104v576h56v-576c0 -55 27 -86 83 -86v-50z" />
    <glyph glyph-name="i.latn_TRK" horiz-adv-x="181" 
d="M118 0h-56v509h56v-509zM126 626h-72v72h72v-72z" />
    <glyph glyph-name="Ldot.latn_CAT" horiz-adv-x="339" 
d="M317 0h-248v712h59v-659h189v-53zM301 324h-63v63h63v-63z" />
    <glyph glyph-name="ldot.latn_CAT" horiz-adv-x="208" 
d="M196 0c-38 0 -73 6 -101 32c-24 22 -38 53 -38 104v576h56v-576c0 -55 27 -86 83 -86v-50zM223 274h-63v63h63v-63z" />
    <glyph glyph-name="zero.numr" horiz-adv-x="278" 
d="M237 369c0 -31 -10 -51 -26 -66c-17 -15 -46 -23 -72 -23s-56 9 -71 23c-17 15 -27 35 -27 66v259c0 32 10 52 27 66c15 14 41 23 71 23s55 -9 72 -23c16 -14 26 -34 26 -66v-259zM194 367v263c0 33 -23 49 -55 49s-54 -16 -54 -49v-263c0 -33 22 -49 54 -49s55 16 55 49
z" />
    <glyph glyph-name="one.numr" 
d="M174 285h-43v379l-69 -47v47l69 48h43v-427z" />
    <glyph glyph-name="two.numr" 
d="M242 285h-204v37l137 218c16 26 24 46 24 79c0 36 -24 60 -60 60c-41 0 -59 -26 -59 -69v-18h-43v17c0 39 7 62 27 81c18 17 43 27 75 27c33 0 53 -8 73 -24s30 -42 30 -74c0 -35 -9 -64 -30 -98l-124 -198h154v-38z" />
    <glyph glyph-name="three.numr" 
d="M245 399c0 -49 -7 -71 -30 -93c-16 -16 -45 -26 -75 -26c-31 0 -58 9 -77 27c-16 17 -25 36 -25 85v13h43v-13c0 -34 5 -48 18 -59c10 -10 24 -15 41 -15s32 5 42 15c12 12 20 29 20 67c0 41 -7 56 -17 68c-12 14 -26 19 -45 19h-29v38h29c17 0 29 5 40 14
c18 17 19 42 19 68c0 25 -5 46 -19 58c-9 10 -22 14 -40 14c-17 0 -31 -4 -42 -15s-16 -30 -16 -54v-13h-43v12c0 42 8 65 25 81c19 17 42 27 76 27c35 0 58 -11 74 -26c20 -19 28 -48 28 -84c0 -34 -5 -55 -18 -72c-10 -13 -23 -23 -39 -29c17 -5 32 -16 42 -31
c12 -17 18 -37 18 -76z" />
    <glyph glyph-name="four.numr" 
d="M251 349h-32v-64h-43v64h-148v38l125 325h43l-124 -325h104v103h43v-103h32v-38z" />
    <glyph glyph-name="five.numr" 
d="M235 422c0 -67 -7 -95 -29 -117c-15 -15 -41 -25 -67 -25s-49 8 -65 22c-17 15 -25 34 -25 66v25h44v-25c0 -33 22 -50 46 -50c19 0 31 7 38 15c11 13 15 32 15 89c0 56 -4 75 -15 88c-7 8 -17 14 -37 14c-25 0 -45 -18 -45 -45v-16h-44v249h178v-38h-135v-138
c6 7 13 14 23 19c11 6 23 9 36 9c27 0 45 -10 59 -24c17 -18 23 -46 23 -118z" />
    <glyph glyph-name="six.numr" 
d="M232 412c0 -59 -6 -82 -24 -103c-15 -19 -41 -29 -71 -29c-31 0 -56 11 -70 29c-19 23 -24 46 -24 103c0 45 6 79 18 109l77 191h46l-74 -180c10 7 22 11 38 11c25 0 45 -7 59 -23c18 -19 25 -38 25 -108zM189 413c0 53 -5 74 -18 85c-7 5 -18 10 -33 10
c-16 0 -27 -5 -34 -10c-13 -11 -18 -32 -18 -85s5 -74 18 -85c7 -5 18 -10 34 -10c15 0 26 5 33 10c13 11 18 32 18 85z" />
    <glyph glyph-name="seven.numr" 
d="M236 674l-101 -389h-46l101 389h-109v-71h-43v109h198v-38z" />
    <glyph glyph-name="eight.numr" 
d="M233 404c0 -53 -6 -79 -29 -100c-16 -15 -40 -24 -66 -24s-52 9 -67 24c-24 21 -28 47 -28 100c0 49 3 65 15 83c7 10 17 17 28 24c-11 6 -21 14 -27 24c-10 17 -12 34 -12 70c0 47 6 71 27 90c16 15 38 22 64 22c25 0 48 -7 64 -22c22 -19 28 -43 28 -90
c0 -36 -4 -53 -14 -70c-6 -10 -15 -18 -25 -24c11 -7 22 -14 29 -24c12 -18 13 -34 13 -83zM190 404c0 46 -4 62 -16 74c-8 8 -20 13 -36 13s-29 -5 -37 -13c-12 -12 -15 -27 -15 -74s3 -61 15 -73c8 -8 21 -13 37 -13s28 5 36 13c12 12 16 26 16 73zM187 605
c0 38 -6 53 -16 63c-6 7 -18 11 -33 11s-26 -4 -33 -11c-10 -10 -15 -25 -15 -63s5 -54 15 -64c7 -7 18 -11 33 -11s27 4 33 11c10 10 16 26 16 64z" />
    <glyph glyph-name="nine.numr" 
d="M232 585c0 -45 -6 -79 -18 -109l-77 -191h-47l75 180c-10 -7 -22 -11 -38 -11c-25 0 -45 7 -59 23c-18 19 -25 38 -25 108c0 59 6 82 23 103c16 19 41 29 71 29c32 0 56 -10 71 -29c19 -23 24 -46 24 -103zM189 584c0 53 -5 74 -19 85c-6 5 -18 10 -33 10s-27 -5 -33 -10
c-13 -11 -18 -32 -18 -85s5 -74 18 -85c6 -5 18 -10 33 -10s27 5 33 10c14 11 19 32 19 85z" />
    <glyph glyph-name="zero.dnom" horiz-adv-x="278" 
d="M237 84c0 -31 -10 -51 -26 -66c-17 -15 -46 -23 -72 -23s-56 9 -71 23c-17 15 -27 35 -27 66v259c0 32 10 52 27 66c15 14 41 23 71 23s55 -9 72 -23c16 -14 26 -34 26 -66v-259zM194 82v263c0 33 -23 49 -55 49s-54 -16 -54 -49v-263c0 -33 22 -49 54 -49s55 16 55 49z
" />
    <glyph glyph-name="one.dnom" 
d="M174 0h-43v379l-69 -47v47l69 48h43v-427z" />
    <glyph glyph-name="two.dnom" 
d="M242 0h-204v37l137 218c16 26 24 46 24 79c0 36 -24 60 -60 60c-41 0 -59 -26 -59 -69v-18h-43v17c0 39 7 62 27 81c18 17 43 27 75 27c33 0 53 -8 73 -24s30 -42 30 -74c0 -35 -9 -64 -30 -98l-124 -198h154v-38z" />
    <glyph glyph-name="three.dnom" 
d="M245 114c0 -49 -7 -71 -30 -93c-16 -16 -45 -26 -75 -26c-31 0 -58 9 -77 27c-16 17 -25 36 -25 85v13h43v-13c0 -34 5 -48 18 -59c10 -10 24 -15 41 -15s32 5 42 15c12 12 20 29 20 67c0 41 -7 56 -17 68c-12 14 -26 19 -45 19h-29v38h29c17 0 29 5 40 14
c18 17 19 42 19 68c0 25 -5 46 -19 58c-9 10 -22 14 -40 14c-17 0 -31 -4 -42 -15s-16 -30 -16 -54v-13h-43v12c0 42 8 65 25 81c19 17 42 27 76 27c35 0 58 -11 74 -26c20 -19 28 -48 28 -84c0 -34 -5 -55 -18 -72c-10 -13 -23 -23 -39 -29c17 -5 32 -16 42 -31
c12 -17 18 -37 18 -76z" />
    <glyph glyph-name="four.dnom" 
d="M251 64h-32v-64h-43v64h-148v38l125 325h43l-124 -325h104v103h43v-103h32v-38z" />
    <glyph glyph-name="five.dnom" 
d="M235 137c0 -67 -7 -95 -29 -117c-15 -15 -41 -25 -67 -25s-49 8 -65 22c-17 15 -25 34 -25 66v25h44v-25c0 -33 22 -50 46 -50c19 0 31 7 38 15c11 13 15 32 15 89c0 56 -4 75 -15 88c-7 8 -17 14 -37 14c-25 0 -45 -18 -45 -45v-16h-44v249h178v-38h-135v-138
c6 7 13 14 23 19c11 6 23 9 36 9c27 0 45 -10 59 -24c17 -18 23 -46 23 -118z" />
    <glyph glyph-name="six.dnom" 
d="M232 127c0 -59 -6 -82 -24 -103c-15 -19 -41 -29 -71 -29c-31 0 -56 11 -70 29c-19 23 -24 46 -24 103c0 45 6 79 18 109l77 191h46l-74 -180c10 7 22 11 38 11c25 0 45 -7 59 -23c18 -19 25 -38 25 -108zM189 128c0 53 -5 74 -18 85c-7 5 -18 10 -33 10
c-16 0 -27 -5 -34 -10c-13 -11 -18 -32 -18 -85s5 -74 18 -85c7 -5 18 -10 34 -10c15 0 26 5 33 10c13 11 18 32 18 85z" />
    <glyph glyph-name="seven.dnom" 
d="M236 389l-101 -389h-46l101 389h-109v-71h-43v109h198v-38z" />
    <glyph glyph-name="eight.dnom" 
d="M233 119c0 -53 -6 -79 -29 -100c-16 -15 -40 -24 -66 -24s-52 9 -67 24c-24 21 -28 47 -28 100c0 49 3 65 15 83c7 10 17 17 28 24c-11 6 -21 14 -27 24c-10 17 -12 34 -12 70c0 47 6 71 27 90c16 15 38 22 64 22c25 0 48 -7 64 -22c22 -19 28 -43 28 -90
c0 -36 -4 -53 -14 -70c-6 -10 -15 -18 -25 -24c11 -7 22 -14 29 -24c12 -18 13 -34 13 -83zM190 119c0 46 -4 62 -16 74c-8 8 -20 13 -36 13s-29 -5 -37 -13c-12 -12 -15 -27 -15 -74s3 -61 15 -73c8 -8 21 -13 37 -13s28 5 36 13c12 12 16 26 16 73zM187 320
c0 38 -6 53 -16 63c-6 7 -18 11 -33 11s-26 -4 -33 -11c-10 -10 -15 -25 -15 -63s5 -54 15 -64c7 -7 18 -11 33 -11s27 4 33 11c10 10 16 26 16 64z" />
    <glyph glyph-name="nine.dnom" 
d="M232 300c0 -45 -6 -79 -18 -109l-77 -191h-47l75 180c-10 -7 -22 -11 -38 -11c-25 0 -45 7 -59 23c-18 19 -25 38 -25 108c0 59 6 82 23 103c16 19 41 29 71 29c32 0 56 -10 71 -29c19 -23 24 -46 24 -103zM189 299c0 53 -5 74 -19 85c-6 5 -18 10 -33 10s-27 -5 -33 -10
c-13 -11 -18 -32 -18 -85s5 -74 18 -85c6 -5 18 -10 33 -10s27 5 33 10c14 11 19 32 19 85z" />
    <glyph glyph-name="space.frac" horiz-adv-x="38" 
 />
    <glyph glyph-name="zero.osf" horiz-adv-x="344" 
d="M172 -8c-35 0 -68 13 -90 35c-23 23 -36 51 -36 101v338c0 50 12 77 36 101c23 23 55 35 90 35s69 -13 91 -35s36 -51 36 -101v-338c0 -50 -14 -79 -36 -101s-56 -35 -91 -35zM242 125v344c0 55 -30 83 -70 83c-39 0 -70 -28 -70 -83v-344c0 -55 31 -83 70 -83
c40 0 70 28 70 83z" />
    <glyph glyph-name="one.osf" horiz-adv-x="291" 
d="M202 0h-56v529l-102 -89v67l102 87h56v-594z" />
    <glyph glyph-name="two.osf" horiz-adv-x="344" 
d="M301 0h-262v47l166 281c31 52 35 81 35 140c0 56 -31 84 -70 84c-40 0 -71 -28 -71 -83v-46h-56v45c0 47 14 77 36 99s56 35 91 35s68 -12 89 -33c22 -21 37 -52 37 -102c0 -69 -10 -108 -45 -161l-150 -256h200v-50z" />
    <glyph glyph-name="three.osf" horiz-adv-x="342" 
d="M295 78c0 -97 -6 -134 -40 -169c-20 -21 -55 -35 -90 -35s-69 13 -91 34c-22 22 -37 51 -37 101v49h57v-50c0 -56 32 -84 71 -84c20 0 37 8 49 21c19 22 25 54 25 135c0 92 -5 116 -25 138c-13 13 -29 21 -49 21h-41v49h41c18 0 34 6 45 17c18 20 23 50 23 115
s-6 95 -22 113c-12 13 -27 19 -46 19c-39 0 -66 -28 -66 -83v-51h-57v49c0 47 11 75 36 101c21 22 52 34 87 34c36 0 66 -12 87 -33c27 -26 37 -62 37 -147c0 -69 -5 -96 -19 -121c-9 -16 -24 -29 -40 -38c16 -9 30 -21 40 -34c19 -29 25 -52 25 -151z" />
    <glyph glyph-name="four.osf" horiz-adv-x="365" 
d="M334 30h-58v-153h-56v153h-189v50l181 549h55l-179 -549h132v200h56v-200h58v-50z" />
    <glyph glyph-name="five.osf" horiz-adv-x="351" 
d="M307 108c0 -113 -6 -156 -40 -194c-21 -24 -54 -40 -90 -40c-74 0 -129 39 -129 156v25h57v-47c0 -57 34 -86 72 -86c42 0 74 13 74 184c0 166 -31 183 -74 183c-41 0 -72 -32 -72 -82v-34h-53v421h245v-51h-193v-252c15 28 44 47 86 47c36 0 63 -14 82 -38
c29 -36 35 -81 35 -192z" />
    <glyph glyph-name="six.osf" horiz-adv-x="349" 
d="M305 210c0 -108 -8 -145 -37 -179c-21 -26 -57 -39 -94 -39c-38 0 -73 14 -93 39c-30 36 -37 73 -37 179c0 80 9 137 29 191l115 311h57l-115 -306c16 13 35 21 58 21c34 0 61 -13 81 -36c26 -29 36 -58 36 -181zM248 210c0 82 -2 125 -24 148c-13 14 -30 21 -50 21
c-19 0 -37 -7 -49 -21c-22 -24 -25 -66 -25 -148c0 -81 3 -123 25 -147c12 -14 30 -21 49 -21c20 0 38 7 50 21c22 24 24 66 24 147z" />
    <glyph glyph-name="seven.osf" horiz-adv-x="333" 
d="M302 548l-192 -666h-56l190 662h-153v-116h-56v166h267v-46z" />
    <glyph glyph-name="eight.osf" horiz-adv-x="351" 
d="M306 196c0 -98 -7 -135 -40 -169c-21 -21 -55 -35 -90 -35s-70 14 -91 35c-32 34 -40 71 -40 169s7 121 26 149c9 14 23 26 40 35c-17 9 -31 23 -40 38c-14 25 -21 51 -21 121c0 84 10 120 38 148c22 21 52 33 87 33s66 -12 88 -33c28 -28 38 -64 38 -148
c0 -70 -6 -96 -21 -121c-9 -15 -23 -29 -39 -38c16 -9 30 -21 39 -35c20 -28 26 -51 26 -149zM250 197c0 91 -5 116 -25 138c-13 13 -30 21 -49 21c-20 0 -37 -8 -49 -21c-21 -22 -25 -47 -25 -138c0 -80 6 -112 25 -134c11 -14 29 -21 49 -21c19 0 37 7 49 21
c18 22 25 54 25 134zM245 537c0 65 -7 96 -24 114c-11 13 -27 19 -45 19c-19 0 -34 -6 -46 -19c-17 -18 -23 -49 -23 -114c0 -64 5 -96 24 -115c11 -12 26 -17 45 -17c18 0 33 5 44 17c19 19 25 51 25 115z" />
    <glyph glyph-name="nine.osf" horiz-adv-x="349" 
d="M305 384c0 -80 -9 -137 -29 -191l-115 -311h-57l115 306c-16 -13 -36 -21 -58 -21c-34 0 -61 13 -81 36c-26 29 -36 58 -36 181c0 108 8 145 37 179c21 26 56 39 94 39s72 -14 93 -39c30 -36 37 -73 37 -179zM248 384c0 81 -2 123 -24 147c-12 14 -30 21 -50 21
c-19 0 -37 -7 -49 -21c-22 -24 -25 -66 -25 -147c0 -82 3 -125 25 -148c12 -14 30 -21 49 -21c20 0 38 7 50 21c22 24 24 66 24 148z" />
    <glyph glyph-name="zero.lf" horiz-adv-x="361" 
d="M307 128c0 -50 -14 -79 -36 -101s-56 -35 -91 -35s-69 13 -90 35c-22 22 -36 51 -36 101v456c0 50 14 79 36 101c21 22 55 35 90 35s69 -13 91 -35s36 -51 36 -101v-456zM251 125v462c0 55 -31 83 -71 83c-39 0 -70 -28 -70 -83v-462c0 -55 31 -83 70 -83
c40 0 71 28 71 83z" />
    <glyph glyph-name="one.lf" horiz-adv-x="257" 
d="M176 0h-56v646l-102 -88v67l102 87h56v-712z" />
    <glyph glyph-name="two.lf" horiz-adv-x="323" 
d="M292 0h-260v47l169 390c17 39 35 89 35 149c0 56 -31 84 -71 84c-39 0 -70 -28 -70 -83v-51h-56v50c0 47 12 74 36 99c21 22 55 35 90 35s68 -13 90 -34s37 -52 37 -102c0 -54 -19 -116 -41 -166l-159 -368h200v-50z" />
    <glyph glyph-name="three.lf" horiz-adv-x="326" 
d="M289 196c0 -97 -6 -134 -40 -169c-20 -21 -55 -35 -90 -35s-69 13 -91 34c-22 22 -37 51 -37 101v49h57v-50c0 -56 32 -84 71 -84c20 0 37 8 49 21c19 22 25 54 25 135c0 92 -5 116 -25 138c-13 13 -29 21 -49 21h-41v49h41c18 0 34 6 45 17c18 20 23 50 23 115
s-6 95 -22 113c-12 13 -27 19 -46 19c-39 0 -66 -28 -66 -83v-51h-57v49c0 47 11 75 36 101c21 22 52 34 87 34c36 0 66 -12 87 -33c27 -26 37 -62 37 -147c0 -69 -5 -96 -19 -121c-9 -16 -24 -29 -40 -38c16 -9 30 -21 40 -34c19 -29 25 -52 25 -151z" />
    <glyph glyph-name="four.lf" horiz-adv-x="346" 
d="M316 123h-50v-123h-56v123h-189v51l181 538h55l-179 -538h132v199h56v-199h50v-51z" />
    <glyph glyph-name="five.lf" horiz-adv-x="341" 
d="M305 224c0 -111 -7 -155 -40 -192c-21 -25 -56 -40 -91 -40s-69 12 -90 33c-22 22 -38 52 -38 102v47h56v-45c0 -60 32 -87 73 -87c19 0 37 8 49 25c18 24 25 53 25 157c0 102 -8 133 -25 158c-12 18 -30 26 -50 26c-40 0 -72 -33 -72 -83v-33h-52v420h245v-50h-194v-252
c8 13 18 23 33 33c17 10 34 14 54 14c35 0 62 -15 81 -39c28 -33 36 -73 36 -194z" />
    <glyph glyph-name="six.lf" horiz-adv-x="342" 
d="M301 210c0 -108 -7 -145 -36 -179c-21 -26 -57 -39 -94 -39c-39 0 -73 14 -93 39c-30 36 -37 73 -37 179c0 80 9 137 29 191l115 311h56l-114 -306c16 13 35 21 58 21c34 0 61 -13 81 -36c26 -29 35 -58 35 -181zM245 210c0 82 -3 125 -24 148c-13 14 -30 21 -50 21
c-19 0 -37 -7 -50 -21c-21 -24 -24 -66 -24 -148c0 -81 3 -123 24 -147c13 -14 31 -21 50 -21c20 0 37 7 50 21c21 24 24 66 24 147z" />
    <glyph glyph-name="seven.lf" horiz-adv-x="324" 
d="M301 666l-173 -666h-59l175 662h-154v-116h-56v166h267v-46z" />
    <glyph glyph-name="eight.lf" horiz-adv-x="341" 
d="M301 196c0 -98 -7 -135 -40 -169c-20 -21 -55 -35 -90 -35s-70 14 -91 35c-32 34 -40 71 -40 169s7 121 26 149c9 14 23 26 40 35c-16 9 -31 23 -40 38c-14 25 -21 51 -21 121c0 84 10 120 39 148c21 21 51 33 87 33c35 0 66 -12 87 -33c28 -28 38 -64 38 -148
c0 -70 -6 -96 -21 -121c-9 -15 -23 -29 -39 -38c16 -9 30 -21 39 -35c20 -28 26 -51 26 -149zM245 197c0 91 -5 116 -25 138c-13 14 -30 21 -49 21c-20 0 -37 -7 -49 -21c-21 -22 -25 -47 -25 -138c0 -80 6 -112 25 -134c12 -14 29 -21 49 -21c19 0 37 7 49 21
c19 22 25 54 25 134zM240 537c0 65 -7 96 -23 114c-12 12 -28 19 -46 19c-19 0 -34 -7 -46 -19c-17 -18 -23 -49 -23 -114c0 -64 5 -96 24 -115c11 -12 27 -17 45 -17s33 5 44 17c19 19 25 51 25 115z" />
    <glyph glyph-name="nine.lf" horiz-adv-x="342" 
d="M301 502c0 -80 -9 -137 -29 -191l-114 -311h-57l115 306c-17 -13 -36 -21 -59 -21c-33 0 -61 13 -81 36c-26 29 -35 58 -35 181c0 108 7 145 36 179c22 26 57 39 94 39c39 0 73 -14 94 -39c30 -36 36 -73 36 -179zM245 502c0 81 -3 123 -24 147c-13 14 -30 21 -50 21
c-19 0 -37 -7 -50 -21c-21 -24 -24 -66 -24 -147c0 -82 3 -125 24 -148c13 -14 31 -21 50 -21c20 0 37 7 50 21c21 24 24 66 24 148z" />
    <glyph glyph-name="zero.tosf" horiz-adv-x="361" 
d="M307 128c0 -50 -14 -79 -36 -101s-56 -35 -91 -35s-69 13 -90 35c-22 22 -36 51 -36 101v338c0 50 14 79 36 101c21 22 55 35 90 35s69 -13 91 -35s36 -51 36 -101v-338zM251 125v344c0 55 -31 83 -71 83c-39 0 -70 -28 -70 -83v-344c0 -55 31 -83 70 -83
c40 0 71 28 71 83z" />
    <glyph glyph-name="one.tosf" horiz-adv-x="361" 
d="M227 0h-56v529l-102 -89v67l102 87h56v-594z" />
    <glyph glyph-name="two.tosf" horiz-adv-x="361" 
d="M308 0h-262v47l166 281c31 52 35 81 35 140c0 56 -31 84 -70 84c-40 0 -71 -28 -71 -83v-46h-56v45c0 47 14 77 36 99s56 35 91 35s68 -12 89 -33c22 -21 37 -52 37 -102c0 -69 -10 -108 -45 -161l-150 -256h200v-50z" />
    <glyph glyph-name="three.tosf" horiz-adv-x="361" 
d="M301 78c0 -97 -6 -134 -40 -169c-20 -21 -55 -35 -90 -35s-69 13 -91 34c-22 22 -37 51 -37 101v49h57v-50c0 -56 32 -84 71 -84c20 0 37 8 49 21c19 22 25 54 25 135c0 92 -5 116 -25 138c-13 13 -29 21 -49 21h-41v49h41c18 0 34 6 45 17c18 20 23 50 23 115
s-6 95 -22 113c-12 13 -27 19 -46 19c-39 0 -66 -28 -66 -83v-51h-57v49c0 47 11 75 36 101c21 22 52 34 87 34c36 0 66 -12 87 -33c27 -26 37 -62 37 -147c0 -69 -5 -96 -19 -121c-9 -16 -24 -29 -40 -38c16 -9 30 -21 40 -34c19 -29 25 -52 25 -151z" />
    <glyph glyph-name="four.tosf" horiz-adv-x="361" 
d="M331 30h-57v-153h-57v153h-188v50l181 549h55l-179 -549h131v200h57v-200h57v-50z" />
    <glyph glyph-name="five.tosf" horiz-adv-x="361" 
d="M312 108c0 -113 -6 -156 -40 -194c-21 -24 -54 -40 -90 -40c-74 0 -129 39 -129 156v25h57v-47c0 -57 34 -86 72 -86c42 0 74 13 74 184c0 166 -31 183 -74 183c-41 0 -72 -32 -72 -82v-34h-53v421h245v-51h-193v-252c15 28 44 47 86 47c36 0 63 -14 82 -38
c29 -36 35 -81 35 -192z" />
    <glyph glyph-name="six.tosf" horiz-adv-x="361" 
d="M311 210c0 -108 -8 -145 -37 -179c-21 -26 -57 -39 -94 -39c-38 0 -73 14 -93 39c-30 36 -37 73 -37 179c0 80 9 137 29 191l115 311h57l-115 -306c16 13 35 21 58 21c34 0 61 -13 81 -36c26 -29 36 -58 36 -181zM254 210c0 82 -2 125 -24 148c-13 14 -30 21 -50 21
c-19 0 -37 -7 -49 -21c-22 -24 -25 -66 -25 -148c0 -81 3 -123 25 -147c12 -14 30 -21 49 -21c20 0 38 7 50 21c22 24 24 66 24 147z" />
    <glyph glyph-name="seven.tosf" horiz-adv-x="361" 
d="M321 548l-193 -666h-55l190 662h-162v-116h-55v166h275v-46z" />
    <glyph glyph-name="eight.tosf" horiz-adv-x="361" 
d="M311 196c0 -98 -8 -135 -40 -169c-21 -21 -56 -35 -91 -35s-69 14 -90 35c-33 34 -40 71 -40 169s6 121 26 149c9 14 23 26 39 35c-16 9 -30 23 -39 38c-15 25 -21 51 -21 121c0 84 10 120 38 148c22 21 52 33 87 33s66 -12 88 -33c28 -28 38 -64 38 -148
c0 -70 -7 -96 -21 -121c-9 -15 -23 -29 -40 -38c17 -9 31 -21 40 -35c19 -28 26 -51 26 -149zM254 197c0 91 -4 116 -25 138c-12 13 -29 21 -49 21c-19 0 -36 -8 -49 -21c-20 -22 -25 -47 -25 -138c0 -80 7 -112 25 -134c12 -14 30 -21 49 -21c20 0 38 7 49 21
c19 22 25 54 25 134zM249 537c0 65 -6 96 -23 114c-12 13 -27 19 -46 19c-18 0 -34 -6 -45 -19c-17 -18 -24 -49 -24 -114c0 -64 6 -96 25 -115c11 -12 26 -17 44 -17c19 0 34 5 45 17c19 19 24 51 24 115z" />
    <glyph glyph-name="nine.tosf" horiz-adv-x="361" 
d="M311 384c0 -80 -9 -137 -29 -191l-115 -311h-57l115 306c-16 -13 -36 -21 -58 -21c-34 0 -61 13 -81 36c-26 29 -36 58 -36 181c0 108 8 145 37 179c21 26 56 39 94 39s72 -14 93 -39c30 -36 37 -73 37 -179zM254 384c0 81 -2 123 -24 147c-12 14 -30 21 -50 21
c-19 0 -37 -7 -49 -21c-22 -24 -25 -66 -25 -147c0 -82 3 -125 25 -148c12 -14 30 -21 49 -21c20 0 38 7 50 21c22 24 24 66 24 148z" />
    <glyph glyph-name="uni2007.tosf" horiz-adv-x="361" 
 />
    <glyph glyph-name="hyphen.case" horiz-adv-x="301" 
d="M246 329h-191v53h191v-53z" />
    <glyph glyph-name="exclamdown.case" horiz-adv-x="227" 
d="M127 0h-56v525h56v-525zM137 637h-75v75h75v-75z" />
    <glyph glyph-name="guillemotleft.case" horiz-adv-x="371" 
d="M316 146l-136 210l136 210v-96l-76 -114l76 -115v-95zM164 146l-135 210l135 210v-96l-75 -114l75 -115v-95z" />
    <glyph glyph-name="uni00AD.case" horiz-adv-x="301" 
d="M246 329h-191v53h191v-53z" />
    <glyph glyph-name="guillemotright.case" horiz-adv-x="371" 
d="M342 356l-136 -210v95l76 115l-76 114v96zM191 356l-136 -210v95l76 115l-76 114v96z" />
    <glyph glyph-name="questiondown.case" horiz-adv-x="375" 
d="M317 150c0 -50 -9 -90 -39 -119c-23 -23 -56 -37 -96 -37c-41 0 -74 11 -99 37c-27 28 -40 60 -40 134c0 47 5 77 29 115l58 93c15 23 21 47 21 74v78h56v-85c0 -31 -9 -59 -24 -83l-58 -92c-22 -35 -26 -61 -26 -101c0 -54 10 -79 28 -98c13 -14 31 -22 55 -22
s40 8 53 21c22 22 26 54 26 85h56zM217 637h-75v75h75v-75z" />
    <glyph glyph-name="endash.case" horiz-adv-x="431" 
d="M383 328h-335v54h335v-54z" />
    <glyph glyph-name="emdash.case" horiz-adv-x="671" 
d="M616 328h-561v54h561v-54z" />
    <glyph glyph-name="afii00208.case" horiz-adv-x="670" 
d="M616 328h-561v54h561v-54z" />
    <glyph glyph-name="guilsinglleft.case" horiz-adv-x="219" 
d="M164 146l-136 210l136 210v-96l-75 -114l75 -115v-95z" />
    <glyph glyph-name="guilsinglright.case" horiz-adv-x="219" 
d="M191 356l-136 -210v95l75 115l-75 114v96z" />
    <glyph glyph-name="caroncomma.ss01" horiz-adv-x="500" 
d="M416 610l-52 -40v152h52v-112z" />
    <glyph glyph-name="commaaccent.ss01" horiz-adv-x="354" 
d="M220 -118c0 -50 -36 -87 -92 -87v38c28 0 50 21 50 49c0 27 -22 48 -50 48v39c56 0 92 -38 92 -87z" />
    <glyph glyph-name="commaturn.ss01" horiz-adv-x="354" 
d="M222 565c-55 0 -92 37 -92 87s37 87 92 87v-38c-27 0 -49 -22 -49 -49c0 -28 22 -49 49 -49v-38z" />
    <glyph glyph-name="exclam.ss01" horiz-adv-x="227" 
d="M156 187h-57v525h57v-525zM172 41c0 -25 -20 -45 -44 -45c-25 0 -45 20 -45 45c0 24 20 44 45 44c24 0 44 -20 44 -44z" />
    <glyph glyph-name="period.ss01" horiz-adv-x="199" 
d="M144 41c0 -24 -20 -44 -45 -44c-24 0 -44 20 -44 44c0 25 20 45 44 45c25 0 45 -20 45 -45z" />
    <glyph glyph-name="colon.ss01" horiz-adv-x="227" 
d="M172 357c0 -25 -20 -45 -44 -45c-25 0 -45 20 -45 45c0 24 20 44 45 44c24 0 44 -20 44 -44zM172 41c0 -25 -20 -45 -44 -45c-25 0 -45 20 -45 45c0 24 20 44 45 44c24 0 44 -20 44 -44z" />
    <glyph glyph-name="semicolon.ss01" horiz-adv-x="227" 
d="M162 -48l-69 -51v176h69v-125zM172 357c0 -25 -20 -45 -44 -45c-25 0 -45 20 -45 45c0 24 20 44 45 44c24 0 44 -20 44 -44z" />
    <glyph glyph-name="question.ss01" horiz-adv-x="375" 
d="M332 547c0 -47 -5 -77 -29 -115l-58 -93c-15 -23 -22 -47 -22 -74v-78h-56v85c0 31 10 58 25 82l58 93c22 35 26 61 26 101c0 54 -10 79 -28 98c-13 14 -31 22 -55 22s-41 -8 -54 -21c-22 -22 -26 -55 -26 -86h-56c0 50 9 91 39 120c23 23 57 37 97 37
c41 0 73 -11 98 -37c27 -28 41 -60 41 -134zM240 40c0 -25 -20 -44 -45 -44s-44 19 -44 44s19 45 44 45s45 -20 45 -45z" />
    <glyph glyph-name="at.ss01" horiz-adv-x="712" 
d="M427 333c1 9 1 17 1 21c0 55 -22 75 -45 75c-19 0 -36 -8 -53 -34c-19 -28 -36 -86 -47 -140c-6 -32 -13 -70 -13 -100c0 -55 21 -75 45 -75c20 0 38 14 53 36c18 28 32 62 47 139c5 28 10 57 12 78zM653 367c0 -165 -85 -331 -237 -331h-40l10 50
c-23 -33 -51 -56 -84 -56c-63 0 -88 51 -88 121c0 26 5 70 12 104c17 86 41 149 67 180c28 33 57 44 84 44c40 0 66 -28 73 -57l11 52h54l-79 -394c93 2 169 132 169 286c0 166 -78 276 -197 276c-167 0 -290 -223 -290 -445c0 -201 93 -340 241 -340h37l-8 -41h-36
c-172 0 -283 158 -283 384c1 254 147 486 340 486c148 0 244 -128 244 -319z" />
    <glyph glyph-name="i.ss01" horiz-adv-x="181" 
d="M118 0h-56v509h56v-509zM131 663c0 -22 -18 -41 -41 -41c-22 0 -40 19 -40 41s18 41 40 41c23 0 41 -19 41 -41z" />
    <glyph glyph-name="j.ss01" horiz-adv-x="181" 
d="M118 -67c0 -52 -15 -83 -38 -104c-28 -26 -63 -32 -101 -32v50c52 0 83 22 83 86v576h56v-576zM131 663c0 -22 -18 -41 -41 -41c-22 0 -40 19 -40 41s18 41 40 41c23 0 41 -19 41 -41z" />
    <glyph glyph-name="exclamdown.ss01" horiz-adv-x="227" 
d="M128 -203h-57v525h57v-525zM144 468c0 -24 -20 -44 -45 -44c-24 0 -44 20 -44 44c0 25 20 45 44 45c25 0 45 -20 45 -45z" />
    <glyph glyph-name="dieresis.ss01" horiz-adv-x="354" 
d="M284 637c0 -20 -17 -37 -38 -37s-37 17 -37 37c0 21 16 38 37 38s38 -17 38 -38zM146 637c0 -20 -17 -37 -38 -37c-20 0 -37 17 -37 37c0 21 17 38 37 38c21 0 38 -17 38 -38z" />
    <glyph glyph-name="periodcentered.ss01" horiz-adv-x="236" 
d="M175 306c0 -31 -26 -57 -57 -57s-57 26 -57 57s26 57 57 57s57 -26 57 -57z" />
    <glyph glyph-name="cedilla.ss01" horiz-adv-x="354" 
d="M220 -118c0 -50 -36 -87 -92 -87v38c28 0 50 21 50 49c0 27 -22 48 -50 48v39c56 0 92 -38 92 -87z" />
    <glyph glyph-name="questiondown.ss01" horiz-adv-x="375" 
d="M317 -53c0 -50 -9 -90 -39 -119c-23 -23 -56 -37 -96 -37c-41 0 -74 11 -99 37c-27 28 -40 60 -40 134c0 47 5 77 29 115l58 93c15 23 21 47 21 74v78h56v-85c0 -31 -9 -59 -24 -83l-58 -92c-22 -35 -26 -61 -26 -101c0 -54 10 -79 28 -98c13 -14 31 -22 55 -22
s40 8 53 21c22 22 26 54 26 85h56zM224 468c0 -25 -20 -44 -45 -44s-44 19 -44 44s19 45 44 45s45 -20 45 -45z" />
    <glyph glyph-name="Adieresis.ss01" horiz-adv-x="379" 
d="M374 0h-63l-39 195h-166l-38 -195h-64l159 712h55zM261 248l-72 358l-71 -358h143zM160 815c0 -20 -17 -37 -37 -37c-21 0 -38 17 -38 37c0 21 17 38 38 38c20 0 37 -17 37 -38zM298 815c0 -20 -17 -37 -38 -37c-20 0 -37 17 -37 37c0 21 17 38 37 38c21 0 38 -17 38 -38
z" />
    <glyph glyph-name="Ccedilla.ss01" horiz-adv-x="399" 
d="M358 163c-1 -56 -17 -107 -50 -137c-24 -22 -56 -34 -98 -34c-46 0 -82 16 -106 42c-43 46 -50 96 -50 322s7 276 50 322c24 26 60 42 106 42s78 -14 102 -38c31 -31 45 -79 46 -133h-59c0 36 -7 72 -28 94c-14 15 -33 24 -61 24s-49 -10 -63 -26
c-29 -34 -34 -76 -34 -285s5 -251 34 -285c14 -16 35 -26 63 -26s48 10 61 24c21 22 28 59 28 94h59zM256 -118c0 -50 -36 -87 -92 -87v38c28 0 50 21 50 49c0 27 -22 48 -50 48v39c56 0 92 -38 92 -87z" />
    <glyph glyph-name="Edieresis.ss01" horiz-adv-x="364" 
d="M317 0h-248v712h248v-53h-189v-276h163v-53h-163v-277h189v-53zM166 815c0 -20 -17 -37 -37 -37c-21 0 -38 17 -38 37c0 21 17 38 38 38c20 0 37 -17 37 -38zM304 815c0 -20 -17 -37 -38 -37c-20 0 -37 17 -37 37c0 21 17 38 37 38c21 0 38 -17 38 -38z" />
    <glyph glyph-name="Idieresis.ss01" horiz-adv-x="197" 
d="M128 0h-59v712h59v-712zM67 815c0 -20 -17 -37 -37 -37c-21 0 -38 17 -38 37c0 21 17 38 38 38c20 0 37 -17 37 -38zM205 815c0 -20 -17 -37 -38 -37c-20 0 -37 17 -37 37c0 21 17 38 37 38c21 0 38 -17 38 -38z" />
    <glyph glyph-name="Odieresis.ss01" horiz-adv-x="421" 
d="M367 356c0 -226 -7 -276 -50 -322c-24 -26 -61 -42 -107 -42s-82 16 -106 42c-43 46 -50 96 -50 322s7 276 50 322c24 26 60 42 106 42s83 -16 107 -42c43 -46 50 -96 50 -322zM308 356c0 209 -5 251 -34 285c-14 16 -36 26 -64 26s-49 -10 -63 -26
c-29 -34 -34 -76 -34 -285s5 -251 34 -285c14 -16 35 -26 63 -26s50 10 64 26c29 34 34 76 34 285zM179 815c0 -20 -17 -37 -37 -37c-21 0 -38 17 -38 37c0 21 17 38 38 38c20 0 37 -17 37 -38zM317 815c0 -20 -17 -37 -38 -37c-20 0 -37 17 -37 37c0 21 17 38 37 38
c21 0 38 -17 38 -38z" />
    <glyph glyph-name="Udieresis.ss01" horiz-adv-x="417" 
d="M356 148c0 -50 -16 -89 -42 -115c-28 -27 -65 -41 -105 -41s-77 14 -105 41c-26 26 -43 65 -43 115v564h59v-569c0 -61 40 -98 89 -98s88 37 88 98v569h59v-564zM178 815c0 -20 -17 -37 -37 -37c-21 0 -38 17 -38 37c0 21 17 38 38 38c20 0 37 -17 37 -38zM316 815
c0 -20 -17 -37 -38 -37c-20 0 -37 17 -37 37c0 21 17 38 37 38c21 0 38 -17 38 -38z" />
    <glyph glyph-name="adieresis.ss01" horiz-adv-x="352" 
d="M294 0h-54v46c-7 -14 -19 -27 -28 -34c-16 -12 -33 -20 -61 -20c-32 0 -59 11 -81 34c-19 20 -33 60 -33 115c0 48 14 89 43 115c25 23 54 34 100 34h58v91c0 56 -23 87 -70 87c-20 0 -35 -8 -46 -19c-16 -17 -23 -37 -23 -71h-56c0 38 8 76 37 105c21 21 51 34 88 34
c40 0 71 -11 91 -32c23 -24 35 -56 35 -106v-379zM238 134v112h-56c-26 0 -45 -6 -62 -22c-17 -17 -27 -48 -27 -82c0 -61 22 -100 71 -100c45 0 74 39 74 92zM278 637c0 -20 -17 -37 -37 -37c-21 0 -38 17 -38 37c0 21 17 38 38 38c20 0 37 -17 37 -38zM140 637
c0 -20 -16 -37 -37 -37s-38 17 -38 37c0 21 17 38 38 38s37 -17 37 -38z" />
    <glyph glyph-name="ccedilla.ss01" horiz-adv-x="340" 
d="M303 134c-1 -48 -10 -83 -36 -109c-22 -22 -51 -33 -90 -33s-72 14 -94 40c-31 36 -38 102 -38 222s7 186 38 222c22 27 55 41 94 41s67 -9 90 -32c30 -29 35 -69 36 -111h-55c0 26 -1 52 -20 72c-12 14 -29 21 -50 21c-22 0 -41 -9 -52 -23c-22 -28 -25 -81 -25 -190
s3 -161 25 -189c11 -14 30 -23 52 -23c19 0 36 7 49 20c17 18 21 42 21 72h55zM220 -118c0 -50 -36 -87 -92 -87v38c28 0 50 21 50 49c0 27 -22 48 -50 48v39c56 0 92 -38 92 -87z" />
    <glyph glyph-name="edieresis.ss01" horiz-adv-x="349" 
d="M309 246h-208c0 -104 3 -155 26 -181c11 -13 29 -23 51 -23c20 0 39 6 52 20c15 16 22 41 22 72h55c0 -49 -11 -80 -37 -107c-23 -24 -55 -35 -92 -35c-39 0 -69 13 -92 37c-33 36 -41 104 -41 225c0 122 7 189 41 226c22 24 52 37 91 37s69 -13 91 -37
c34 -37 41 -104 41 -234zM253 291c-1 88 -6 130 -26 153c-11 13 -27 23 -50 23s-40 -10 -51 -23c-20 -23 -24 -65 -25 -153h152zM283 637c0 -20 -17 -37 -37 -37c-21 0 -38 17 -38 37c0 21 17 38 38 38c20 0 37 -17 37 -38zM145 637c0 -20 -16 -37 -37 -37s-38 17 -38 37
c0 21 17 38 38 38s37 -17 37 -38z" />
    <glyph glyph-name="idieresis.ss01" horiz-adv-x="181" 
d="M119 0h-56v509h56v-509zM197 637c0 -20 -17 -37 -37 -37c-21 0 -38 17 -38 37c0 21 17 38 38 38c20 0 37 -17 37 -38zM59 637c0 -20 -16 -37 -37 -37s-38 17 -38 37c0 21 17 38 38 38s37 -17 37 -38z" />
    <glyph glyph-name="odieresis.ss01" horiz-adv-x="353" 
d="M309 254c0 -120 -7 -185 -38 -222c-22 -27 -53 -40 -94 -40s-72 13 -94 40c-31 37 -38 102 -38 222s7 185 38 222c22 27 53 41 94 41s72 -14 94 -41c31 -37 38 -102 38 -222zM253 254c0 109 -3 162 -26 190c-11 13 -28 23 -50 23s-40 -10 -51 -23
c-23 -28 -25 -81 -25 -190s2 -161 25 -189c11 -13 29 -23 51 -23s39 10 50 23c23 28 26 80 26 189zM283 637c0 -20 -17 -37 -37 -37c-21 0 -38 17 -38 37c0 21 17 38 38 38c20 0 37 -17 37 -38zM145 637c0 -20 -16 -37 -37 -37s-38 17 -38 37c0 21 17 38 38 38
s37 -17 37 -38z" />
    <glyph glyph-name="divide.ss01" horiz-adv-x="431" 
d="M383 248h-335v53h335v-53zM260 128c0 -24 -20 -44 -44 -44s-45 20 -45 44s21 45 45 45s44 -21 44 -45zM260 421c0 -24 -20 -44 -44 -44s-45 20 -45 44c0 25 21 45 45 45s44 -20 44 -45z" />
    <glyph glyph-name="udieresis.ss01" horiz-adv-x="373" 
d="M311 0h-55v41c-6 -11 -20 -25 -29 -31c-16 -11 -35 -18 -58 -18c-34 0 -59 12 -80 34c-20 21 -31 50 -31 101v382h56v-383c0 -56 31 -83 70 -83s71 27 71 83v383h56v-509zM290 637c0 -20 -17 -37 -37 -37c-21 0 -38 17 -38 37c0 21 17 38 38 38c20 0 37 -17 37 -38z
M152 637c0 -20 -16 -37 -37 -37s-38 17 -38 37c0 21 17 38 38 38s37 -17 37 -38z" />
    <glyph glyph-name="ydieresis.ss01" horiz-adv-x="308" 
d="M301 509l-144 -608c-19 -79 -71 -104 -148 -104v50c55 0 82 22 93 65l23 90l-121 507h62l87 -420l87 420h61zM264 637c0 -20 -17 -37 -37 -37c-21 0 -38 17 -38 37c0 21 17 38 38 38c20 0 37 -17 37 -38zM126 637c0 -20 -16 -37 -37 -37s-38 17 -38 37c0 21 17 38 38 38
s37 -17 37 -38z" />
    <glyph glyph-name="Aogonek.ss01" horiz-adv-x="379" 
d="M374 0h-63l-39 195h-166l-38 -195h-64l159 712h55zM261 248l-72 358l-71 -358h143zM369 -205c-56 0 -92 37 -92 87c0 49 36 87 92 87v-39c-28 0 -49 -21 -49 -48c0 -28 21 -49 49 -49v-38z" />
    <glyph glyph-name="aogonek.ss01" horiz-adv-x="352" 
d="M294 0h-54v46c-7 -14 -19 -27 -28 -34c-16 -12 -33 -20 -61 -20c-32 0 -59 11 -81 34c-19 20 -33 60 -33 115c0 48 14 89 43 115c25 23 54 34 100 34h58v91c0 56 -23 87 -70 87c-20 0 -35 -8 -46 -19c-16 -17 -23 -37 -23 -71h-56c0 38 8 76 37 105c21 21 51 34 88 34
c40 0 71 -11 91 -32c23 -24 35 -56 35 -106v-379zM238 134v112h-56c-26 0 -45 -6 -62 -22c-17 -17 -27 -48 -27 -82c0 -61 22 -100 71 -100c45 0 74 39 74 92zM288 -205c-56 0 -92 37 -92 87c0 49 36 87 92 87v-39c-28 0 -49 -21 -49 -48c0 -28 21 -49 49 -49v-38z" />
    <glyph glyph-name="Cdotaccent.ss01" horiz-adv-x="399" 
d="M358 163c-1 -56 -17 -107 -50 -137c-24 -22 -56 -34 -98 -34c-46 0 -82 16 -106 42c-43 46 -50 96 -50 322s7 276 50 322c24 26 60 42 106 42s78 -14 102 -38c31 -31 45 -79 46 -133h-59c0 36 -7 72 -28 94c-14 15 -33 24 -61 24s-49 -10 -63 -26
c-29 -34 -34 -76 -34 -285s5 -251 34 -285c14 -16 35 -26 63 -26s48 10 61 24c21 22 28 59 28 94h59zM248 811c0 -20 -17 -37 -37 -37c-21 0 -38 17 -38 37c0 21 17 38 38 38c20 0 37 -17 37 -38z" />
    <glyph glyph-name="cdotaccent.ss01" horiz-adv-x="340" 
d="M303 134c-1 -48 -10 -83 -36 -109c-22 -22 -51 -33 -90 -33s-72 14 -94 40c-31 36 -38 102 -38 222s7 186 38 222c22 27 55 41 94 41s67 -9 90 -32c30 -29 35 -69 36 -111h-55c0 26 -1 52 -20 72c-12 14 -29 21 -50 21c-22 0 -41 -9 -52 -23c-22 -28 -25 -81 -25 -190
s3 -161 25 -189c11 -14 30 -23 52 -23c19 0 36 7 49 20c17 18 21 42 21 72h55zM214 637c0 -20 -17 -37 -37 -37c-21 0 -38 17 -38 37c0 21 17 38 38 38c20 0 37 -17 37 -38z" />
    <glyph glyph-name="dcaron.ss01" horiz-adv-x="365" 
d="M303 0h-55v41c-5 -11 -19 -25 -28 -31c-17 -12 -35 -18 -58 -18c-31 0 -58 12 -79 36c-31 35 -38 99 -38 226s7 190 38 227c18 22 43 36 79 36c23 0 44 -6 58 -16c9 -7 20 -19 27 -30v241h56v-712zM247 131v247c0 33 -8 55 -23 70c-13 12 -29 19 -49 19s-37 -10 -48 -23
c-23 -26 -26 -75 -26 -190s3 -163 26 -190c11 -13 28 -22 48 -22s36 7 49 19c15 15 23 37 23 70zM416 609l-52 -40v152h52v-112z" />
    <glyph glyph-name="Edotaccent.ss01" horiz-adv-x="364" 
d="M317 0h-248v712h248v-53h-189v-276h163v-53h-163v-277h189v-53zM217 811c0 -20 -17 -37 -37 -37c-21 0 -38 17 -38 37c0 21 17 38 38 38c20 0 37 -17 37 -38z" />
    <glyph glyph-name="edotaccent.ss01" horiz-adv-x="349" 
d="M309 246h-208c0 -104 3 -155 26 -181c11 -13 29 -23 51 -23c20 0 39 6 52 20c15 16 22 41 22 72h55c0 -49 -11 -80 -37 -107c-23 -24 -55 -35 -92 -35c-39 0 -69 13 -92 37c-33 36 -41 104 -41 225c0 122 7 189 41 226c22 24 52 37 91 37s69 -13 91 -37
c34 -37 41 -104 41 -234zM253 291c-1 88 -6 130 -26 153c-11 13 -27 23 -50 23s-40 -10 -51 -23c-20 -23 -24 -65 -25 -153h152zM214 637c0 -20 -17 -37 -37 -37c-21 0 -38 17 -38 37c0 21 17 38 38 38c20 0 37 -17 37 -38z" />
    <glyph glyph-name="Eogonek.ss01" horiz-adv-x="364" 
d="M317 0h-248v712h248v-53h-189v-276h163v-53h-163v-277h189v-53zM310 -205c-56 0 -92 37 -92 87c0 49 36 87 92 87v-39c-28 0 -49 -21 -49 -48c0 -28 21 -49 49 -49v-38z" />
    </font>
</defs>
</svg>
